<?xml version="1.0" encoding="UTF-8"?>
<svg width="1024px" height="238px" viewBox="0 0 1024 238" version="1.1" xmlns="http://www.w3.org/2000/svg" xmlns:xlink="http://www.w3.org/1999/xlink">
    <!-- Generator: Sketch 51.3 (57544) - http://www.bohemiancoding.com/sketch -->
    <title>Group 12</title>
    <desc>Created with Sketch.</desc>
    <defs></defs>
    <g id="SOW003" stroke="none" stroke-width="1" fill="none" fill-rule="evenodd">
        <g id="Invitation-UX" transform="translate(-2771.000000, -2107.000000)">
            <g id="Group-7" transform="translate(2709.000000, 155.000000)">
                <g id="Group-6" transform="translate(0.000000, 37.000000)">
                    <g id="Group-3" transform="translate(0.000000, 76.000000)">
                        <g id="GF_Logo_Horizontal_Green-(1)" transform="translate(0.000000, 1777.000000)">
                            <g id="Group-12">
                                <rect id="Rectangle-path" x="-0.0001591" y="0.0007502" width="1148.32953" height="361.595863"></rect>
                                <path d="M395.400237,128.931587 C390.103827,128.931587 385.183004,130.236589 380.637767,132.814765 C376.092531,135.424769 372.521273,139.002385 369.949459,143.585808 C367.364913,148.162865 366.072639,153.109142 366.072639,158.443737 C366.072639,166.515654 368.739942,173.199813 374.087279,178.477115 C379.434616,183.748051 386.360691,186.389885 394.865503,186.389885 C403.465804,186.389885 410.385512,183.77988 415.611898,178.547139 C420.851015,173.308032 423.467391,166.439264 423.467391,157.909005 C423.467391,152.351604 422.270606,147.392596 419.857938,143.04471 C417.451636,138.690458 414.039526,135.252891 409.627973,132.725643 C405.222786,130.192028 400.486573,128.931587 395.400237,128.931587 Z M423.002681,121.687233 L432.360521,121.687233 L432.360521,180.374142 C432.360521,190.699576 431.456567,198.262223 429.680487,203.049354 C427.229624,209.816268 422.977218,215.029912 416.916903,218.690284 C410.856587,222.337925 403.580389,224.171294 395.062845,224.171294 C388.837017,224.171294 383.235045,223.273707 378.263295,221.491265 C373.291544,219.702457 369.255578,217.302526 366.142664,214.285106 C363.023384,211.286783 360.146007,206.881605 357.523266,201.088667 L367.676841,201.088667 C370.433265,205.958554 374.004523,209.568 378.377881,211.910638 C382.744872,214.253276 388.162234,215.430961 394.629966,215.430961 C401.008575,215.430961 406.394107,214.234179 410.786563,211.821516 C415.179018,209.421585 418.317396,206.397799 420.19533,202.750158 C422.054166,199.108883 423.002681,193.23319 423.002681,185.110346 L423.002681,181.31629 C419.482351,185.829689 415.15992,189.279988 410.086316,191.711748 C405.006346,194.118045 399.608082,195.333925 393.910622,195.333925 C387.207353,195.333925 380.930597,193.646971 375.042161,190.29216 C369.153724,186.930983 364.602122,182.398488 361.393719,176.726502 C358.185317,171.029053 356.581116,164.784139 356.581116,157.972663 C356.581116,151.148456 358.248976,144.801689 361.584696,138.913263 C364.939513,133.024838 369.56114,128.365025 375.481406,124.946555 C381.388941,121.508988 387.602037,119.790205 394.171622,119.790205 C399.608082,119.790205 404.688052,120.93606 409.38607,123.208674 C414.090453,125.487654 418.616592,129.24988 423.002681,134.46989 L423.002681,121.687233 Z" id="Shape" fill="#676968" fill-rule="nonzero"></path>
                                <path d="M446.11734,121.689146 L455.678888,121.689146 L455.678888,132.453824 C458.524435,128.207792 461.535495,125.031226 464.699336,122.93049 C467.856811,120.842486 471.154336,119.792119 474.585544,119.792119 C477.176456,119.792119 479.932881,120.626047 482.880282,122.293904 L477.991288,130.283064 C476.030598,129.430038 474.388202,128.990794 473.038636,128.990794 C469.932087,128.990794 466.927393,130.302162 464.024553,132.893069 C461.121713,135.483976 458.925485,139.500837 457.40404,144.969115 C456.251817,149.16422 455.678888,157.643552 455.678888,170.419843 L455.678888,195.329473 L446.11734,195.329473 L446.11734,121.689146 Z" id="Shape" fill="#676968" fill-rule="nonzero"></path>
                                <path d="M546.004878,151.056549 C544.763532,146.002052 542.949257,141.97246 540.549321,138.95504 C538.168483,135.924888 535.004642,133.480396 531.083262,131.634295 C527.168247,129.781828 523.036792,128.865144 518.714362,128.865144 C511.578213,128.865144 505.447873,131.182318 500.31061,135.8294 C496.554742,139.21604 493.734658,144.289635 491.812164,151.056549 L546.004878,151.056549 Z M546.004878,170.898951 L553.8922,175.08769 C551.301288,180.231309 548.315692,184.388219 544.929045,187.545688 C541.542398,190.703157 537.729238,193.096722 533.495929,194.758213 C529.256255,196.400606 524.456383,197.228168 519.109046,197.228168 C507.255782,197.228168 497.974333,193.287698 491.296527,185.413123 C484.599624,177.538548 481.257539,168.639068 481.257539,158.701953 C481.257539,149.369595 484.077622,141.043043 489.755985,133.73503 C496.930329,124.434502 506.542804,119.793786 518.574312,119.793786 C530.968676,119.793786 540.867615,124.555453 548.258399,134.078787 C553.542077,140.801141 556.215746,149.197717 556.28577,159.249418 L490.882745,159.249418 C491.06099,167.811506 493.760122,174.820323 498.980142,180.294967 C504.193795,185.763245 510.629697,188.487836 518.294214,188.487836 C521.999154,188.487836 525.608607,187.838517 529.116205,186.533515 C532.611072,185.241245 535.590303,183.503363 538.047531,181.351701 C540.498394,179.187307 543.146599,175.705179 546.004878,170.898951 Z" id="Shape" fill="#676968" fill-rule="nonzero"></path>
                                <path d="M629.463244,151.056549 C628.221898,146.002052 626.401257,141.97246 624.014053,138.95504 C621.633215,135.924888 618.475739,133.480396 614.547993,131.634295 C610.620247,129.781828 606.495158,128.865144 602.179093,128.865144 C595.042944,128.865144 588.899873,131.182318 583.775341,135.8294 C580.019474,139.21604 577.19939,144.289635 575.276895,151.056549 L629.463244,151.056549 Z M629.463244,170.898951 L637.350566,175.08769 C634.76602,180.231309 631.780423,184.388219 628.387411,187.545688 C624.994398,190.703157 621.187603,193.096722 616.954295,194.758213 C612.720986,196.400606 607.921115,197.228168 602.573777,197.228168 C590.707782,197.228168 581.439064,193.287698 574.748527,185.413123 C568.05799,177.538548 564.72227,168.639068 564.72227,158.701953 C564.72227,149.369595 567.555086,141.043043 573.207985,133.73503 C580.39506,124.434502 589.994804,119.793786 602.032678,119.793786 C614.439773,119.793786 624.332347,124.555453 631.729496,134.078787 C637.006809,140.801141 639.674111,149.197717 639.763234,159.249418 L574.341111,159.249418 C574.51299,167.811506 577.224853,174.820323 582.432141,180.294967 C587.658527,185.763245 594.094429,188.487836 601.765311,188.487836 C605.470252,188.487836 609.073338,187.838517 612.580937,186.533515 C616.075804,185.241245 619.048668,183.503363 621.505897,181.351701 C623.963126,179.187307 626.611331,175.705179 629.463244,170.898951 Z" id="Shape" fill="#676968" fill-rule="nonzero"></path>
                                <path d="M651.725752,121.689146 L661.077226,121.689146 L661.077226,134.872853 C664.820362,129.837454 668.964549,126.062496 673.509785,123.554345 C678.048656,121.039828 682.994943,119.792119 688.34228,119.792119 C693.766007,119.792119 698.597708,121.198975 702.799187,123.980858 C707.019764,126.788204 710.132678,130.569528 712.125198,135.293 C714.130449,140.022838 715.136258,147.407241 715.136258,157.433479 L715.136258,195.329473 L705.784784,195.329473 L705.784784,160.20263 C705.784784,151.723298 705.441026,146.051312 704.74078,143.20577 C703.652215,138.342249 701.570573,134.675511 698.508586,132.211921 C695.427501,129.754697 691.410633,128.526085 686.464346,128.526085 C680.811447,128.526085 675.744208,130.416747 671.268996,134.210803 C666.793784,138.004859 663.840017,142.696501 662.420427,148.285731 C661.522838,151.939737 661.077226,158.623895 661.077226,168.33184 L661.077226,195.329473 L651.725752,195.329473 L651.725752,121.689146 Z" id="Shape" fill="#676968" fill-rule="nonzero"></path>
                                <path d="M746.284122,115.78956 L746.271391,121.690716 L761.441276,121.690716 L761.441276,129.877219 L746.258659,129.877219 L746.207732,195.331043 L736.856258,195.331043 L736.856258,129.877219 L727.307442,129.877219 L727.307442,121.690716 L736.856258,121.690716 L736.856258,114.236288 C736.856258,108.95262 737.333699,105.190394 738.301312,102.924146 C739.256194,100.67063 740.873126,98.8563585 743.164842,97.4813316 C745.462924,96.1063048 748.238447,95.4251572 751.49141,95.4251572 L761.441276,95.4251572 L761.441276,104.515613 L751.650557,104.515613 C751.650557,104.515613 746.207732,105.400468 746.207732,110.213062 C746.207732,115.01929 746.284122,115.78956 746.284122,115.78956" id="Shape" fill="#676968" fill-rule="nonzero"></path>
                                <path d="M831.146655,151.056549 C829.892577,146.002052 828.084668,141.97246 825.691098,138.95504 C823.297528,135.924888 820.140053,133.480396 816.218672,131.634295 C812.290926,129.781828 808.172203,128.865144 803.837041,128.865144 C796.713624,128.865144 790.583284,131.182318 785.452387,135.8294 C781.702885,139.21604 778.863703,144.289635 776.95394,151.056549 L831.146655,151.056549 Z M831.146655,170.898951 L839.027611,175.08769 C836.430333,180.231309 833.444737,184.388219 830.070822,187.545688 C826.677809,190.703157 822.858283,193.096722 818.624974,194.758213 C814.391666,196.400606 809.591794,197.228168 804.244457,197.228168 C792.391193,197.228168 783.109744,193.287698 776.425572,185.413123 C769.741401,177.538548 766.39295,168.639068 766.39295,158.701953 C766.39295,149.369595 769.219399,141.043043 774.88503,133.73503 C782.06574,124.434502 791.678215,119.793786 803.703357,119.793786 C816.110452,119.793786 826.003026,124.555453 833.400176,134.078787 C838.671122,140.801141 841.344791,149.197717 841.433913,159.249418 L776.01179,159.249418 C776.196401,167.811506 778.895533,174.820323 784.102821,180.294967 C789.329206,185.763245 795.77784,188.487836 803.429625,188.487836 C807.140931,188.487836 810.75675,187.838517 814.24525,186.533515 C817.752849,185.241245 820.725714,183.503363 823.182942,181.351701 C825.633805,179.187307 828.294742,175.705179 831.146655,170.898951 Z" id="Shape" fill="#676968" fill-rule="nonzero"></path>
                                <path d="M853.392497,121.689146 L862.750337,121.689146 L862.750337,134.872853 C866.499839,129.837454 870.631293,126.062496 875.182895,123.554345 C879.734498,121.039828 884.668053,119.792119 890.01539,119.792119 C895.445483,119.792119 900.270819,121.198975 904.472298,123.980858 C908.69924,126.788204 911.799423,130.569528 913.798308,135.293 C915.809925,140.022838 916.815734,147.407241 916.815734,157.433479 L916.815734,195.329473 L907.457894,195.329473 L907.457894,160.20263 C907.457894,151.723298 907.107771,146.051312 906.41389,143.20577 C905.331691,138.342249 903.243683,134.675511 900.181696,132.211921 C897.100612,129.754697 893.090109,128.526085 888.150188,128.526085 C882.478191,128.526085 877.417318,130.416747 872.935741,134.210803 C868.460529,138.004859 865.519494,142.696501 864.093537,148.285731 C863.195948,151.939737 862.750337,158.623895 862.750337,168.33184 L862.750337,195.329473 L853.392497,195.329473 L853.392497,121.689146 Z" id="Shape" fill="#676968" fill-rule="nonzero"></path>
                                <path d="M1001.93839,136.982505 L994.52214,141.65505 C988.111702,133.035669 979.371352,128.725978 968.294725,128.725978 C959.427058,128.725978 952.080835,131.609715 946.23696,137.377189 C940.393084,143.151028 937.458415,150.159846 937.458415,158.410007 C937.458415,163.770065 938.801615,168.824562 941.500747,173.5544 C944.187147,178.277872 947.879356,181.957342 952.577374,184.580078 C957.26266,187.183717 962.539972,188.488719 968.36475,188.488719 C979.033961,188.488719 987.755213,184.191761 994.52214,175.566013 L1001.93839,180.505925 C998.462619,185.802324 993.802796,189.914673 987.939823,192.836605 C982.083216,195.771269 975.418142,197.229052 967.93187,197.229052 C956.435096,197.229052 946.899011,193.530485 939.336349,186.126983 C931.754589,178.729848 927.973257,169.728515 927.973257,159.122984 C927.973257,151.986849 929.742971,145.36635 933.288765,139.248753 C936.821827,133.137523 941.691723,128.363124 947.885722,124.944654 C954.079721,121.507087 960.993064,119.79467 968.65758,119.79467 C973.47655,119.79467 978.117274,120.539476 982.592486,122.016357 C987.074064,123.518701 990.868127,125.453924 993.993773,127.841123 C997.100321,130.241054 999.761258,133.290304 1001.93839,136.982505" id="Shape" fill="#676968" fill-rule="nonzero"></path>
                                <path d="M1075.64258,151.056549 C1074.40124,146.002052 1072.58696,141.97246 1070.19976,138.95504 C1067.81255,135.924888 1064.64871,133.480396 1060.72097,131.634295 C1056.80595,129.781828 1052.68086,128.865144 1048.35207,128.865144 C1041.20955,128.865144 1035.07921,131.182318 1029.95468,135.8294 C1026.19881,139.21604 1023.37236,144.289635 1021.44987,151.056549 L1075.64258,151.056549 Z M1075.64258,170.898951 L1083.5299,175.08769 C1080.94536,180.231309 1077.9534,184.388219 1074.56675,187.545688 C1071.17374,190.703157 1067.36694,193.096722 1063.13363,194.758213 C1058.89396,196.400606 1054.09409,197.228168 1048.74675,197.228168 C1036.89349,197.228168 1027.62477,193.287698 1020.92787,185.413123 C1014.24369,177.538548 1010.89524,168.639068 1010.89524,158.701953 C1010.89524,149.369595 1013.72806,141.043043 1019.39369,133.73503 C1026.56803,124.434502 1036.17414,119.793786 1048.21838,119.793786 C1060.61911,119.793786 1070.50532,124.555453 1077.90884,134.078787 C1083.17978,140.801141 1085.85345,149.197717 1085.93621,159.249418 L1020.51408,159.249418 C1020.69869,167.811506 1023.39783,174.820323 1028.61785,180.294967 C1033.8315,185.763245 1040.27377,188.487836 1047.95102,188.487836 C1051.65596,188.487836 1055.25268,187.838517 1058.74754,186.533515 C1062.24878,185.241245 1065.23437,183.503363 1067.68524,181.351701 C1070.14246,179.187307 1072.79704,175.705179 1075.64258,170.898951 Z" id="Shape" fill="#676968" fill-rule="nonzero"></path>
                                <polygon id="Shape" fill="#00C771" fill-rule="nonzero" points="137.322419 219.066217 112.992003 189.592144 112.992003 109.674756 252.716835 109.674756 231.66485 133.998823 137.322419 133.998823"></polygon>
                                <path d="M178.228393,299.332875 C114.359459,299.332875 62.3883655,247.361746 62.3883655,183.486401 L62.3883655,62.7827526 L212.241322,62.7827526 L191.189337,87.1195517 L86.7187819,87.1195517 L86.7187819,183.486401 C86.7187819,233.948815 127.766015,275.015174 178.228393,275.015174 C228.70987,275.015174 269.763468,233.948815 269.763468,183.486401 L269.763468,181.201046 L185.390015,181.201046 L161.384259,156.876979 L294.081153,156.876979 L294.081153,183.486401 C294.081153,247.361746 242.11006,299.332875 178.228393,299.332875" id="Shape" fill="#00C771" fill-rule="nonzero"></path>
                            </g>
                        </g>
                    </g>
                </g>
            </g>
        </g>
    </g>
</svg>