<?xml version="1.0" encoding="UTF-8"?>
<svg width="107px" height="20px" viewBox="0 0 107 20" version="1.1" xmlns="http://www.w3.org/2000/svg" xmlns:xlink="http://www.w3.org/1999/xlink">
    <!-- Generator: Sketch 51.3 (57544) - http://www.bohemiancoding.com/sketch -->
    <title>greenfence</title>
    <desc>Created with Sketch.</desc>
    <defs></defs>
    <g id="Document-Management" stroke="none" stroke-width="1" fill="none" fill-rule="evenodd">
        <g id="Artboard" transform="translate(-64.000000, -116.000000)" fill="#7B827F" fill-rule="nonzero">
            <g id="Main-page">
                <g id="Main-nav" transform="translate(0.000000, 82.000000)">
                    <g id="GF_Logo_Horizontal_Green-(1)" transform="translate(22.000000, 30.000000)">
                        <g id="Green" transform="translate(0.095890, 0.095890)">
                            <g id="greenfence" transform="translate(42.319266, 4.189069)">
                                <g id="Group" transform="translate(0.150519, 3.943185)">
                                    <path d="M5.85576667,1.33822962 C5.09114992,1.33822962 4.38075478,1.52422086 3.72458127,1.89166696 C3.06840775,2.26364943 2.55284285,2.7735376 2.1815626,3.42677511 C1.80844432,4.07910534 1.62188519,4.78405749 1.62188519,5.54435337 C1.62188519,6.69477721 2.0069506,7.64741525 2.77891944,8.39954566 C3.55088828,9.1507688 4.55077173,9.52728764 5.77856979,9.52728764 C7.02015301,9.52728764 8.01911745,9.15530517 8.77362509,8.40952568 C9.52997075,7.66283891 9.90768407,6.68388992 9.90768407,5.46814233 C9.90768407,4.67609185 9.7349101,3.96932515 9.38660511,3.34965679 C9.03921913,2.72908116 8.54662949,2.23915302 7.90975519,1.87896512 C7.27379991,1.51786994 6.59005608,1.33822962 5.85576667,1.33822962 Z M9.84059631,0.305751446 L11.1915418,0.305751446 L11.1915418,8.66991341 C11.1915418,10.1415124 11.0610423,11.2193542 10.8046383,11.9016245 C10.4508193,12.8660571 9.83692026,13.6091148 8.96202224,14.1307975 C8.08712423,14.6506657 7.0366952,14.9119607 5.80705911,14.9119607 C4.90826682,14.9119607 4.09953756,14.7840351 3.38179034,14.5299982 C2.66404312,14.2750542 2.08139045,13.9330117 1.6319943,13.5029637 C1.18167915,13.0756375 0.766286389,12.4478037 0.387654053,11.622184 L1.85347584,11.622184 C2.2514074,12.3162489 2.7669723,12.8306734 3.39833253,13.1645504 C4.02877375,13.4984273 4.81085171,13.6662731 5.7445664,13.6662731 C6.66541494,13.6662731 7.44289785,13.4957055 8.07701511,13.1518485 C8.71113237,12.8098061 9.16420456,12.3788508 9.43531266,11.8589826 C9.70366374,11.3400217 9.84059631,10.5026075 9.84059631,9.3449255 L9.84059631,8.80419001 C9.33238349,9.4474475 8.70837534,9.93919018 7.97592395,10.285769 C7.24255355,10.6287187 6.46323263,10.8020081 5.64071821,10.8020081 C4.67300013,10.8020081 3.76685575,10.5615804 2.91677102,10.0834468 C2.06668628,9.60440596 1.40959376,8.95842664 0.946412451,8.15004522 C0.483231147,7.3380347 0.251640495,6.4479986 0.251640495,5.47721507 C0.251640495,4.504617 0.492421252,3.6000645 0.973982767,2.76083576 C1.45830131,1.92160701 2.12550295,1.25748221 2.98018274,0.770275898 C3.83302451,0.280347765 4.72997878,0.0353836985 5.67839764,0.0353836985 C6.46323263,0.0353836985 7.19660303,0.198693076 7.87483279,0.522590009 C8.55398157,0.847394215 9.20739805,1.38359334 9.84059631,2.12755828 L9.84059631,0.305751446 Z" id="Shape"></path>
                                </g>
                                <g id="Group" transform="translate(13.328065, 3.586899)">
                                    <path d="M0,0.662310254 L1.38035381,0.662310254 L1.38035381,2.19651113 C1.79115151,1.59135916 2.22584349,1.13862927 2.68259172,0.839228746 C3.13842094,0.541642769 3.61446839,0.391942506 4.10981506,0.391942506 C4.48385235,0.391942506 4.88178391,0.510795442 5.30728578,0.748501314 L4.6014857,1.88713059 C4.31843045,1.76555583 4.08132574,1.7029539 3.88649551,1.7029539 C3.43801837,1.7029539 3.0042454,1.88985241 2.5851766,2.25911306 C2.16610781,2.62837371 1.84904917,3.2008638 1.62940566,3.98021244 C1.46306475,4.57810622 1.38035381,5.78659562 1.38035381,7.60749518 L1.38035381,11.1576596 L0,11.1576596 L0,0.662310254 Z" id="Shape"></path>
                                </g>
                                <g id="Group" transform="translate(18.216530, 3.869838)">
                                    <path d="M9.53180877,4.56486495 C9.35260172,3.84448914 9.09068372,3.2701845 8.74421675,2.84013647 C8.40050681,2.40827389 7.94375858,2.05988056 7.3776481,1.796771 C6.81245663,1.53275418 6.2160188,1.40210667 5.59201065,1.40210667 C4.56179985,1.40210667 3.67679272,1.73235453 2.93515123,2.39466478 C2.39293502,2.87733472 1.98581335,3.60043235 1.70827218,4.56486495 L9.53180877,4.56486495 Z M9.53180877,7.39283901 L10.6704628,7.98982551 C10.2964255,8.72290316 9.86540959,9.3153533 9.37649599,9.76536136 C8.88758239,10.2153694 8.33709509,10.5565046 7.72595309,10.7933032 C7.11389208,11.0273799 6.42095814,11.1453256 5.6489893,11.1453256 C3.93779171,11.1453256 2.59787436,10.5837228 1.63383232,9.46142446 C0.667033252,8.33912613 0.184552727,7.07075663 0.184552727,5.65450141 C0.184552727,4.32443726 0.591674389,3.13772245 1.41143178,2.09617153 C2.44715664,0.770643746 3.83486253,0.109240767 5.57179242,0.109240767 C7.36110591,0.109240767 8.79016728,0.787881958 9.8571385,2.14516434 C10.6199172,3.10324602 11.0059017,4.29994085 11.0160108,5.732527 L1.57409664,5.732527 C1.59982893,6.95281097 1.9894894,7.95171999 2.74307803,8.73197591 C3.49574765,9.51132455 4.42486729,9.89963796 5.53135596,9.89963796 C6.06622008,9.89963796 6.58729905,9.80709598 7.09367385,9.62110474 C7.59821063,9.43692805 8.02830755,9.18924217 8.38304561,8.88258344 C8.73686467,8.57411018 9.11917304,8.07783112 9.53180877,7.39283901 Z" id="Shape"></path>
                                </g>
                                <g id="Group" transform="translate(30.265006, 3.869838)">
                                    <path d="M9.53180877,4.56486495 C9.35260172,3.84448914 9.08976471,3.2701845 8.74513576,2.84013647 C8.40142582,2.40827389 7.9455966,2.05988056 7.37856711,1.796771 C6.81153762,1.53275418 6.2160188,1.40210667 5.59292966,1.40210667 C4.56271886,1.40210667 3.67587371,1.73235453 2.93607024,2.39466478 C2.39385403,2.87733472 1.98673236,3.60043235 1.70919119,4.56486495 L9.53180877,4.56486495 Z M9.53180877,7.39283901 L10.6704628,7.98982551 C10.2973445,8.72290316 9.8663286,9.3153533 9.37649599,9.76536136 C8.88666338,10.2153694 8.33709509,10.5565046 7.72595309,10.7933032 C7.11481109,11.0273799 6.42187716,11.1453256 5.64990831,11.1453256 C3.9368727,11.1453256 2.59879337,10.5837228 1.63291331,9.46142446 C0.667033252,8.33912613 0.185471737,7.07075663 0.185471737,5.65450141 C0.185471737,4.32443726 0.594431421,3.13772245 1.41051277,2.09617153 C2.44807565,0.770643746 3.83394352,0.109240767 5.57179242,0.109240767 C7.36294393,0.109240767 8.79108629,0.787881958 9.85897652,2.14516434 C10.6208362,3.10324602 11.0059017,4.29994085 11.0187678,5.732527 L1.57409664,5.732527 C1.59890992,6.95281097 1.99040841,7.95171999 2.74215902,8.73197591 C3.49666666,9.51132455 4.4257863,9.89963796 5.53319398,9.89963796 C6.0680581,9.89963796 6.58821806,9.80709598 7.09459286,9.62110474 C7.59912964,9.43692805 8.02830755,9.18924217 8.38304561,8.88258344 C8.73778368,8.57411018 9.12009205,8.07783112 9.53180877,7.39283901 Z" id="Shape"></path>
                                </g>
                                <g id="Group" transform="translate(43.010744, 3.586899)">
                                    <path d="M0,0.662310254 L1.35002646,0.662310254 L1.35002646,2.54127537 C1.89040465,1.82362138 2.4886805,1.28560771 3.14485401,0.92814163 C3.80010852,0.569768273 4.5141797,0.391942506 5.28614854,0.391942506 C6.0691455,0.391942506 6.76667449,0.592450131 7.37322144,0.988929009 C7.98252541,1.38903698 8.43192156,1.92795793 8.71957186,2.60115548 C9.00906017,3.2752603 9.15426383,4.32769851 9.15426383,5.75665556 L9.15426383,11.1576596 L7.80423737,11.1576596 L7.80423737,6.15131989 C7.80423737,4.9428305 7.7546108,4.13444908 7.65351965,3.72889746 C7.49636885,3.03573988 7.19585241,2.51314987 6.75380834,2.16203471 C6.30900725,1.81182682 5.72911161,1.63672287 5.01504043,1.63672287 C4.19895909,1.63672287 3.46742671,1.90618335 2.82136231,2.44691884 C2.17529791,2.98765434 1.74887703,3.65631551 1.54393768,4.45290236 C1.4143572,4.97367782 1.35002646,5.92631586 1.35002646,7.3099092 L1.35002646,11.1576596 L0,11.1576596 L0,0.662310254 Z" id="Shape"></path>
                                </g>
                                <g id="Group" transform="translate(53.904640, 0.047846)">
                                    <path d="M2.75703157,3.36054408 L2.75519355,4.20158738 L4.94519563,4.20158738 L4.94519563,5.36834215 L2.75335553,5.36834215 L2.74600345,14.6969367 L1.39597699,14.6969367 L1.39597699,5.36834215 L0.0174612,5.36834215 L0.0174612,4.20158738 L1.39597699,4.20158738 L1.39597699,3.13916915 C1.39597699,2.38613146 1.46490278,1.84993234 1.60459238,1.52694268 C1.74244395,1.20576757 1.97587263,0.94719439 2.30671642,0.751223137 C2.63847922,0.555251884 3.0391678,0.458173532 3.50878218,0.458173532 L4.94519563,0.458173532 L4.94519563,1.75376126 L3.53175745,1.75376126 C3.53175745,1.75376126 2.74600345,1.87987239 2.74600345,2.56577178 C2.74600345,3.25076389 2.75703157,3.36054408 2.75703157,3.36054408" id="Shape"></path>
                                </g>
                                <g id="Group" transform="translate(59.381051, 3.869838)">
                                    <path d="M9.53180877,4.56486495 C9.3507637,3.84448914 9.08976471,3.2701845 8.74421675,2.84013647 C8.39866879,2.40827389 7.94283957,2.05988056 7.37672909,1.796771 C6.8096996,1.53275418 6.21509979,1.40210667 5.58925362,1.40210667 C4.56088084,1.40210667 3.67587371,1.73235453 2.93515123,2.39466478 C2.39385403,2.87733472 1.98397533,3.60043235 1.70827218,4.56486495 L9.53180877,4.56486495 Z M9.53180877,7.39283901 L10.6695438,7.98982551 C10.2945875,8.72290316 9.86357157,9.3153533 9.37649599,9.76536136 C8.88666338,10.2153694 8.33525707,10.5565046 7.72411507,10.7933032 C7.11297307,11.0273799 6.42003913,11.1453256 5.64807029,11.1453256 C3.9368727,11.1453256 2.59695535,10.5837228 1.6319943,9.46142446 C0.667033252,8.33912613 0.183633716,7.07075663 0.183633716,5.65450141 C0.183633716,4.32443726 0.591674389,3.13772245 1.40959376,2.09617153 C2.44623763,0.770643746 3.83394352,0.109240767 5.5699544,0.109240767 C7.36110591,0.109240767 8.78924827,0.787881958 9.8571385,2.14516434 C10.6180792,3.10324602 11.0040636,4.29994085 11.0169298,5.732527 L1.57225862,5.732527 C1.59890992,6.95281097 1.98857039,7.95171999 2.74032099,8.73197591 C3.49482864,9.51132455 4.4257863,9.89963796 5.53043695,9.89963796 C6.06622008,9.89963796 6.58821806,9.80709598 7.09183583,9.62110474 C7.59821063,9.43692805 8.02738854,9.18924217 8.3821266,8.88258344 C8.73594566,8.57411018 9.12009205,8.07783112 9.53180877,7.39283901 Z" id="Shape"></path>
                                </g>
                                <g id="Group" transform="translate(72.124383, 3.586899)">
                                    <path d="M0,0.662310254 L1.35094547,0.662310254 L1.35094547,2.54127537 C1.89224267,1.82362138 2.4886805,1.28560771 3.14577302,0.92814163 C3.80286555,0.569768273 4.51509871,0.391942506 5.28706755,0.391942506 C6.07098352,0.391942506 6.7675935,0.592450131 7.37414045,0.988929009 C7.98436344,1.38903698 8.43192156,1.92795793 8.72049087,2.60115548 C9.01089819,3.2752603 9.15610185,4.32769851 9.15610185,5.75665556 L9.15610185,11.1576596 L7.80515638,11.1576596 L7.80515638,6.15131989 C7.80515638,4.9428305 7.7546108,4.13444908 7.65443866,3.72889746 C7.49820687,3.03573988 7.19677142,2.51314987 6.75472735,2.16203471 C6.30992626,1.81182682 5.73094963,1.63672287 5.01779746,1.63672287 C4.19895909,1.63672287 3.46834572,1.90618335 2.82136231,2.44691884 C2.17529791,2.98765434 1.75071505,3.65631551 1.54485669,4.45290236 C1.41527621,4.97367782 1.35094547,5.92631586 1.35094547,7.3099092 L1.35094547,11.1576596 L0,11.1576596 L0,0.662310254 Z" id="Shape"></path>
                                </g>
                                <g id="Group" transform="translate(82.541099, 3.492906)">
                                    <path d="M11.0281263,2.9359397 L9.95747903,3.60187905 C9.03203543,2.37342962 7.77023398,1.75920491 6.17115567,1.75920491 C4.89097401,1.75920491 3.83043587,2.17020017 2.9867842,2.99219071 C2.14313254,3.81508852 1.71946869,4.81399754 1.71946869,5.98982506 C1.71946869,6.75375004 1.91337991,7.47412585 2.30304037,8.14823067 C2.69086282,8.82142822 3.22388892,9.34583277 3.90211869,9.71962979 C4.57851043,10.090705 5.34037016,10.2766962 6.18126479,10.2766962 C7.72152643,10.2766962 8.98057084,9.66428606 9.95747903,8.43492936 L11.0281263,9.13897423 C10.5263465,9.89382646 9.85363084,10.4799257 9.00722215,10.8963646 C8.16173247,11.314618 7.19952845,11.5223839 6.11877207,11.5223839 C4.45903906,11.5223839 3.0823613,10.9952575 1.9905768,9.94009745 C0.896035261,8.88584469 0.35014301,7.6029588 0.35014301,6.09143979 C0.35014301,5.07438527 0.605627936,4.13081998 1.1175168,3.25892936 C1.62756764,2.38794601 2.33061069,1.70749027 3.22480793,1.22028396 C4.11900517,0.730355828 5.1170506,0.486299036 6.22353927,0.486299036 C6.91923024,0.486299036 7.58918891,0.592450131 8.23525331,0.802937774 C8.88223672,1.01705451 9.42996699,1.29286591 9.88120116,1.63309378 C10.3296783,1.9751362 10.7138247,2.40972059 11.0281263,2.9359397" id="Shape"></path>
                                </g>
                                <g id="Group" transform="translate(94.677730, 3.869838)">
                                    <path d="M9.53180877,4.56486495 C9.35260172,3.84448914 9.09068372,3.2701845 8.74605477,2.84013647 C8.40142582,2.40827389 7.94467759,2.05988056 7.3776481,1.796771 C6.81245663,1.53275418 6.21693781,1.40210667 5.59201065,1.40210667 C4.56088084,1.40210667 3.67587371,1.73235453 2.93607024,2.39466478 C2.39385403,2.87733472 1.98581335,3.60043235 1.70827218,4.56486495 L9.53180877,4.56486495 Z M9.53180877,7.39283901 L10.6704628,7.98982551 C10.2973445,8.72290316 9.86540959,9.3153533 9.37649599,9.76536136 C8.88666338,10.2153694 8.33709509,10.5565046 7.72595309,10.7933032 C7.11389208,11.0273799 6.42095814,11.1453256 5.6489893,11.1453256 C3.93779171,11.1453256 2.59971238,10.5837228 1.63291331,9.46142446 C0.667952263,8.33912613 0.184552727,7.07075663 0.184552727,5.65450141 C0.184552727,4.32443726 0.59351241,3.13772245 1.41143178,2.09617153 C2.44715664,0.770643746 3.83394352,0.109240767 5.57271143,0.109240767 C7.36294393,0.109240767 8.79016728,0.787881958 9.85897652,2.14516434 C10.6199172,3.10324602 11.0059017,4.29994085 11.0178488,5.732527 L1.57317763,5.732527 C1.59982893,6.95281097 1.9894894,7.95171999 2.74307803,8.73197591 C3.49574765,9.51132455 4.4257863,9.89963796 5.53411299,9.89963796 C6.06897711,9.89963796 6.58821806,9.80709598 7.09275484,9.62110474 C7.59821063,9.43692805 8.02922656,9.18924217 8.38304561,8.88258344 C8.73778368,8.57411018 9.12101107,8.07783112 9.53180877,7.39283901 Z" id="Shape"></path>
                                </g>
                            </g>
                        </g>
                    </g>
                </g>
            </g>
        </g>
    </g>
</svg>