<?xml version="1.0" encoding="UTF-8"?>
<svg width="39px" height="40px" viewBox="0 0 39 40" version="1.1" xmlns="http://www.w3.org/2000/svg" xmlns:xlink="http://www.w3.org/1999/xlink">
    <!-- Generator: Sketch 51.3 (57544) - http://www.bohemiancoding.com/sketch -->
    <title>GF_Logo_Horizontal_Green (1)</title>
    <desc>Created with Sketch.</desc>
    <defs></defs>
    <g id="Document-Management" stroke="none" stroke-width="1" fill="none" fill-rule="evenodd">
        <g id="Artboard" transform="translate(-22.000000, -103.000000)" fill="#00C771" fill-rule="nonzero">
            <g id="GF_Logo_Horizontal_Green-(1)" transform="translate(22.000000, 103.000000)">
                <g id="Green">
                    <g id="mark" transform="translate(0.059831, 0.031281)">
                        <g id="Group" transform="translate(8.247735, 7.839630)">
                            <polygon id="Shape" points="4.21369663 18.2446242 0.1875095 13.3288531 0.1875095 0 23.3091164 0 19.8254427 4.05683829 4.21369663 4.05683829"></polygon>
                        </g>
                        <g id="Group" transform="translate(0.042874, 0.018846)">
                            <path d="M19.1876611,39.4525135 C8.61865652,39.4525135 0.0185016884,30.7846182 0.0185016884,20.1313035 L0.0185016884,0 L24.8161064,0 L21.3324327,4.05896173 L4.04468882,4.05896173 L4.04468882,20.1313035 C4.04468882,28.5475708 10.8371678,35.3967369 19.1876611,35.3967369 C27.5413147,35.3967369 34.3348471,28.5475708 34.3348471,20.1313035 L34.3348471,19.7501455 L20.3727633,19.7501455 L16.4003008,15.6933072 L38.3589274,15.6933072 L38.3589274,20.1313035 C38.3589274,30.7846182 29.7587725,39.4525135 19.1876611,39.4525135" id="Shape"></path>
                        </g>
                    </g>
                </g>
            </g>
        </g>
    </g>
</svg>