<?xml version="1.0" encoding="UTF-8"?>
<svg width="96px" height="107px" viewBox="0 0 96 107" version="1.1" xmlns="http://www.w3.org/2000/svg" xmlns:xlink="http://www.w3.org/1999/xlink">
    <!-- Generator: Sketch 51.3 (57544) - http://www.bohemiancoding.com/sketch -->
    <title>Aftereffects</title>
    <desc>Created with Sketch.</desc>
    <defs></defs>
    <g id="Page-1" stroke="none" stroke-width="1" fill="none" fill-rule="evenodd">
        <g id="Artboard" transform="translate(-1220.000000, -128.000000)">
            <g id="Aftereffects" transform="translate(1220.000000, 128.000000)">
                <polygon id="Shape-Copy-113" fill="#4D008D" fill-rule="nonzero" points="95.7694398 106.362769 14 106.362769 14 0 70.2164899 0 95.7694398 25.3244688"></polygon>
                <polygon id="Shape-Copy-112" fill="#DBA7FF" fill-rule="nonzero" points="92.2753025 28.0582454 68 28.0582454 68 4"></polygon>
                <rect id="Rectangle-5-Copy-90" fill="#2C0050" x="0" y="16" width="55" height="28" rx="4"></rect>
                <path d="M24.3671875,34.3632812 L19.7441406,34.3632812 L18.8652344,37 L16.0615234,37 L20.8251953,24.203125 L23.2685547,24.203125 L28.0585938,37 L25.2548828,37 L24.3671875,34.3632812 Z M20.4560547,32.2275391 L23.6552734,32.2275391 L22.046875,27.4375 L20.4560547,32.2275391 Z M36.521125,31.4541016 L31.458625,31.4541016 L31.458625,34.8818359 L37.4000312,34.8818359 L37.4000312,37 L28.8219062,37 L28.8219062,24.203125 L37.3824531,24.203125 L37.3824531,26.3388672 L31.458625,26.3388672 L31.458625,29.3886719 L36.521125,29.3886719 L36.521125,31.4541016 Z" id="AE" fill="#DBA7FF"></path>
                <path d="M39.0078125,53 L58.9765625,53 L58.9765625,57.0078125 L39.0078125,57.0078125 L39.0078125,76.9765625 L35,76.9765625 L35,57.0078125 C35,55.8828069 35.3867149,54.9335976 36.1601562,54.1601562 C36.9335976,53.3867149 37.8828069,53 39.0078125,53 Z M46.9882812,60.9804688 L66.9921875,60.9804688 L66.9921875,64.9882812 L46.9882812,64.9882812 L46.9882812,84.9921875 L42.9804688,84.9921875 L42.9804688,64.9882812 C42.9804688,63.8867132 43.3730429,62.9433633 44.1582031,62.1582031 C44.9433633,61.3730429 45.8867132,60.9804688 46.9882812,60.9804688 Z M55.0039062,68.9960938 L71,68.9960938 C72.101568,68.9960938 73.0449179,69.3828086 73.8300781,70.15625 C74.6152383,70.9296914 75.0078125,71.8789006 75.0078125,73.0039062 L75.0078125,89 C75.0078125,90.101568 74.6152383,91.0449179 73.8300781,91.8300781 C73.0449179,92.6152383 72.101568,93.0078125 71,93.0078125 L55.0039062,93.0078125 C53.8789006,93.0078125 52.9296914,92.6152383 52.15625,91.8300781 C51.3828086,91.0449179 50.9960938,90.101568 50.9960938,89 L50.9960938,73.0039062 C50.9960938,71.8789006 51.3828086,70.9296914 52.15625,70.15625 C52.9296914,69.3828086 53.8789006,68.9960938 55.0039062,68.9960938 Z" id="" fill="#DBA7FF"></path>
            </g>
        </g>
    </g>
</svg>