<?xml version="1.0" encoding="UTF-8"?>
<svg width="96px" height="107px" viewBox="0 0 96 107" version="1.1" xmlns="http://www.w3.org/2000/svg" xmlns:xlink="http://www.w3.org/1999/xlink">
    <!-- Generator: Sketch 51.3 (57544) - http://www.bohemiancoding.com/sketch -->
    <title>DGN</title>
    <desc>Created with Sketch.</desc>
    <defs></defs>
    <g id="Page-1" stroke="none" stroke-width="1" fill="none" fill-rule="evenodd">
        <g id="Artboard" transform="translate(-1221.000000, -708.000000)">
            <g id="DGN" transform="translate(1221.000000, 708.000000)">
                <polygon id="Shape-Copy-163" fill="#3C97A4" fill-rule="nonzero" points="95.7694398 106.362769 14 106.362769 14 0 70.2164899 0 95.7694398 25.3244688"></polygon>
                <polygon id="Shape-Copy-162" fill="#19E2FF" fill-rule="nonzero" points="92.2753025 28.0582454 68 28.0582454 68 4"></polygon>
                <rect id="Rectangle-5-Copy-130" fill="#2B747F" x="0" y="16" width="55" height="28" rx="4"></rect>
                <text font-family="Roboto-Bold, Roboto" font-size="18" font-weight="bold" letter-spacing="-0.432000011" fill="#19E2FF">
                    <tspan x="9" y="37">DGN</tspan>
                </text>
                <path d="M57,57.3945312 C58.1953185,57.7929707 59.1562464,58.501948 59.8828125,59.5214844 C60.6093786,60.5410207 60.9726562,61.6953061 60.9726562,62.984375 C60.9726562,64.6953211 60.3984432,66.1249943 59.25,67.2734375 C58.1015568,68.4218807 56.6836022,68.9960938 54.9960938,68.9960938 L54.1875,68.9960938 L43.3945312,89 L39,93.0078125 L39,88.7890625 L50.6015625,66.9921875 C50.0859349,66.4999975 49.6875014,65.9082066 49.40625,65.2167969 C49.1249986,64.5253872 48.984375,63.781254 48.984375,62.984375 C48.984375,61.6953061 49.4355424,60.5410207 50.3378906,59.5214844 C51.2402389,58.501948 52.7929577,57.7929707 54.9960938,57.3945312 L54.9960938,53 C55.5820342,53 56.0624981,53.1816388 56.4375,53.5449219 C56.8125019,53.9082049 57,54.3945282 57,55.0039062 L57,57.3945312 Z M56.7890625,64.0039062 C56.7890625,63.7929677 56.8242184,63.6230475 56.8945312,63.4941406 C56.9648441,63.3652337 57,63.1953136 57,62.984375 C57,62.3984346 56.8125019,61.9179706 56.4375,61.5429688 C56.0624981,61.1679669 55.5820342,60.9804688 54.9960938,60.9804688 C54.5976543,60.9804688 54.2460953,61.0742178 53.9414062,61.2617188 C53.6367172,61.4492197 53.3789073,61.695311 53.1679688,62 C53.1679688,62.1875009 53.1386722,62.3515618 53.0800781,62.4921875 C53.0214841,62.6328132 52.9921875,62.7968741 52.9921875,62.984375 C52.9921875,63.593753 53.1738263,64.0800763 53.5371094,64.4433594 C53.9003924,64.8066424 54.3867157,64.9882812 54.9960938,64.9882812 C55.3945332,64.9882812 55.7402329,64.8945322 56.0332031,64.7070312 C56.3261733,64.5195303 56.5781239,64.2851577 56.7890625,64.0039062 Z M70.9921875,88.7890625 L70.9921875,93.0078125 L66.5976562,89 L57.7734375,72.5820312 C58.476566,72.3945303 59.1269501,72.148439 59.7246094,71.84375 C60.3222686,71.539061 60.8789037,71.187502 61.3945312,70.7890625 L70.9921875,88.7890625 Z" id="ï˜" fill="#19E2FF"></path>
            </g>
        </g>
    </g>
</svg>