<?xml version="1.0" encoding="UTF-8"?>
<svg width="96px" height="107px" viewBox="0 0 96 107" version="1.1" xmlns="http://www.w3.org/2000/svg" xmlns:xlink="http://www.w3.org/1999/xlink">
    <!-- Generator: Sketch 51.3 (57544) - http://www.bohemiancoding.com/sketch -->
    <title>Group 15</title>
    <desc>Created with Sketch.</desc>
    <defs></defs>
    <g id="Page-1" stroke="none" stroke-width="1" fill="none" fill-rule="evenodd">
        <g id="Artboard" transform="translate(-1086.000000, -564.000000)">
            <g id="Group-15" transform="translate(1086.000000, 564.000000)">
                <g id="Group-87-Copy-5">
                    <polygon id="Shape-Copy-246" fill="#7BB6F6" fill-rule="nonzero" points="92.2753025 28.0582454 68 28.0582454 68 4"></polygon>
                    <rect id="Rectangle-5-Copy-205" fill="#2C7ACD" x="0" y="16" width="55" height="28" rx="4"></rect>
                    <text id="DOC-Copy-145" font-family="Roboto-Bold, Roboto" font-size="18" font-weight="bold" letter-spacing="-0.432000011" fill="#7BB6F6">
                        <tspan x="9" y="37">DO</tspan>
                        <tspan x="32.2619765" y="37" letter-spacing="-0.518400013">C</tspan>
                    </text>
                    <polygon id="Path-Copy-157" fill="#76B1F1" points="40 67.9174837 41.9449891 67.9174837 41.9449891 85.4227912 48.2664065 85.4227912 53.1288793 76.7714812 53.1288793 85.4227912 58.9638467 85.4227912 67.7165005 67.9174837 69.6614896 67.9174837 69.6614896 65 60.9090385 65 60.9090385 67.9174837 62.3677803 67.9174837 58.9638467 74.6238046 58.9638467 65 52.1563847 65 46.3212147 75.9814054 46.3212147 67.9174837 48.2664065 67.9174837 48.2664065 65 40 65"></polygon>
                    <polygon id="Shape-Copy-245" fill="#7BB6F6" fill-rule="nonzero" points="92.2753025 28.0582454 68 28.0582454 68 4"></polygon>
                    <rect id="Rectangle-5-Copy-204" fill="#2C7ACD" x="0" y="16" width="55" height="28" rx="4"></rect>
                    <text id="DOC-Copy-144" font-family="Roboto-Bold, Roboto" font-size="18" font-weight="bold" letter-spacing="-0.432000011" fill="#7BB6F6">
                        <tspan x="9" y="37">DO</tspan>
                        <tspan x="32.2619765" y="37" letter-spacing="-0.518400013">C</tspan>
                    </text>
                    <polygon id="Path-Copy-156" fill="#FFFFFF" points="35 63.9009303 37.6006202 63.9009303 37.6006202 87.307054 46.0529068 87.307054 52.5544573 75.7394976 52.5544573 87.307054 60.3563178 87.307054 72.0593797 63.9009303 74.6599998 63.9009303 74.6599998 60 62.957209 60 62.957209 63.9009303 64.9076742 63.9009303 60.3563178 72.8678665 60.3563178 60 51.2541472 60 43.4520156 74.6830972 43.4520156 63.9009303 46.0529068 63.9009303 46.0529068 60 35 60"></polygon>
                    <polygon id="Shape-Copy-244" fill="#7BB6F6" fill-rule="nonzero" points="92.2753025 28.0582454 68 28.0582454 68 4"></polygon>
                    <rect id="Rectangle-5-Copy-203" fill="#2C7ACD" x="0" y="16" width="55" height="28" rx="4"></rect>
                    <text id="DOC-Copy-143" font-family="Roboto-Bold, Roboto" font-size="18" font-weight="bold" letter-spacing="-0.432000011" fill="#7BB6F6">
                        <tspan x="9" y="37">DO</tspan>
                        <tspan x="32.2619765" y="37" letter-spacing="-0.518400013">C</tspan>
                    </text>
                    <polygon id="Path-Copy-155" fill="#76B1F1" points="40 67.9174837 41.9449891 67.9174837 41.9449891 85.4227912 48.2664065 85.4227912 53.1288793 76.7714812 53.1288793 85.4227912 58.9638467 85.4227912 67.7165005 67.9174837 69.6614896 67.9174837 69.6614896 65 60.9090385 65 60.9090385 67.9174837 62.3677803 67.9174837 58.9638467 74.6238046 58.9638467 65 52.1563847 65 46.3212147 75.9814054 46.3212147 67.9174837 48.2664065 67.9174837 48.2664065 65 40 65"></polygon>
                    <polygon id="Shape-Copy-243" fill="#EB5F5F" fill-rule="nonzero" points="95.7694398 106.362769 14 106.362769 14 0 70.2164899 0 95.7694398 25.3244688"></polygon>
                    <polygon id="Shape-Copy-242" fill="#FFABAB" fill-rule="nonzero" points="92.2753025 28.0582454 68 28.0582454 68 4"></polygon>
                    <rect id="Rectangle-5-Copy-202" fill="#C24949" x="0" y="16" width="55" height="28" rx="4"></rect>
                    <path d="M21.0068359,30.230957 C21.0068359,31.4207416 20.7965516,32.4638627 20.3759766,33.3603516 C19.9554015,34.2568404 19.3536009,34.9485653 18.5705566,35.4355469 C17.7875124,35.9225285 16.8896535,36.1660156 15.8769531,36.1660156 C14.8753205,36.1660156 13.981612,35.9252954 13.1958008,35.4438477 C12.4099896,34.9623999 11.8012717,34.2748254 11.3696289,33.3811035 C10.9379861,32.4873816 10.7194011,31.4594785 10.7138672,30.2973633 L10.7138672,29.699707 C10.7138672,28.5099224 10.9283019,27.462651 11.3571777,26.5578613 C11.7860536,25.6530716 12.3920045,24.9585799 13.1750488,24.4743652 C13.9580931,23.9901506 14.8531851,23.7480469 15.8603516,23.7480469 C16.8675181,23.7480469 17.76261,23.9901506 18.5456543,24.4743652 C19.3286986,24.9585799 19.9346495,25.6530716 20.3635254,26.5578613 C20.7924012,27.462651 21.0068359,28.5071555 21.0068359,29.6914062 L21.0068359,30.230957 Z M18.4833984,29.6831055 C18.4833984,28.4158465 18.2565127,27.4529655 17.8027344,26.7944336 C17.3489561,26.1359017 16.7015016,25.8066406 15.8603516,25.8066406 C15.0247354,25.8066406 14.3800478,26.1317513 13.9262695,26.7819824 C13.4724912,27.4322135 13.2428386,28.3854104 13.2373047,29.6416016 L13.2373047,30.230957 C13.2373047,31.4650127 13.4641904,32.4223599 13.9179688,33.1030273 C14.3717471,33.7836948 15.0247353,34.1240234 15.8769531,34.1240234 C16.7125693,34.1240234 17.3544899,33.7961459 17.8027344,33.1403809 C18.2509788,32.4846159 18.4778646,31.5286521 18.4833984,30.2724609 L18.4833984,29.6831055 Z M32.2125312,36 L29.7222969,36 L24.8746406,28.0478516 L24.8746406,36 L22.3844062,36 L22.3844062,23.9140625 L24.8746406,23.9140625 L29.7305976,31.8828125 L29.7305976,23.9140625 L32.2125312,23.9140625 L32.2125312,36 Z M41.2268203,30.762207 L36.4455703,30.762207 L36.4455703,33.9995117 L42.0568984,33.9995117 L42.0568984,36 L33.9553359,36 L33.9553359,23.9140625 L42.0402969,23.9140625 L42.0402969,25.9311523 L36.4455703,25.9311523 L36.4455703,28.8115234 L41.2268203,28.8115234 L41.2268203,30.762207 Z" id="ONE" fill="#FFABAB"></path>
                </g>
                <path d="M69,84.9765625 L69,76.9609375 L33,76.9609375 L33,84.9765625 L69,84.9765625 Z M81.0234375,68.9453125 L81.0234375,61 L33,61 L33,68.9453125 L81.0234375,68.9453125 Z" id="" fill="#FFABAB"></path>
            </g>
        </g>
    </g>
</svg>