<?xml version="1.0" encoding="UTF-8"?>
<svg width="96px" height="107px" viewBox="0 0 96 107" version="1.1" xmlns="http://www.w3.org/2000/svg" xmlns:xlink="http://www.w3.org/1999/xlink">
    <!-- Generator: Sketch 51.3 (57544) - http://www.bohemiancoding.com/sketch -->
    <title>Microsoft Publisher</title>
    <desc>Created with Sketch.</desc>
    <defs></defs>
    <g id="Page-1" stroke="none" stroke-width="1" fill="none" fill-rule="evenodd">
        <g id="Artboard" transform="translate(-1957.000000, -274.000000)">
            <g id="Microsoft-Publisher" transform="translate(1957.000000, 274.000000)">
                <polygon id="Shape-Copy-326" fill="#00BF77" fill-rule="nonzero" points="95.7694398 106.362769 14 106.362769 14 0 70.2164899 0 95.7694398 25.3244688"></polygon>
                <polygon id="Shape-Copy-325" fill="#7DFFCE" fill-rule="nonzero" points="92.2753025 28.0582454 68 28.0582454 68 4"></polygon>
                <rect id="Rectangle-5-Copy-270" fill="#0D6254" x="0" y="16" width="55" height="28" rx="4"></rect>
                <path d="M14.5693359,31.7416992 L14.5693359,36 L12.0791016,36 L12.0791016,23.9140625 L16.7939453,23.9140625 C17.7015019,23.9140625 18.4997524,24.0800765 19.1887207,24.4121094 C19.877689,24.7441423 20.4075502,25.2158986 20.7783203,25.8273926 C21.1490904,26.4388865 21.3344727,27.1347617 21.3344727,27.9150391 C21.3344727,29.0992898 20.9291219,30.0331183 20.1184082,30.7165527 C19.3076945,31.3999871 18.1857168,31.7416992 16.7524414,31.7416992 L14.5693359,31.7416992 Z M14.5693359,29.7246094 L16.7939453,29.7246094 C17.4524773,29.7246094 17.9546695,29.569663 18.3005371,29.2597656 C18.6464047,28.9498682 18.8193359,28.5071643 18.8193359,27.9316406 C18.8193359,27.3395153 18.6450213,26.8608417 18.2963867,26.4956055 C17.9477522,26.1303693 17.4663117,25.9422201 16.8520508,25.9311523 L14.5693359,25.9311523 L14.5693359,29.7246094 Z M31.7598945,23.9140625 L31.7598945,31.8745117 C31.7598945,33.1971095 31.3462431,34.2429975 30.5189277,35.012207 C29.6916124,35.7814166 28.561334,36.1660156 27.1280586,36.1660156 C25.7169187,36.1660156 24.5963245,35.7924842 23.7662422,35.0454102 C22.9361599,34.2983361 22.5128243,33.2718164 22.4962226,31.9658203 L22.4962226,23.9140625 L24.986457,23.9140625 L24.986457,31.8911133 C24.986457,32.6824584 25.1759896,33.2593569 25.5550605,33.6218262 C25.9341314,33.9842954 26.4584589,34.1655273 27.1280586,34.1655273 C28.5281307,34.1655273 29.2392238,33.4295321 29.2613594,31.9575195 L29.2613594,23.9140625 L31.7598945,23.9140625 Z M33.3698867,36 L33.3698867,23.9140625 L37.6032851,23.9140625 C39.0697638,23.9140625 40.1820574,24.1949028 40.9401992,24.7565918 C41.698341,25.3182808 42.0774062,26.1414334 42.0774062,27.2260742 C42.0774062,27.8181996 41.9252268,28.3397601 41.6208633,28.7907715 C41.3164998,29.2417829 40.8931641,29.5724273 40.3508437,29.7827148 C40.9706385,29.9376635 41.4589962,30.2503232 41.8159316,30.7207031 C42.172867,31.1910831 42.351332,31.7665982 42.351332,32.4472656 C42.351332,33.6093808 41.9805675,34.4892548 41.2390273,35.0869141 C40.4974872,35.6845733 39.4405316,35.9889322 38.0681289,36 L33.3698867,36 Z M35.8601211,30.7373047 L35.8601211,33.9995117 L37.9934219,33.9995117 C38.5800133,33.9995117 39.0379352,33.8597833 39.3672011,33.5803223 C39.6964671,33.3008612 39.8610976,32.9148788 39.8610976,32.4223633 C39.8610976,31.3155869 39.2883495,30.7539063 38.1428359,30.7373047 L35.8601211,30.7373047 Z M35.8601211,28.9775391 L37.7028945,28.9775391 C38.9590857,28.9554035 39.5871719,28.4545947 39.5871719,27.4750977 C39.5871719,26.9272434 39.4280751,26.5329602 39.1098769,26.2922363 C38.7916787,26.0515125 38.2894865,25.9311523 37.6032851,25.9311523 L35.8601211,25.9311523 L35.8601211,28.9775391 Z" id="PUB" fill="#7DFFCE"></path>
                <text id="P" font-family="Roboto-Bold, Roboto" font-size="36" font-weight="bold" letter-spacing="-0.432" fill="#7DFFCE">
                    <tspan x="43" y="83">P</tspan>
                </text>
            </g>
        </g>
    </g>
</svg>