<?xml version="1.0" encoding="UTF-8"?>
<svg width="96px" height="107px" viewBox="0 0 96 107" version="1.1" xmlns="http://www.w3.org/2000/svg" xmlns:xlink="http://www.w3.org/1999/xlink">
    <!-- Generator: Sketch 51.3 (57544) - http://www.bohemiancoding.com/sketch -->
    <title>Microsoft PUBH</title>
    <desc>Created with Sketch.</desc>
    <defs></defs>
    <g id="Page-1" stroke="none" stroke-width="1" fill="none" fill-rule="evenodd">
        <g id="Artboard" transform="translate(-2107.000000, -274.000000)">
            <g id="Microsoft-PUBH" transform="translate(2107.000000, 274.000000)">
                <polygon id="Shape-Copy-331" fill="#00BF77" fill-rule="nonzero" points="95.7694398 106.362769 14 106.362769 14 0 70.2164899 0 95.7694398 25.3244688"></polygon>
                <polygon id="Shape-Copy-330" fill="#7DFFCE" fill-rule="nonzero" points="92.2753025 28.0582454 68 28.0582454 68 4"></polygon>
                <rect id="Rectangle-5-Copy-274" fill="#0D6254" x="0" y="16" width="55" height="28" rx="4"></rect>
                <path d="M9.49023438,31.8276367 L9.49023438,36.0859375 L7,36.0859375 L7,24 L11.7148438,24 C12.6224004,24 13.4206509,24.166014 14.1096191,24.4980469 C14.7985874,24.8300798 15.3284487,25.3018361 15.6992188,25.9133301 C16.0699888,26.524824 16.2553711,27.2206992 16.2553711,28.0009766 C16.2553711,29.1852273 15.8500203,30.1190558 15.0393066,30.8024902 C14.228593,31.4859246 13.1066152,31.8276367 11.6733398,31.8276367 L9.49023438,31.8276367 Z M9.49023438,29.8105469 L11.7148438,29.8105469 C12.3733757,29.8105469 12.8755679,29.6556005 13.2214355,29.3457031 C13.5673032,29.0358057 13.7402344,28.5931018 13.7402344,28.0175781 C13.7402344,27.4254528 13.5659197,26.9467792 13.2172852,26.581543 C12.8686506,26.2163068 12.3872101,26.0281576 11.7729492,26.0170898 L9.49023438,26.0170898 L9.49023438,29.8105469 Z M26.680793,24 L26.680793,31.9604492 C26.680793,33.283047 26.2671415,34.328935 25.4398262,35.0981445 C24.6125108,35.8673541 23.4822324,36.2519531 22.048957,36.2519531 C20.6378172,36.2519531 19.5172229,35.8784217 18.6871406,35.1313477 C17.8570583,34.3842736 17.4337227,33.3577539 17.4171211,32.0517578 L17.4171211,24 L19.9073555,24 L19.9073555,31.9770508 C19.9073555,32.7683959 20.0968881,33.3452944 20.475959,33.7077637 C20.8550299,34.0702329 21.3793573,34.2514648 22.048957,34.2514648 C23.4490291,34.2514648 24.1601223,33.5154696 24.1822578,32.043457 L24.1822578,24 L26.680793,24 Z M28.2907851,36.0859375 L28.2907851,24 L32.5241836,24 C33.9906623,24 35.1029558,24.2808403 35.8610976,24.8425293 C36.6192394,25.4042183 36.9983047,26.2273709 36.9983047,27.3120117 C36.9983047,27.9041371 36.8461252,28.4256976 36.5417617,28.876709 C36.2373982,29.3277204 35.8140626,29.6583648 35.2717422,29.8686523 C35.8915369,30.023601 36.3798947,30.3362607 36.7368301,30.8066406 C37.0937654,31.2770206 37.2722304,31.8525357 37.2722304,32.5332031 C37.2722304,33.6953183 36.9014659,34.5751923 36.1599258,35.1728516 C35.4183856,35.7705108 34.36143,36.0748697 32.9890273,36.0859375 L28.2907851,36.0859375 Z M30.7810195,30.8232422 L30.7810195,34.0854492 L32.9143203,34.0854492 C33.5009118,34.0854492 33.9588336,33.9457208 34.2880996,33.6662598 C34.6173656,33.3867987 34.7819961,33.0008163 34.7819961,32.5083008 C34.7819961,31.4015244 34.2092479,30.8398438 33.0637344,30.8232422 L30.7810195,30.8232422 Z M30.7810195,29.0634766 L32.6237929,29.0634766 C33.8799841,29.041341 34.5080703,28.5405322 34.5080703,27.5610352 C34.5080703,27.0131809 34.3489736,26.6188977 34.0307754,26.3781738 C33.7125772,26.13745 33.2103849,26.0170898 32.5241836,26.0170898 L30.7810195,26.0170898 L30.7810195,29.0634766 Z M48.544332,36.0859375 L46.0540976,36.0859375 L46.0540976,30.90625 L41.1981406,30.90625 L41.1981406,36.0859375 L38.7079062,36.0859375 L38.7079062,24 L41.1981406,24 L41.1981406,28.8974609 L46.0540976,28.8974609 L46.0540976,24 L48.544332,24 L48.544332,36.0859375 Z" id="PUBH" fill="#7DFFCE"></path>
                <text id="P-Copy" font-family="Roboto-Bold, Roboto" font-size="36" font-weight="bold" letter-spacing="-0.432" fill="#7DFFCE">
                    <tspan x="43" y="83">P</tspan>
                </text>
            </g>
        </g>
    </g>
</svg>