<?xml version="1.0" encoding="UTF-8"?>
<svg width="96px" height="107px" viewBox="0 0 96 107" version="1.1" xmlns="http://www.w3.org/2000/svg" xmlns:xlink="http://www.w3.org/1999/xlink">
    <!-- Generator: Sketch 51.3 (57544) - http://www.bohemiancoding.com/sketch -->
    <title>Microsoft PUBM</title>
    <desc>Created with Sketch.</desc>
    <defs></defs>
    <g id="Page-1" stroke="none" stroke-width="1" fill="none" fill-rule="evenodd">
        <g id="Artboard" transform="translate(-2261.000000, -274.000000)">
            <g id="Microsoft-PUBM" transform="translate(2261.000000, 274.000000)">
                <polygon id="Shape-Copy-336" fill="#00BF77" fill-rule="nonzero" points="95.7694398 106.362769 14 106.362769 14 0 70.2164899 0 95.7694398 25.3244688"></polygon>
                <polygon id="Shape-Copy-335" fill="#7DFFCE" fill-rule="nonzero" points="92.2753025 28.0582454 68 28.0582454 68 4"></polygon>
                <rect id="Rectangle-5-Copy-278" fill="#0D6254" x="0" y="16" width="55" height="28" rx="4"></rect>
                <path d="M7.49023438,31.8276367 L7.49023438,36.0859375 L5,36.0859375 L5,24 L9.71484375,24 C10.6224004,24 11.4206509,24.166014 12.1096191,24.4980469 C12.7985874,24.8300798 13.3284487,25.3018361 13.6992188,25.9133301 C14.0699888,26.524824 14.2553711,27.2206992 14.2553711,28.0009766 C14.2553711,29.1852273 13.8500203,30.1190558 13.0393066,30.8024902 C12.228593,31.4859246 11.1066152,31.8276367 9.67333984,31.8276367 L7.49023438,31.8276367 Z M7.49023438,29.8105469 L9.71484375,29.8105469 C10.3733757,29.8105469 10.8755679,29.6556005 11.2214355,29.3457031 C11.5673032,29.0358057 11.7402344,28.5931018 11.7402344,28.0175781 C11.7402344,27.4254528 11.5659197,26.9467792 11.2172852,26.581543 C10.8686506,26.2163068 10.3872101,26.0281576 9.77294922,26.0170898 L7.49023438,26.0170898 L7.49023438,29.8105469 Z M24.680793,24 L24.680793,31.9604492 C24.680793,33.283047 24.2671415,34.328935 23.4398262,35.0981445 C22.6125108,35.8673541 21.4822324,36.2519531 20.048957,36.2519531 C18.6378172,36.2519531 17.5172229,35.8784217 16.6871406,35.1313477 C15.8570583,34.3842736 15.4337227,33.3577539 15.4171211,32.0517578 L15.4171211,24 L17.9073555,24 L17.9073555,31.9770508 C17.9073555,32.7683959 18.0968881,33.3452944 18.475959,33.7077637 C18.8550299,34.0702329 19.3793573,34.2514648 20.048957,34.2514648 C21.4490291,34.2514648 22.1601223,33.5154696 22.1822578,32.043457 L22.1822578,24 L24.680793,24 Z M26.2907851,36.0859375 L26.2907851,24 L30.5241836,24 C31.9906623,24 33.1029558,24.2808403 33.8610976,24.8425293 C34.6192394,25.4042183 34.9983047,26.2273709 34.9983047,27.3120117 C34.9983047,27.9041371 34.8461252,28.4256976 34.5417617,28.876709 C34.2373982,29.3277204 33.8140626,29.6583648 33.2717422,29.8686523 C33.8915369,30.023601 34.3798947,30.3362607 34.7368301,30.8066406 C35.0937654,31.2770206 35.2722304,31.8525357 35.2722304,32.5332031 C35.2722304,33.6953183 34.9014659,34.5751923 34.1599258,35.1728516 C33.4183856,35.7705108 32.36143,36.0748697 30.9890273,36.0859375 L26.2907851,36.0859375 Z M28.7810195,30.8232422 L28.7810195,34.0854492 L30.9143203,34.0854492 C31.5009118,34.0854492 31.9588336,33.9457208 32.2880996,33.6662598 C32.6173656,33.3867987 32.7819961,33.0008163 32.7819961,32.5083008 C32.7819961,31.4015244 32.2092479,30.8398438 31.0637344,30.8232422 L28.7810195,30.8232422 Z M28.7810195,29.0634766 L30.6237929,29.0634766 C31.8799841,29.041341 32.5080703,28.5405322 32.5080703,27.5610352 C32.5080703,27.0131809 32.3489736,26.6188977 32.0307754,26.3781738 C31.7125772,26.13745 31.2103849,26.0170898 30.5241836,26.0170898 L28.7810195,26.0170898 L28.7810195,29.0634766 Z M39.9618125,24 L43.0663047,32.765625 L46.1541953,24 L49.4247031,24 L49.4247031,36.0859375 L46.9261679,36.0859375 L46.9261679,32.7822266 L47.1751914,27.0795898 L43.9129843,36.0859375 L42.2030234,36.0859375 L38.9491172,27.0878906 L39.1981406,32.7822266 L39.1981406,36.0859375 L36.7079062,36.0859375 L36.7079062,24 L39.9618125,24 Z" id="PUBM" fill="#7DFFCE"></path>
                <text id="P-Copy-2" font-family="Roboto-Bold, Roboto" font-size="36" font-weight="bold" letter-spacing="-0.432" fill="#7DFFCE">
                    <tspan x="43" y="83">P</tspan>
                </text>
            </g>
        </g>
    </g>
</svg>