<?xml version="1.0" encoding="UTF-8"?>
<svg width="96px" height="107px" viewBox="0 0 96 107" version="1.1" xmlns="http://www.w3.org/2000/svg" xmlns:xlink="http://www.w3.org/1999/xlink">
    <!-- Generator: Sketch 51.3 (57544) - http://www.bohemiancoding.com/sketch -->
    <title>VCF File</title>
    <desc>Created with Sketch.</desc>
    <defs></defs>
    <g id="Page-1" stroke="none" stroke-width="1" fill="none" fill-rule="evenodd">
        <g id="Artboard" transform="translate(-1356.000000, -274.000000)">
            <g id="VCF-File" transform="translate(1356.000000, 274.000000)">
                <polygon id="Shape-Copy-356" fill="#403534" fill-rule="nonzero" points="95.7694398 106.362769 14 106.362769 14 0 70.2164899 0 95.7694398 25.3244688"></polygon>
                <polygon id="Shape-Copy-355" fill="#E5BEBA" fill-rule="nonzero" points="92.2753025 28.0582454 68 28.0582454 68 4"></polygon>
                <rect id="Rectangle-5-Copy-294" fill="#2F2726" x="0" y="16" width="55" height="28" rx="4"></rect>
                <path d="M16.5449219,33.003418 L19.2841797,23.9140625 L22.0566406,23.9140625 L17.8481445,36 L15.25,36 L11.0581055,23.9140625 L13.8222656,23.9140625 L16.5449219,33.003418 Z M32.1417305,31.9741211 C32.0476545,33.2745833 31.5675974,34.2983361 30.7015449,35.0454102 C29.8354924,35.7924842 28.6941464,36.1660156 27.2774726,36.1660156 C25.7279857,36.1660156 24.5091665,35.6444551 23.6209785,34.6013184 C22.7327905,33.5581816 22.2887031,32.1263112 22.2887031,30.3056641 L22.2887031,29.5668945 C22.2887031,28.4047793 22.4934537,27.3810266 22.9029609,26.4956055 C23.3124682,25.6101844 23.8976674,24.9309106 24.6585762,24.4577637 C25.4194849,23.9846168 26.3035093,23.7480469 27.3106758,23.7480469 C28.705214,23.7480469 29.8285752,24.1215783 30.680793,24.8686523 C31.5330108,25.6157264 32.0255189,26.6643813 32.158332,28.0146484 L29.6680976,28.0146484 C29.6072249,27.2343711 29.3900233,26.6685402 29.0164863,26.3171387 C28.6429493,25.9657372 28.0743515,25.7900391 27.3106758,25.7900391 C26.4805935,25.7900391 25.8594246,26.0874807 25.4471504,26.682373 C25.0348762,27.2772653 24.8232084,28.2000263 24.8121406,29.4506836 L24.8121406,30.3637695 C24.8121406,31.6697656 25.0099739,32.6243459 25.4056465,33.2275391 C25.801319,33.8307322 26.4252548,34.1323242 27.2774726,34.1323242 C28.0466822,34.1323242 28.6208138,33.9566261 28.9998848,33.6052246 C29.3789557,33.2538231 29.5961573,32.7101274 29.6514961,31.9741211 L32.1417305,31.9741211 Z M40.6164687,31.0610352 L35.8352187,31.0610352 L35.8352187,36 L33.3449844,36 L33.3449844,23.9140625 L41.214125,23.9140625 L41.214125,25.9311523 L35.8352187,25.9311523 L35.8352187,29.0522461 L40.6164687,29.0522461 L40.6164687,31.0610352 Z" id="VCF" fill="#E5BEBA"></path>
                <path d="M35.0078125,55.3867188 L75.015625,55.3867188 C76.0468802,55.3867188 76.9667928,55.7910116 77.7753906,56.5996094 C78.5839884,57.4082072 78.9882812,58.3281198 78.9882812,59.359375 L78.9882812,87.3789062 C78.9882812,88.433599 78.5839884,89.3652303 77.7753906,90.1738281 C76.9667928,90.9824259 76.0468802,91.3867188 75.015625,91.3867188 L35.0078125,91.3867188 C33.9531197,91.3867188 33.0214884,90.9824259 32.2128906,90.1738281 C31.4042928,89.3652303 31,88.433599 31,87.3789062 L31,59.359375 C31,58.3281198 31.4042928,57.4082072 32.2128906,56.5996094 C33.0214884,55.7910116 33.9531197,55.3867188 35.0078125,55.3867188 Z M58.984375,61.3632812 L58.984375,63.3671875 L75.015625,63.3671875 L75.015625,61.3632812 L58.984375,61.3632812 Z M58.984375,65.3710938 L58.984375,67.375 L75.015625,67.375 L75.015625,65.3710938 L58.984375,65.3710938 Z M58.984375,69.3789062 L58.984375,71.3828125 L73.0117188,71.3828125 L73.0117188,69.3789062 L58.984375,69.3789062 Z M46.9960938,77.1835938 C45.9882762,77.1835938 44.798835,77.318358 43.4277344,77.5878906 C42.0566338,77.8574232 40.7441469,78.2558567 39.4902344,78.7832031 C38.2363219,79.3105495 37.1757856,79.9550743 36.3085938,80.7167969 C35.4414019,81.4785194 35.0078125,82.3632762 35.0078125,83.3710938 L35.0078125,85.375 L58.984375,85.375 L58.984375,83.3710938 C58.984375,82.3632762 58.5507856,81.4785194 57.6835938,80.7167969 C56.8164019,79.9550743 55.7558656,79.3105495 54.5019531,78.7832031 C53.2480406,78.2558567 51.9355537,77.8574232 50.5644531,77.5878906 C49.1933525,77.318358 48.0039113,77.1835938 46.9960938,77.1835938 Z M46.9960938,61.3632812 C45.3320229,61.3632812 43.9140684,61.9492129 42.7421875,63.1210938 C41.5703066,64.2929746 40.984375,65.7109292 40.984375,67.375 C40.984375,69.0390708 41.5703066,70.4570254 42.7421875,71.6289062 C43.9140684,72.8007871 45.3320229,73.3867188 46.9960938,73.3867188 C48.6601646,73.3867188 50.0781191,72.8007871 51.25,71.6289062 C52.4218809,70.4570254 53.0078125,69.0390708 53.0078125,67.375 C53.0078125,65.7109292 52.4218809,64.2929746 51.25,63.1210938 C50.0781191,61.9492129 48.6601646,61.3632812 46.9960938,61.3632812 Z" id="" fill="#E5BEBA"></path>
            </g>
        </g>
    </g>
</svg>