<?xml version="1.0" encoding="UTF-8"?>
<svg width="96px" height="107px" viewBox="0 0 96 107" version="1.1" xmlns="http://www.w3.org/2000/svg" xmlns:xlink="http://www.w3.org/1999/xlink">
    <!-- Generator: Sketch 51.3 (57544) - http://www.bohemiancoding.com/sketch -->
    <title>WMA</title>
    <desc>Created with Sketch.</desc>
    <defs></defs>
    <g id="Page-1" stroke="none" stroke-width="1" fill="none" fill-rule="evenodd">
        <g id="Artboard" transform="translate(-1226.000000, -1284.000000)">
            <g id="WMA" transform="translate(1226.000000, 1284.000000)">
                <polygon id="Shape-Copy-371" fill="#32373F" fill-rule="nonzero" points="95.7694398 106.362769 14 106.362769 14 0 70.2164899 0 95.7694398 25.3244688"></polygon>
                <polygon id="Shape-Copy-370" fill="#D1D1D1" fill-rule="nonzero" points="92.2753025 28.0582454 68 28.0582454 68 4"></polygon>
                <rect id="Rectangle-5-Copy-306" fill="#000000" x="0" y="16" width="55" height="28" rx="4"></rect>
                <text font-family="Roboto-Bold, Roboto" font-size="18" font-weight="bold" letter-spacing="-0.432000011" fill="#D1D1D1">
                    <tspan x="6" y="37">WMA</tspan>
                </text>
                <path d="M62.984375,65.9921875 L62.984375,61.984375 L55.0039062,61.984375 L55.0039062,72.9882812 C54.5820291,72.6835922 54.1191431,72.4433603 53.6152344,72.2675781 C53.1113256,72.091796 52.5664092,72.0039062 51.9804688,72.0039062 C50.5976493,72.0039062 49.4199267,72.4902295 48.4472656,73.4628906 C47.4746045,74.4355517 46.9882812,75.6132743 46.9882812,76.9960938 C46.9882812,78.3789132 47.4746045,79.5566358 48.4472656,80.5292969 C49.4199267,81.501958 50.5976493,81.9882812 51.9804688,81.9882812 C53.3632882,81.9882812 54.5468701,81.501958 55.53125,80.5292969 C56.5156299,79.5566358 57.0078125,78.3789132 57.0078125,76.9960938 L57.0078125,65.9921875 L62.984375,65.9921875 Z M55.0039062,52 C57.7461075,52 60.3359253,52.5214792 62.7734375,53.5644531 C65.2109497,54.6074271 67.3320222,56.0371003 69.1367188,57.8535156 C70.9414153,59.669931 72.3710885,61.7910035 73.4257812,64.2167969 C74.480474,66.6425903 75.0078125,69.2382674 75.0078125,72.0039062 C75.0078125,74.7461075 74.480474,77.3359253 73.4257812,79.7734375 C72.3710885,82.2109497 70.9414153,84.3320222 69.1367188,86.1367188 C67.3320222,87.9414153 65.2109497,89.3710885 62.7734375,90.4257812 C60.3359253,91.480474 57.7461075,92.0078125 55.0039062,92.0078125 C52.2382674,92.0078125 49.6425903,91.480474 47.2167969,90.4257812 C44.7910035,89.3710885 42.669931,87.9414153 40.8535156,86.1367188 C39.0371003,84.3320222 37.6074271,82.2109497 36.5644531,79.7734375 C35.5214792,77.3359253 35,74.7461075 35,72.0039062 C35,69.2382674 35.5214792,66.6425903 36.5644531,64.2167969 C37.6074271,61.7910035 39.0371003,59.669931 40.8535156,57.8535156 C42.669931,56.0371003 44.7910035,54.6074271 47.2167969,53.5644531 C49.6425903,52.5214792 52.2382674,52 55.0039062,52 Z" id="-copy-12" fill="#D1D1D1"></path>
            </g>
        </g>
    </g>
</svg>