<?xml version="1.0" encoding="UTF-8"?>
<svg width="96px" height="107px" viewBox="0 0 96 107" version="1.1" xmlns="http://www.w3.org/2000/svg" xmlns:xlink="http://www.w3.org/1999/xlink">
    <!-- Generator: Sketch 51.3 (57544) - http://www.bohemiancoding.com/sketch -->
    <title>XLSM</title>
    <desc>Created with Sketch.</desc>
    <defs></defs>
    <g id="Page-1" stroke="none" stroke-width="1" fill="none" fill-rule="evenodd">
        <g id="Artboard" transform="translate(-1655.000000, -564.000000)">
            <g id="XLSM" transform="translate(1655.000000, 564.000000)">
                <polygon id="Shape-Copy-388" fill="#79A92E" fill-rule="nonzero" points="95.7694398 106.362769 14 106.362769 14 0 70.2164899 0 95.7694398 25.3244688"></polygon>
                <polygon id="Shape-Copy-387" fill="#99CD48" fill-rule="nonzero" points="92.2753025 28.0582454 68 28.0582454 68 4"></polygon>
                <rect id="Rectangle-5-Copy-319" fill="#658C28" x="0" y="16" width="55" height="28" rx="4"></rect>
                <path d="M11.2211914,28.3330078 L13.4873047,24.1660156 L16.3510742,24.1660156 L12.831543,30.1591797 L16.4423828,36.2519531 L13.5454102,36.2519531 L11.2211914,32.0185547 L8.89697266,36.2519531 L6,36.2519531 L9.61083984,30.1591797 L6.09130859,24.1660156 L8.95507812,24.1660156 L11.2211914,28.3330078 Z M19.7540351,34.2514648 L25.0416328,34.2514648 L25.0416328,36.2519531 L17.2638008,36.2519531 L17.2638008,24.1660156 L19.7540351,24.1660156 L19.7540351,34.2514648 Z M32.304457,33.0810547 C32.304457,32.6106747 32.138443,32.2495944 31.8064101,31.9978027 C31.4743772,31.7460111 30.876727,31.4803888 30.0134414,31.2009277 C29.1501558,30.9214667 28.4667317,30.6461602 27.9631484,30.375 C26.5907457,29.6334598 25.9045547,28.6346091 25.9045547,27.378418 C25.9045547,26.7254199 26.0885535,26.1429876 26.4565566,25.6311035 C26.8245598,25.1192194 27.3530375,24.7194025 28.0420058,24.4316406 C28.7309741,24.1438788 29.5043225,24 30.3620742,24 C31.2253598,24 31.9945578,24.1563298 32.6696914,24.4689941 C33.344825,24.7816585 33.8691524,25.2229789 34.2426894,25.7929688 C34.6162265,26.3629586 34.8029922,27.010413 34.8029922,27.7353516 L32.3127578,27.7353516 C32.3127578,27.1819634 32.1384431,26.7517105 31.7898086,26.4445801 C31.441174,26.1374496 30.9514328,25.9838867 30.3205703,25.9838867 C29.7118433,25.9838867 29.2387035,26.1125475 28.9011367,26.369873 C28.5635699,26.6271986 28.394789,26.9661437 28.394789,27.3867188 C28.394789,27.7796244 28.5926223,28.1088854 28.9882949,28.3745117 C29.3839675,28.640138 29.9663998,28.889159 30.7356094,29.121582 C32.1522831,29.5476909 33.1843366,30.0761687 33.8318008,30.7070312 C34.4792649,31.3378938 34.8029922,32.1236932 34.8029922,33.0644531 C34.8029922,34.1103568 34.4073255,34.9307425 33.6159804,35.5256348 C32.8246353,36.1205271 31.7593791,36.4179688 30.4201797,36.4179688 C29.4904875,36.4179688 28.6438163,36.2478044 27.8801406,35.9074707 C27.1164649,35.567137 26.5340326,35.1009144 26.1328261,34.5087891 C25.7316197,33.9166637 25.5310195,33.2304727 25.5310195,32.4501953 L28.0295547,32.4501953 C28.0295547,33.7838608 28.8264217,34.4506836 30.4201797,34.4506836 C31.012305,34.4506836 31.4743772,34.3303235 31.8064101,34.0895996 C32.138443,33.8488757 32.304457,33.5126975 32.304457,33.0810547 Z M39.309957,24.1660156 L42.4144492,32.9316406 L45.5023398,24.1660156 L48.7728476,24.1660156 L48.7728476,36.2519531 L46.2743125,36.2519531 L46.2743125,32.9482422 L46.5233359,27.2456055 L43.2611289,36.2519531 L41.5511679,36.2519531 L38.2972617,27.2539062 L38.5462851,32.9482422 L38.5462851,36.2519531 L36.0560507,36.2519531 L36.0560507,24.1660156 L39.309957,24.1660156 Z" fill="#99CD48"></path>
                <polygon id="-copy-4" fill="#99CD48" points="73.5625 57 59.375 57 59.375 64.125 62.875 64.125 55.8125 70.0625 48.6875 64.125 52.25 64.125 52.25 57 38 57 38 64.125 41.5625 64.125 52.25 73 41.5625 81.875 38 81.875 38 89 52.25 89 52.25 81.875 48.6875 81.875 55.8125 75.9375 62.875 81.875 59.375 81.875 59.375 89 73.5625 89 73.5625 81.875 70 81.875 59.375 73 70 64.125 73.5625 64.125"></polygon>
            </g>
        </g>
    </g>
</svg>