<?xml version="1.0" encoding="UTF-8"?>
<svg width="39px" height="38px" viewBox="0 0 39 38" version="1.1" xmlns="http://www.w3.org/2000/svg" xmlns:xlink="http://www.w3.org/1999/xlink">
    <!-- Generator: Sketch 51.3 (57544) - http://www.bohemiancoding.com/sketch -->
    <title>Group 4</title>
    <desc>Created with Sketch.</desc>
    <defs></defs>
    <g id="XRP---Dashboard" stroke="none" stroke-width="1" fill="none" fill-rule="evenodd">
        <g id="Dashboard" transform="translate(-26.000000, -371.000000)">
            <g id="Group-4" transform="translate(27.000000, 372.000000)">
                <path d="M18.1697364,36.3394729 C22.6033055,36.3394729 26.6659914,34.7515327 29.8200782,32.1133681 C30.5861226,31.4726276 36.6932782,34.9432021 36.9221623,34.2873495 C37.4280022,33.7249831 33.4682391,28.0553587 34.0719045,26.9664114 C35.5167762,24.3600185 36.3394729,21.360953 36.3394729,18.1697364 C36.3394729,8.13486809 28.2046048,0 18.1697364,0 C8.13486809,0 0,8.13486809 0,18.1697364 C0,28.2046048 8.13486809,36.3394729 18.1697364,36.3394729 Z" id="Oval-6" stroke="#FFFFFF"></path>
                <g id="Group-9" transform="translate(13.000000, 17.000000)" fill="#FFFFFF">
                    <rect id="Rectangle-12" x="0" y="0" width="2" height="2"></rect>
                    <rect id="Rectangle-12" x="4" y="0" width="2" height="2"></rect>
                    <rect id="Rectangle-12" x="8" y="0" width="2" height="2"></rect>
                </g>
            </g>
        </g>
    </g>
</svg>