<?xml version="1.0" encoding="UTF-8"?>
<svg width="241px" height="53px" viewBox="0 0 241 53" version="1.1" xmlns="http://www.w3.org/2000/svg" xmlns:xlink="http://www.w3.org/1999/xlink">
    <!-- Generator: Sketch 51.3 (57544) - http://www.bohemiancoding.com/sketch -->
    <title>XRP</title>
    <desc>Created with Sketch.</desc>
    <defs></defs>
    <g id="Page-1" stroke="none" stroke-width="1" fill="none" fill-rule="evenodd">
        <g id="Artboard" transform="translate(0.000000, -1.000000)">
            <g id="XRP" transform="translate(0.000000, 1.000000)">
                <g>
                    <path d="M65.8811858,21.663963 L73.0712632,21.663963 L80.4058647,36.4391481 L87.7043351,21.663963 L94.8944125,21.663963 L94.8944125,46.9259259 L89.0411837,46.9259259 L89.0050526,30.9254815 L82.5375961,44.4033333 L78.2741332,44.4033333 L71.7705456,30.9254815 L71.7705456,46.9259259 L65.8811858,46.9259259 L65.8811858,21.663963 Z M111.798021,21.2675556 C114.375382,21.2675556 116.705811,21.8321302 118.789378,22.9612963 C120.872945,24.0904624 122.510869,25.6400395 123.7032,27.6100741 C124.89553,29.5801086 125.491686,31.7903581 125.491686,34.2408889 C125.491686,36.7154445 124.89553,38.9497184 123.7032,40.9437778 C122.510869,42.9378371 120.872945,44.5114387 118.789378,45.6646296 C116.705811,46.8178206 114.375382,47.3944074 111.798021,47.3944074 C109.220661,47.3944074 106.890232,46.8238267 104.806665,45.6826481 C102.723098,44.5414696 101.085174,42.9678681 99.8928432,40.9617963 C98.7005128,38.9557245 98.1043566,36.7154445 98.1043566,34.2408889 C98.1043566,31.7903581 98.7005128,29.5801086 99.8928432,27.6100741 C101.085174,25.6400395 102.723098,24.0904624 104.806665,22.9612963 C106.890232,21.8321302 109.220661,21.2675556 111.798021,21.2675556 Z M111.870284,26.8532963 C110.617735,26.8532963 109.455531,27.1776264 108.383638,27.8262963 C107.311745,28.4749662 106.462674,29.369877 105.8364,30.5110556 C105.210125,31.6522341 104.896992,32.9075117 104.896992,34.2769259 C104.896992,35.670365 105.216147,36.9376548 105.854465,38.0788333 C106.492783,39.2200119 107.341854,40.1209288 108.401704,40.7816111 C109.461553,41.4422934 110.617735,41.7726296 111.870284,41.7726296 C113.122833,41.7726296 114.272993,41.4422934 115.320798,40.7816111 C116.368604,40.1209288 117.193587,39.2200119 117.795774,38.0788333 C118.397961,36.9376548 118.69905,35.670365 118.69905,34.2769259 C118.69905,32.9075117 118.397961,31.6522341 117.795774,30.5110556 C117.193587,29.369877 116.368604,28.4749662 115.320798,27.8262963 C114.272993,27.1776264 113.122833,26.8532963 111.870284,26.8532963 Z M146.0084,21.663963 L152.150677,21.663963 L152.150677,46.9259259 L146.36971,46.9259259 L134.880039,31.8264074 L134.880039,46.9259259 L128.70163,46.9259259 L128.70163,21.663963 L134.518728,21.663963 L146.044531,36.8715926 L146.0084,21.663963 Z M157.022649,21.663963 L163.634629,21.663963 L163.634629,46.9259259 L157.022649,46.9259259 L157.022649,21.663963 Z M166.266477,21.663963 L187.981233,21.663963 L187.981233,27.1055556 L180.393714,27.1055556 L180.393714,46.9259259 L173.781734,46.9259259 L173.781734,27.1055556 L166.266477,27.1055556 L166.266477,21.663963 Z M201.380131,21.2675556 C203.957492,21.2675556 206.28792,21.8321302 208.371488,22.9612963 C210.455055,24.0904624 212.092979,25.6400395 213.285309,27.6100741 C214.47764,29.5801086 215.073796,31.7903581 215.073796,34.2408889 C215.073796,36.7154445 214.47764,38.9497184 213.285309,40.9437778 C212.092979,42.9378371 210.455055,44.5114387 208.371488,45.6646296 C206.28792,46.8178206 203.957492,47.3944074 201.380131,47.3944074 C198.80277,47.3944074 196.472342,46.8238267 194.388774,45.6826481 C192.305207,44.5414696 190.667283,42.9678681 189.474953,40.9617963 C188.282622,38.9557245 187.686466,36.7154445 187.686466,34.2408889 C187.686466,31.7903581 188.282622,29.5801086 189.474953,27.6100741 C190.667283,25.6400395 192.305207,24.0904624 194.388774,22.9612963 C196.472342,21.8321302 198.80277,21.2675556 201.380131,21.2675556 Z M201.452393,26.8532963 C200.199844,26.8532963 199.037641,27.1776264 197.965748,27.8262963 C196.893855,28.4749662 196.044784,29.369877 195.418509,30.5110556 C194.792235,31.6522341 194.479102,32.9075117 194.479102,34.2769259 C194.479102,35.670365 194.798256,36.9376548 195.436575,38.0788333 C196.074893,39.2200119 196.923964,40.1209288 197.983813,40.7816111 C199.043662,41.4422934 200.199844,41.7726296 201.452393,41.7726296 C202.704942,41.7726296 203.855102,41.4422934 204.902908,40.7816111 C205.950713,40.1209288 206.775697,39.2200119 207.377884,38.0788333 C207.980071,36.9376548 208.28116,35.670365 208.28116,34.2769259 C208.28116,32.9075117 207.980071,31.6522341 207.377884,30.5110556 C206.775697,29.369877 205.950713,28.4749662 204.902908,27.8262963 C203.855102,27.1776264 202.704942,26.8532963 201.452393,26.8532963 Z M233.494909,46.9259259 L229.809542,39.9347407 L224.895721,39.9347407 L224.895721,46.9259259 L218.28374,46.9259259 L218.28374,21.663963 L229.665018,21.663963 C233.013178,21.663963 235.608565,22.4387515 237.451258,23.9883519 C239.29395,25.5379522 240.215282,27.7181711 240.215282,30.5290741 C240.215282,32.4270342 239.829889,34.066703 239.059089,35.4481296 C238.28829,36.8295563 237.168239,37.9046505 235.698902,38.6734444 L240.974034,46.9259259 L233.494909,46.9259259 Z M224.895721,34.6733333 L229.701149,34.6733333 C231.050048,34.6733333 232.091816,34.336991 232.826484,33.6642963 C233.561153,32.9916016 233.928481,32.0186113 233.928481,30.7452963 C233.928481,29.5200309 233.561153,28.5770712 232.826484,27.9163889 C232.091816,27.2557066 231.050048,26.9253704 229.701149,26.9253704 L224.895721,26.9253704 L224.895721,34.6733333 Z" id="MONITOR" fill="#FFFFFF"></path>
                    <path d="M65.8676692,4.91296296 L73.0548872,4.91296296 L73.0548872,6.80555556 L68.2460795,6.80555556 L68.2460795,8.5037037 L72.5870032,8.5037037 L72.5870032,10.3833333 L68.2460795,10.3962963 L68.2460795,12.1074074 L73.184855,12.1074074 L73.184855,14 L65.8676692,14 L65.8676692,4.91296296 Z M74.1810978,4.91296296 L76.9494114,4.91296296 L78.6519893,7.49259259 L80.367564,4.91296296 L83.1748679,4.91296296 L80.1726123,9.25555556 L83.4348035,14 L80.5885092,14 L78.6519893,11.187037 L76.7544598,14 L73.9731493,14 L77.209347,9.37222222 L74.1810978,4.91296296 Z M91.2543545,14 L90.6305092,12.3925926 L86.6924856,12.3925926 L86.0556435,14 L83.6122493,14 L87.5242794,4.91296296 L89.9676736,4.91296296 L93.7887262,14 L91.2543545,14 Z M87.4073084,10.5777778 L89.9286832,10.5777778 L88.6809926,7.33703704 L87.4073084,10.5777778 Z M94.7719722,4.91296296 L97.358331,4.91296296 L99.9966768,10.2277778 L102.622026,4.91296296 L105.208385,4.91296296 L105.208385,14 L103.102907,14 L103.08991,8.24444444 L100.763487,13.0925926 L99.2298669,13.0925926 L96.890447,8.24444444 L96.890447,14 L94.7719722,14 L94.7719722,4.91296296 Z" id="EXAM" fill="#95D86A"></path>
                    <g id="icon">
                        <g id="Group-5" fill="#6EC436">
                            <polygon id="Polygon-1" points="22.747311 0 45.4946219 13.1007561 45.4946219 39.3022683 22.747311 52.4030243 -6.45222232e-14 39.3022683 -7.91698845e-14 13.1007561"></polygon>
                        </g>
                        <g id="Group-11" transform="translate(5.733314, 16.154472)" fill="#FFFFFF">
                            <polygon id="Path-45" fill-rule="nonzero" points="9.35395469 10.5012443 0.143332852 10.5012443 0.143332852 9.46420729 9.84735388 9.46420729 11.0895352 10.981817 13.3690793 7.06333757 15.1558931 11.2078014 20.0562935 -2.5656744 21.317214 17.6948332 24.1631996 9.53893726 32.4046421 9.53893726 32.4046421 10.5759743 24.902243 10.5759743 20.5997763 22.9057875 19.3339016 2.5656744 15.2486318 14.0480756 13.2307076 9.36755769 11.2345771 12.7988563"></polygon>
                            <ellipse id="Oval-45" cx="2.2216592" cy="10.1501552" rx="2.2216592" ry="2.17003317"></ellipse>
                            <ellipse id="Oval-45" cx="32.1782252" cy="10.1501552" rx="2.2216592" ry="2.17003317"></ellipse>
                        </g>
                    </g>
                </g>
            </g>
        </g>
    </g>
</svg>