<?xml version="1.0" encoding="UTF-8"?>
<svg width="26px" height="26px" viewBox="0 0 26 26" version="1.1" xmlns="http://www.w3.org/2000/svg" xmlns:xlink="http://www.w3.org/1999/xlink">
    <!-- Generator: Sketch 51.3 (57544) - http://www.bohemiancoding.com/sketch -->
    <title>Notification-Icon</title>
    <desc>Created with Sketch.</desc>
    <defs></defs>
    <g id="Dashboard-Components" stroke="none" stroke-width="1" fill="none" fill-rule="evenodd">
        <g id="Desktop-HD" transform="translate(-128.000000, -987.000000)" fill="#C6C9CF" fill-rule="nonzero">
            <g id="Anomolies" transform="translate(98.000000, 766.000000)">
                <g id="Notification-List-with-Icons">
                    <g id="Activity-Items-List" transform="translate(30.000000, 115.000000)">
                        <g id="Activity-Item-List" transform="translate(0.000000, 100.000000)">
                            <g id="Notification-Icon" transform="translate(0.000000, 6.000000)">
                                <path d="M19.1508869,3.2116921 C18.9190679,3.2116921 18.731532,3.39926952 18.731532,3.63104694 C18.731532,3.86286596 18.9190679,4.05040178 19.1508869,4.05040178 C20.6263874,4.05040178 21.8267072,5.25072109 21.8267072,6.72626324 C21.8267072,6.95804066 22.0142846,7.14561808 22.246062,7.14561808 C22.477881,7.14561808 22.6654168,6.95804066 22.6654168,6.72626324 C22.6654168,4.78838243 21.0887681,3.2116921 19.1508869,3.2116921 Z" id="Shape"></path>
                                <path d="M3.33458395,6.72626324 C3.33458395,6.95804066 3.52211935,7.14561808 3.75393879,7.14561808 C3.98571621,7.14561808 4.17329363,6.95804066 4.17329363,6.72626324 C4.17329363,5.25072109 5.37361295,4.05040178 6.84911307,4.05040178 C7.08093209,4.05040178 7.26846791,3.86286596 7.26846791,3.63104694 C7.26846791,3.39926952 7.08093209,3.2116921 6.84911307,3.2116921 C4.91123226,3.2116921 3.33458395,4.78838243 3.33458395,6.72626324 Z" id="Shape"></path>
                                <path d="M19.7696874,0.116517742 C19.5378684,0.116517742 19.3503326,0.304095161 19.3503326,0.535872539 C19.3503326,0.767649916 19.5378684,0.955227377 19.7696874,0.955227377 C22.6105643,0.955227377 24.9219222,3.26616617 24.9219222,6.10704351 C24.9219222,6.33886253 25.1094997,6.52639835 25.3412771,6.52639835 C25.5730545,6.52639835 25.7606319,6.33886253 25.7606319,6.10704351 C25.7606319,2.80382738 23.0729034,0.116517742 19.7696874,0.116517742 Z" id="Shape"></path>
                                <path d="M6.6492907,0.535872539 C6.6492907,0.304095161 6.46171328,0.116517742 6.22993544,0.116517742 C2.92667742,0.116517742 0.239367658,2.80382734 0.239367658,6.10704355 C0.239367658,6.33886257 0.426945119,6.52639839 0.658722539,6.52639839 C0.890499958,6.52639839 1.07807738,6.33886257 1.07807738,6.10704355 C1.07807738,3.26616621 3.38901617,0.955227419 6.22993548,0.955227419 C6.46171328,0.955227377 6.6492907,0.76765 6.6492907,0.535872539 Z" id="Shape"></path>
                                <path d="M21.3003748,18.9556981 C21.2466964,18.7951686 21.1455483,18.6635763 21.0227192,18.5588208 C21.0326166,18.3033084 21.0389067,18.0462443 21.0389067,17.7867887 C21.0389067,12.0752179 18.6732418,7.23808544 15.4050835,5.57920111 C15.4537707,5.38185268 15.4824135,5.17657845 15.4824135,4.96413354 C15.4824135,3.54780434 14.3342188,2.39961083 12.91789,2.39961083 C11.5015612,2.39961083 10.3533681,3.54780434 10.3533681,4.96413354 C10.3533681,5.17657845 10.3820093,5.38185268 10.4306966,5.57920111 C7.162539,7.2380854 4.79687407,12.0752178 4.79687407,17.7867887 C4.79687407,18.0462443 4.80316452,18.3033084 4.81306116,18.5588208 C4.69023209,18.6635763 4.58908391,18.7951686 4.53540641,18.9556981 L3.32032576,22.5900784 C3.12356443,23.1785596 3.56162271,23.7867076 4.18230964,23.7867076 L10.1055711,23.7867076 C10.4666357,24.9989788 11.5883256,25.8834818 12.91789,25.8834818 C14.2474544,25.8834818 15.3691459,24.9989788 15.7302104,23.7867076 L21.6534711,23.7867076 C22.2741577,23.7867076 22.7122164,23.1785596 22.515455,22.5900784 L21.3003748,18.9556981 Z M10.8176356,6.34146295 L11.4233513,6.03399194 L11.2606838,5.37447237 C11.2253742,5.23134656 11.2081804,5.09711116 11.2081804,4.96413391 C11.2081804,4.02142419 11.9751806,3.25446596 12.91789,3.25446596 C13.8605993,3.25446596 14.6275995,4.02142415 14.6275995,4.96413391 C14.6275995,5.09711116 14.6104058,5.23134656 14.575097,5.37447237 L14.4124287,6.03399194 L15.0181452,6.34146295 C18.0597683,7.88535997 20.1840512,12.5918207 20.1840512,17.7867887 C20.1840512,17.962205 20.1814932,18.1398851 20.1764605,18.318992 L5.65931948,18.318992 C5.65428718,18.1398851 5.65172886,17.962205 5.65172886,17.7867887 C5.65172886,12.5918208 7.77601328,7.88535997 10.8176356,6.34146295 Z M12.91789,25.0447721 C12.0597222,25.0447721 11.3203579,24.5266591 10.996197,23.7867076 L14.8395837,23.7867076 C14.515423,24.5266591 13.7760586,25.0447721 12.91789,25.0447721 Z M21.7105025,22.9188528 C21.6894935,22.9479979 21.6642484,22.9479979 21.6534712,22.9479979 L15.8533739,22.9479979 L9.98240612,22.9479979 L4.18230959,22.9479979 C4.17153234,22.9479979 4.14628689,22.9479979 4.12527746,22.9188528 C4.10443561,22.8898756 4.11236137,22.8661407 4.11575798,22.8560337 L5.33083863,19.2216534 C5.3404421,19.1930537 5.36715488,19.1738044 5.39743222,19.1738044 L20.4383477,19.1738044 C20.4686254,19.1738044 20.495339,19.1930537 20.5049421,19.2216118 L21.7200223,22.8560337 C21.7234186,22.8661407 21.7313452,22.8898756 21.7105025,22.9188528 Z" id="Shape"></path>
                            </g>
                        </g>
                    </g>
                </g>
            </g>
        </g>
    </g>
</svg>