<?xml version="1.0" encoding="UTF-8"?>
<svg width="444px" height="273px" viewBox="0 0 444 273" version="1.1" xmlns="http://www.w3.org/2000/svg" xmlns:xlink="http://www.w3.org/1999/xlink">
    <!-- Generator: Sketch 51.3 (57544) - http://www.bohemiancoding.com/sketch -->
    <title>Group 4</title>
    <desc>Created with Sketch.</desc>
    <defs></defs>
    <g id="Dashboard-Components" stroke="none" stroke-width="1" fill="none" fill-rule="evenodd">
        <g id="Artboard-Copy-3" transform="translate(-999.000000, -831.000000)">
            <g id="Group-4" transform="translate(999.000000, 831.000000)">
                <g id="Group-5" transform="translate(33.000000, 239.000000)" fill="#3E3E3E">
                    <path d="M0,5.05859375 L0,4.08203125 L2.50976562,4.08203125 L2.50976562,5.05859375 L0,5.05859375 Z M7.87597656,1.75292969 C7.87597656,2.20540591 7.74414194,2.5821925 7.48046875,2.88330078 C7.21679556,3.18440906 6.84570552,3.38704375 6.3671875,3.49121094 L6.3671875,3.53027344 C6.94010703,3.60188838 7.36979023,3.78010925 7.65625,4.06494141 C7.94270977,4.34977356 8.0859375,4.72818774 8.0859375,5.20019531 C8.0859375,5.88704771 7.8434269,6.41682756 7.35839844,6.78955078 C6.87336997,7.162274 6.18327271,7.34863281 5.28808594,7.34863281 C4.49706636,7.34863281 3.82975532,7.22005337 3.28613281,6.96289062 L3.28613281,5.94238281 C3.5888687,6.09212314 3.90950352,6.20768188 4.24804688,6.2890625 C4.58659023,6.37044312 4.91210781,6.41113281 5.22460938,6.41113281 C5.77799756,6.41113281 6.19140488,6.30859478 6.46484375,6.10351562 C6.73828262,5.89843647 6.875,5.58105684 6.875,5.15136719 C6.875,4.77050591 6.72363433,4.49056079 6.42089844,4.31152344 C6.11816255,4.13248608 5.64290688,4.04296875 4.99511719,4.04296875 L4.375,4.04296875 L4.375,3.11035156 L5.00488281,3.11035156 C6.14421143,3.11035156 6.71386719,2.71647529 6.71386719,1.92871094 C6.71386719,1.62271982 6.61458433,1.38671958 6.41601562,1.22070312 C6.21744692,1.05468667 5.9244811,0.971679688 5.53710938,0.971679688 C5.26692573,0.971679688 5.00651167,1.009928 4.75585938,1.08642578 C4.50520708,1.16292356 4.20898608,1.31184785 3.8671875,1.53320312 L3.30566406,0.732421875 C3.95996421,0.250648633 4.72004775,0.009765625 5.5859375,0.009765625 C6.30534214,0.009765625 6.86685996,0.164386475 7.27050781,0.473632813 C7.67415566,0.78287915 7.87597656,1.20930718 7.87597656,1.75292969 Z M9.22363281,6.640625 C9.22363281,6.4029936 9.28548115,6.22070376 9.40917969,6.09375 C9.53287822,5.96679624 9.71191289,5.90332031 9.94628906,5.90332031 C10.1839205,5.90332031 10.3645827,5.96923762 10.4882812,6.10107422 C10.6119798,6.23291082 10.6738281,6.41275928 10.6738281,6.640625 C10.6738281,6.87174595 10.611166,7.05484958 10.4858398,7.18994141 C10.3605137,7.32503323 10.1806652,7.39257812 9.94628906,7.39257812 C9.71191289,7.39257812 9.53287822,7.32584702 9.40917969,7.19238281 C9.28548115,7.0589186 9.22363281,6.87500117 9.22363281,6.640625 Z M16.6015625,3.68164062 C16.6015625,4.9218812 16.402183,5.84309595 16.003418,6.4453125 C15.604653,7.04752905 14.9951213,7.34863281 14.1748047,7.34863281 C13.3805299,7.34863281 12.7783224,7.03776353 12.3681641,6.41601562 C11.9580058,5.79426772 11.7529297,4.88281851 11.7529297,3.68164062 C11.7529297,2.4218687 11.9523092,1.49332981 12.3510742,0.895996094 C12.7498392,0.298662378 13.3577433,0 14.1748047,0 C14.9723347,0 15.5761698,0.312496875 15.9863281,0.9375 C16.3964864,1.56250312 16.6015625,2.47720752 16.6015625,3.68164062 Z M12.9150391,3.68164062 C12.9150391,4.65495278 13.0151357,5.34993281 13.215332,5.76660156 C13.4155283,6.18327031 13.7353494,6.39160156 14.1748047,6.39160156 C14.61426,6.39160156 14.9357086,6.18001514 15.1391602,5.75683594 C15.3426117,5.33365674 15.4443359,4.64193188 15.4443359,3.68164062 C15.4443359,2.72460459 15.3426117,2.03206594 15.1391602,1.60400391 C14.9357086,1.17594187 14.61426,0.961914062 14.1748047,0.961914062 C13.7353494,0.961914062 13.4155283,1.1718729 13.215332,1.59179688 C13.0151357,2.01172085 12.9150391,2.70832847 12.9150391,3.68164062 Z" id="-3.0"></path>
                    <path d="M32,5.04882812 L32,4.07226562 L34.5097656,4.07226562 L34.5097656,5.04882812 L32,5.04882812 Z M40.1445312,7.24121094 L35.3056641,7.24121094 L35.3056641,6.37207031 L37.1464844,4.52148438 C37.6901069,3.96484097 38.0506176,3.5701509 38.2280273,3.33740234 C38.4054371,3.10465378 38.5348303,2.88574321 38.6162109,2.68066406 C38.6975916,2.47558491 38.7382812,2.25586055 38.7382812,2.02148438 C38.7382812,1.69921714 38.6414398,1.44531343 38.4477539,1.25976562 C38.254068,1.07421782 37.9863298,0.981445312 37.6445312,0.981445312 C37.3710924,0.981445312 37.1066094,1.03190054 36.8510742,1.1328125 C36.5955391,1.23372446 36.3001319,1.41601431 35.9648438,1.6796875 L35.3447266,0.922851562 C35.741864,0.587563428 36.1276023,0.349935596 36.5019531,0.209960938 C36.876304,0.0699862793 37.275063,0 37.6982422,0 C38.362308,0 38.8945292,0.17333811 39.2949219,0.520019531 C39.6953145,0.866700952 39.8955078,1.33300488 39.8955078,1.91894531 C39.8955078,2.24121255 39.8377284,2.54719907 39.722168,2.83691406 C39.6066075,3.12662905 39.4292004,3.42529143 39.1899414,3.73291016 C38.9506824,4.04052888 38.5527372,4.45637759 37.9960938,4.98046875 L36.7558594,6.18164062 L36.7558594,6.23046875 L40.1445312,6.23046875 L40.1445312,7.24121094 Z M41.2236328,6.63085938 C41.2236328,6.39322798 41.2854812,6.21093813 41.4091797,6.08398438 C41.5328782,5.95703062 41.7119129,5.89355469 41.9462891,5.89355469 C42.1839205,5.89355469 42.3645827,5.959472 42.4882812,6.09130859 C42.6119798,6.22314519 42.6738281,6.40299365 42.6738281,6.63085938 C42.6738281,6.86198032 42.611166,7.04508396 42.4858398,7.18017578 C42.3605137,7.3152676 42.1806652,7.3828125 41.9462891,7.3828125 C41.7119129,7.3828125 41.5328782,7.3160814 41.4091797,7.18261719 C41.2854812,7.04915298 41.2236328,6.86523555 41.2236328,6.63085938 Z M46.1845703,2.78320312 C46.903975,2.78320312 47.4736307,2.97363091 47.8935547,3.35449219 C48.3134787,3.73535347 48.5234375,4.254554 48.5234375,4.91210938 C48.5234375,5.67383193 48.2849959,6.26871531 47.8081055,6.69677734 C47.3312151,7.12483938 46.6533247,7.33886719 45.7744141,7.33886719 C44.976884,7.33886719 44.3502627,7.21028774 43.8945312,6.953125 L43.8945312,5.91308594 C44.1582044,6.06282627 44.4609358,6.17838501 44.8027344,6.25976562 C45.144533,6.34114624 45.4619126,6.38183594 45.7548828,6.38183594 C46.2724635,6.38183594 46.6663398,6.2662772 46.9365234,6.03515625 C47.2067071,5.8040353 47.3417969,5.46549702 47.3417969,5.01953125 C47.3417969,4.1666624 46.7981825,3.74023438 45.7109375,3.74023438 C45.5579419,3.74023438 45.3691417,3.75569646 45.1445312,3.78662109 C44.9199208,3.81754573 44.7229826,3.85253887 44.5537109,3.89160156 L44.0410156,3.58886719 L44.3144531,0.102539062 L48.0253906,0.102539062 L48.0253906,1.12304688 L45.3251953,1.12304688 L45.1640625,2.890625 C45.2779954,2.87109365 45.4171541,2.84830742 45.581543,2.82226562 C45.7459318,2.79622383 45.9469389,2.78320312 46.1845703,2.78320312 Z" id="-2.5"></path>
                    <path d="M63,5.05859375 L63,4.08203125 L65.5097656,4.08203125 L65.5097656,5.05859375 L63,5.05859375 Z M71.1445312,7.25097656 L66.3056641,7.25097656 L66.3056641,6.38183594 L68.1464844,4.53125 C68.6901069,3.97460659 69.0506176,3.57991653 69.2280273,3.34716797 C69.4054371,3.11441941 69.5348303,2.89550884 69.6162109,2.69042969 C69.6975916,2.48535054 69.7382812,2.26562617 69.7382812,2.03125 C69.7382812,1.70898276 69.6414398,1.45507905 69.4477539,1.26953125 C69.254068,1.08398345 68.9863298,0.991210938 68.6445312,0.991210938 C68.3710924,0.991210938 68.1066094,1.04166616 67.8510742,1.14257812 C67.5955391,1.24349009 67.3001319,1.42577993 66.9648438,1.68945312 L66.3447266,0.932617187 C66.741864,0.597329053 67.1276023,0.359701221 67.5019531,0.219726562 C67.876304,0.0797519043 68.275063,0.009765625 68.6982422,0.009765625 C69.362308,0.009765625 69.8945292,0.183103735 70.2949219,0.529785156 C70.6953145,0.876466577 70.8955078,1.34277051 70.8955078,1.92871094 C70.8955078,2.25097817 70.8377284,2.5569647 70.722168,2.84667969 C70.6066075,3.13639468 70.4292004,3.43505706 70.1899414,3.74267578 C69.9506824,4.05029451 69.5527372,4.46614321 68.9960938,4.99023438 L67.7558594,6.19140625 L67.7558594,6.24023438 L71.1445312,6.24023438 L71.1445312,7.25097656 Z M72.2236328,6.640625 C72.2236328,6.4029936 72.2854812,6.22070376 72.4091797,6.09375 C72.5328782,5.96679624 72.7119129,5.90332031 72.9462891,5.90332031 C73.1839205,5.90332031 73.3645827,5.96923762 73.4882812,6.10107422 C73.6119798,6.23291082 73.6738281,6.41275928 73.6738281,6.640625 C73.6738281,6.87174595 73.611166,7.05484958 73.4858398,7.18994141 C73.3605137,7.32503323 73.1806652,7.39257812 72.9462891,7.39257812 C72.7119129,7.39257812 72.5328782,7.32584702 72.4091797,7.19238281 C72.2854812,7.0589186 72.2236328,6.87500117 72.2236328,6.640625 Z M79.6015625,3.68164062 C79.6015625,4.9218812 79.402183,5.84309595 79.003418,6.4453125 C78.604653,7.04752905 77.9951213,7.34863281 77.1748047,7.34863281 C76.3805299,7.34863281 75.7783224,7.03776353 75.3681641,6.41601562 C74.9580058,5.79426772 74.7529297,4.88281851 74.7529297,3.68164062 C74.7529297,2.4218687 74.9523092,1.49332981 75.3510742,0.895996094 C75.7498392,0.298662378 76.3577433,0 77.1748047,0 C77.9723347,0 78.5761698,0.312496875 78.9863281,0.9375 C79.3964864,1.56250312 79.6015625,2.47720752 79.6015625,3.68164062 Z M75.9150391,3.68164062 C75.9150391,4.65495278 76.0151357,5.34993281 76.215332,5.76660156 C76.4155283,6.18327031 76.7353494,6.39160156 77.1748047,6.39160156 C77.61426,6.39160156 77.9357086,6.18001514 78.1391602,5.75683594 C78.3426117,5.33365674 78.4443359,4.64193188 78.4443359,3.68164062 C78.4443359,2.72460459 78.3426117,2.03206594 78.1391602,1.60400391 C77.9357086,1.17594187 77.61426,0.961914062 77.1748047,0.961914062 C76.7353494,0.961914062 76.4155283,1.1718729 76.215332,1.59179688 C76.0151357,2.01172085 75.9150391,2.70832847 75.9150391,3.68164062 Z" id="-2.0"></path>
                    <path d="M94,4.94628906 L94,3.96972656 L96.5097656,3.96972656 L96.5097656,4.94628906 L94,4.94628906 Z M100.674805,7.13867188 L99.5273438,7.13867188 L99.5273438,2.52929688 C99.5273438,1.97916392 99.5403645,1.54297036 99.5664062,1.22070312 C99.4915361,1.29882852 99.3995774,1.38509067 99.2905273,1.47949219 C99.1814773,1.5738937 98.8160838,1.87336987 98.1943359,2.37792969 L97.6181641,1.65039062 L99.7177734,0 L100.674805,0 L100.674805,7.13867188 Z M103.223633,6.52832031 C103.223633,6.29068892 103.285481,6.10839907 103.40918,5.98144531 C103.532878,5.85449155 103.711913,5.79101562 103.946289,5.79101562 C104.18392,5.79101562 104.364583,5.85693293 104.488281,5.98876953 C104.61198,6.12060613 104.673828,6.30045459 104.673828,6.52832031 C104.673828,6.75944126 104.611166,6.9425449 104.48584,7.07763672 C104.360514,7.21272854 104.180665,7.28027344 103.946289,7.28027344 C103.711913,7.28027344 103.532878,7.21354233 103.40918,7.08007812 C103.285481,6.94661392 103.223633,6.76269648 103.223633,6.52832031 Z M108.18457,2.68066406 C108.903975,2.68066406 109.473631,2.87109185 109.893555,3.25195312 C110.313479,3.6328144 110.523438,4.15201494 110.523438,4.80957031 C110.523438,5.57129287 110.284996,6.16617625 109.808105,6.59423828 C109.331215,7.02230032 108.653325,7.23632812 107.774414,7.23632812 C106.976884,7.23632812 106.350263,7.10774868 105.894531,6.85058594 L105.894531,5.81054688 C106.158204,5.96028721 106.460936,6.07584595 106.802734,6.15722656 C107.144533,6.23860718 107.461913,6.27929688 107.754883,6.27929688 C108.272464,6.27929688 108.66634,6.16373813 108.936523,5.93261719 C109.206707,5.70149624 109.341797,5.36295796 109.341797,4.91699219 C109.341797,4.06412334 108.798183,3.63769531 107.710938,3.63769531 C107.557942,3.63769531 107.369142,3.6531574 107.144531,3.68408203 C106.919921,3.71500667 106.722983,3.7499998 106.553711,3.7890625 L106.041016,3.48632812 L106.314453,0 L110.025391,0 L110.025391,1.02050781 L107.325195,1.02050781 L107.164062,2.78808594 C107.277995,2.76855459 107.417154,2.74576836 107.581543,2.71972656 C107.745932,2.69368477 107.946939,2.68066406 108.18457,2.68066406 Z" id="-1.5"></path>
                    <path d="M125,5.05859375 L125,4.08203125 L127.509766,4.08203125 L127.509766,5.05859375 L125,5.05859375 Z M131.674805,7.25097656 L130.527344,7.25097656 L130.527344,2.64160156 C130.527344,2.0914686 130.540364,1.65527505 130.566406,1.33300781 C130.491536,1.4111332 130.399577,1.49739536 130.290527,1.59179688 C130.181477,1.68619839 129.816084,1.98567456 129.194336,2.49023438 L128.618164,1.76269531 L130.717773,0.112304688 L131.674805,0.112304688 L131.674805,7.25097656 Z M134.223633,6.640625 C134.223633,6.4029936 134.285481,6.22070376 134.40918,6.09375 C134.532878,5.96679624 134.711913,5.90332031 134.946289,5.90332031 C135.18392,5.90332031 135.364583,5.96923762 135.488281,6.10107422 C135.61198,6.23291082 135.673828,6.41275928 135.673828,6.640625 C135.673828,6.87174595 135.611166,7.05484958 135.48584,7.18994141 C135.360514,7.32503323 135.180665,7.39257812 134.946289,7.39257812 C134.711913,7.39257812 134.532878,7.32584702 134.40918,7.19238281 C134.285481,7.0589186 134.223633,6.87500117 134.223633,6.640625 Z M141.601562,3.68164062 C141.601562,4.9218812 141.402183,5.84309595 141.003418,6.4453125 C140.604653,7.04752905 139.995121,7.34863281 139.174805,7.34863281 C138.38053,7.34863281 137.778322,7.03776353 137.368164,6.41601562 C136.958006,5.79426772 136.75293,4.88281851 136.75293,3.68164062 C136.75293,2.4218687 136.952309,1.49332981 137.351074,0.895996094 C137.749839,0.298662378 138.357743,0 139.174805,0 C139.972335,0 140.57617,0.312496875 140.986328,0.9375 C141.396486,1.56250312 141.601562,2.47720752 141.601562,3.68164062 Z M137.915039,3.68164062 C137.915039,4.65495278 138.015136,5.34993281 138.215332,5.76660156 C138.415528,6.18327031 138.735349,6.39160156 139.174805,6.39160156 C139.61426,6.39160156 139.935709,6.18001514 140.13916,5.75683594 C140.342612,5.33365674 140.444336,4.64193188 140.444336,3.68164062 C140.444336,2.72460459 140.342612,2.03206594 140.13916,1.60400391 C139.935709,1.17594187 139.61426,0.961914062 139.174805,0.961914062 C138.735349,0.961914062 138.415528,1.1718729 138.215332,1.59179688 C138.015136,2.01172085 137.915039,2.70832847 137.915039,3.68164062 Z" id="-1.0"></path>
                    <path d="M156,5.05859375 L156,4.08203125 L158.509766,4.08203125 L158.509766,5.05859375 L156,5.05859375 Z M164.144531,3.68164062 C164.144531,4.9218812 163.945152,5.84309595 163.546387,6.4453125 C163.147622,7.04752905 162.53809,7.34863281 161.717773,7.34863281 C160.923499,7.34863281 160.321291,7.03776353 159.911133,6.41601562 C159.500975,5.79426772 159.295898,4.88281851 159.295898,3.68164062 C159.295898,2.4218687 159.495278,1.49332981 159.894043,0.895996094 C160.292808,0.298662378 160.900712,0 161.717773,0 C162.515303,0 163.119139,0.312496875 163.529297,0.9375 C163.939455,1.56250312 164.144531,2.47720752 164.144531,3.68164062 Z M160.458008,3.68164062 C160.458008,4.65495278 160.558104,5.34993281 160.758301,5.76660156 C160.958497,6.18327031 161.278318,6.39160156 161.717773,6.39160156 C162.157229,6.39160156 162.478677,6.18001514 162.682129,5.75683594 C162.88558,5.33365674 162.987305,4.64193188 162.987305,3.68164062 C162.987305,2.72460459 162.88558,2.03206594 162.682129,1.60400391 C162.478677,1.17594187 162.157229,0.961914062 161.717773,0.961914062 C161.278318,0.961914062 160.958497,1.1718729 160.758301,1.59179688 C160.558104,2.01172085 160.458008,2.70832847 160.458008,3.68164062 Z M165.223633,6.640625 C165.223633,6.4029936 165.285481,6.22070376 165.40918,6.09375 C165.532878,5.96679624 165.711913,5.90332031 165.946289,5.90332031 C166.18392,5.90332031 166.364583,5.96923762 166.488281,6.10107422 C166.61198,6.23291082 166.673828,6.41275928 166.673828,6.640625 C166.673828,6.87174595 166.611166,7.05484958 166.48584,7.18994141 C166.360514,7.32503323 166.180665,7.39257812 165.946289,7.39257812 C165.711913,7.39257812 165.532878,7.32584702 165.40918,7.19238281 C165.285481,7.0589186 165.223633,6.87500117 165.223633,6.640625 Z M170.18457,2.79296875 C170.903975,2.79296875 171.473631,2.98339653 171.893555,3.36425781 C172.313479,3.74511909 172.523438,4.26431963 172.523438,4.921875 C172.523438,5.68359756 172.284996,6.27848093 171.808105,6.70654297 C171.331215,7.134605 170.653325,7.34863281 169.774414,7.34863281 C168.976884,7.34863281 168.350263,7.22005337 167.894531,6.96289062 L167.894531,5.92285156 C168.158204,6.07259189 168.460936,6.18815063 168.802734,6.26953125 C169.144533,6.35091187 169.461913,6.39160156 169.754883,6.39160156 C170.272464,6.39160156 170.66634,6.27604282 170.936523,6.04492188 C171.206707,5.81380093 171.341797,5.47526265 171.341797,5.02929688 C171.341797,4.17642803 170.798183,3.75 169.710938,3.75 C169.557942,3.75 169.369142,3.76546208 169.144531,3.79638672 C168.919921,3.82731135 168.722983,3.86230449 168.553711,3.90136719 L168.041016,3.59863281 L168.314453,0.112304688 L172.025391,0.112304688 L172.025391,1.1328125 L169.325195,1.1328125 L169.164062,2.90039062 C169.277995,2.88085928 169.417154,2.85807305 169.581543,2.83203125 C169.745932,2.80598945 169.946939,2.79296875 170.18457,2.79296875 Z" id="-0.5"></path>
                    <path d="M195.848633,3.68164062 C195.848633,4.9218812 195.649253,5.84309595 195.250488,6.4453125 C194.851723,7.04752905 194.242192,7.34863281 193.421875,7.34863281 C192.6276,7.34863281 192.025393,7.03776353 191.615234,6.41601562 C191.205076,5.79426772 191,4.88281851 191,3.68164062 C191,2.4218687 191.19938,1.49332981 191.598145,0.895996094 C191.99691,0.298662378 192.604814,0 193.421875,0 C194.219405,0 194.82324,0.312496875 195.233398,0.9375 C195.643557,1.56250312 195.848633,2.47720752 195.848633,3.68164062 Z M192.162109,3.68164062 C192.162109,4.65495278 192.262206,5.34993281 192.462402,5.76660156 C192.662599,6.18327031 192.98242,6.39160156 193.421875,6.39160156 C193.86133,6.39160156 194.182779,6.18001514 194.38623,5.75683594 C194.589682,5.33365674 194.691406,4.64193188 194.691406,3.68164062 C194.691406,2.72460459 194.589682,2.03206594 194.38623,1.60400391 C194.182779,1.17594187 193.86133,0.961914062 193.421875,0.961914062 C192.98242,0.961914062 192.662599,1.1718729 192.462402,1.59179688 C192.262206,2.01172085 192.162109,2.70832847 192.162109,3.68164062 Z M196.927734,6.640625 C196.927734,6.4029936 196.989583,6.22070376 197.113281,6.09375 C197.23698,5.96679624 197.416014,5.90332031 197.650391,5.90332031 C197.888022,5.90332031 198.068684,5.96923762 198.192383,6.10107422 C198.316081,6.23291082 198.37793,6.41275928 198.37793,6.640625 C198.37793,6.87174595 198.315268,7.05484958 198.189941,7.18994141 C198.064615,7.32503323 197.884767,7.39257812 197.650391,7.39257812 C197.416014,7.39257812 197.23698,7.32584702 197.113281,7.19238281 C196.989583,7.0589186 196.927734,6.87500117 196.927734,6.640625 Z M204.305664,3.68164062 C204.305664,4.9218812 204.106285,5.84309595 203.70752,6.4453125 C203.308755,7.04752905 202.699223,7.34863281 201.878906,7.34863281 C201.084631,7.34863281 200.482424,7.03776353 200.072266,6.41601562 C199.662107,5.79426772 199.457031,4.88281851 199.457031,3.68164062 C199.457031,2.4218687 199.656411,1.49332981 200.055176,0.895996094 C200.453941,0.298662378 201.061845,0 201.878906,0 C202.676436,0 203.280271,0.312496875 203.69043,0.9375 C204.100588,1.56250312 204.305664,2.47720752 204.305664,3.68164062 Z M200.619141,3.68164062 C200.619141,4.65495278 200.719237,5.34993281 200.919434,5.76660156 C201.11963,6.18327031 201.439451,6.39160156 201.878906,6.39160156 C202.318362,6.39160156 202.63981,6.18001514 202.843262,5.75683594 C203.046713,5.33365674 203.148438,4.64193188 203.148438,3.68164062 C203.148438,2.72460459 203.046713,2.03206594 202.843262,1.60400391 C202.63981,1.17594187 202.318362,0.961914062 201.878906,0.961914062 C201.439451,0.961914062 201.11963,1.1718729 200.919434,1.59179688 C200.719237,2.01172085 200.619141,2.70832847 200.619141,3.68164062 Z" id="0.0"></path>
                    <path d="M225.848633,3.68164062 C225.848633,4.9218812 225.649253,5.84309595 225.250488,6.4453125 C224.851723,7.04752905 224.242192,7.34863281 223.421875,7.34863281 C222.6276,7.34863281 222.025393,7.03776353 221.615234,6.41601562 C221.205076,5.79426772 221,4.88281851 221,3.68164062 C221,2.4218687 221.19938,1.49332981 221.598145,0.895996094 C221.99691,0.298662378 222.604814,0 223.421875,0 C224.219405,0 224.82324,0.312496875 225.233398,0.9375 C225.643557,1.56250312 225.848633,2.47720752 225.848633,3.68164062 Z M222.162109,3.68164062 C222.162109,4.65495278 222.262206,5.34993281 222.462402,5.76660156 C222.662599,6.18327031 222.98242,6.39160156 223.421875,6.39160156 C223.86133,6.39160156 224.182779,6.18001514 224.38623,5.75683594 C224.589682,5.33365674 224.691406,4.64193188 224.691406,3.68164062 C224.691406,2.72460459 224.589682,2.03206594 224.38623,1.60400391 C224.182779,1.17594187 223.86133,0.961914062 223.421875,0.961914062 C222.98242,0.961914062 222.662599,1.1718729 222.462402,1.59179688 C222.262206,2.01172085 222.162109,2.70832847 222.162109,3.68164062 Z M226.927734,6.640625 C226.927734,6.4029936 226.989583,6.22070376 227.113281,6.09375 C227.23698,5.96679624 227.416014,5.90332031 227.650391,5.90332031 C227.888022,5.90332031 228.068684,5.96923762 228.192383,6.10107422 C228.316081,6.23291082 228.37793,6.41275928 228.37793,6.640625 C228.37793,6.87174595 228.315268,7.05484958 228.189941,7.18994141 C228.064615,7.32503323 227.884767,7.39257812 227.650391,7.39257812 C227.416014,7.39257812 227.23698,7.32584702 227.113281,7.19238281 C226.989583,7.0589186 226.927734,6.87500117 226.927734,6.640625 Z M231.888672,2.79296875 C232.608077,2.79296875 233.177732,2.98339653 233.597656,3.36425781 C234.01758,3.74511909 234.227539,4.26431963 234.227539,4.921875 C234.227539,5.68359756 233.989097,6.27848093 233.512207,6.70654297 C233.035317,7.134605 232.357426,7.34863281 231.478516,7.34863281 C230.680986,7.34863281 230.054364,7.22005337 229.598633,6.96289062 L229.598633,5.92285156 C229.862306,6.07259189 230.165037,6.18815063 230.506836,6.26953125 C230.848635,6.35091187 231.166014,6.39160156 231.458984,6.39160156 C231.976565,6.39160156 232.370441,6.27604282 232.640625,6.04492188 C232.910809,5.81380093 233.045898,5.47526265 233.045898,5.02929688 C233.045898,4.17642803 232.502284,3.75 231.415039,3.75 C231.262044,3.75 231.073243,3.76546208 230.848633,3.79638672 C230.624022,3.82731135 230.427084,3.86230449 230.257812,3.90136719 L229.745117,3.59863281 L230.018555,0.112304688 L233.729492,0.112304688 L233.729492,1.1328125 L231.029297,1.1328125 L230.868164,2.90039062 C230.982097,2.88085928 231.121256,2.85807305 231.285645,2.83203125 C231.450033,2.80598945 231.65104,2.79296875 231.888672,2.79296875 Z" id="0.5"></path>
                    <path d="M255.056641,7.25097656 L253.90918,7.25097656 L253.90918,2.64160156 C253.90918,2.0914686 253.9222,1.65527505 253.948242,1.33300781 C253.873372,1.4111332 253.781413,1.49739536 253.672363,1.59179688 C253.563313,1.68619839 253.19792,1.98567456 252.576172,2.49023438 L252,1.76269531 L254.099609,0.112304688 L255.056641,0.112304688 L255.056641,7.25097656 Z M257.605469,6.640625 C257.605469,6.4029936 257.667317,6.22070376 257.791016,6.09375 C257.914714,5.96679624 258.093749,5.90332031 258.328125,5.90332031 C258.565756,5.90332031 258.746419,5.96923762 258.870117,6.10107422 C258.993816,6.23291082 259.055664,6.41275928 259.055664,6.640625 C259.055664,6.87174595 258.993002,7.05484958 258.867676,7.18994141 C258.74235,7.32503323 258.562501,7.39257812 258.328125,7.39257812 C258.093749,7.39257812 257.914714,7.32584702 257.791016,7.19238281 C257.667317,7.0589186 257.605469,6.87500117 257.605469,6.640625 Z M264.983398,3.68164062 C264.983398,4.9218812 264.784019,5.84309595 264.385254,6.4453125 C263.986489,7.04752905 263.376957,7.34863281 262.556641,7.34863281 C261.762366,7.34863281 261.160158,7.03776353 260.75,6.41601562 C260.339842,5.79426772 260.134766,4.88281851 260.134766,3.68164062 C260.134766,2.4218687 260.334145,1.49332981 260.73291,0.895996094 C261.131675,0.298662378 261.739579,0 262.556641,0 C263.354171,0 263.958006,0.312496875 264.368164,0.9375 C264.778322,1.56250312 264.983398,2.47720752 264.983398,3.68164062 Z M261.296875,3.68164062 C261.296875,4.65495278 261.396972,5.34993281 261.597168,5.76660156 C261.797364,6.18327031 262.117185,6.39160156 262.556641,6.39160156 C262.996096,6.39160156 263.317545,6.18001514 263.520996,5.75683594 C263.724448,5.33365674 263.826172,4.64193188 263.826172,3.68164062 C263.826172,2.72460459 263.724448,2.03206594 263.520996,1.60400391 C263.317545,1.17594187 262.996096,0.961914062 262.556641,0.961914062 C262.117185,0.961914062 261.797364,1.1718729 261.597168,1.59179688 C261.396972,2.01172085 261.296875,2.70832847 261.296875,3.68164062 Z" id="1.0"></path>
                    <path d="M286.056641,7.13867188 L284.90918,7.13867188 L284.90918,2.52929688 C284.90918,1.97916392 284.9222,1.54297036 284.948242,1.22070312 C284.873372,1.29882852 284.781413,1.38509067 284.672363,1.47949219 C284.563313,1.5738937 284.19792,1.87336987 283.576172,2.37792969 L283,1.65039062 L285.099609,0 L286.056641,0 L286.056641,7.13867188 Z M288.605469,6.52832031 C288.605469,6.29068892 288.667317,6.10839907 288.791016,5.98144531 C288.914714,5.85449155 289.093749,5.79101562 289.328125,5.79101562 C289.565756,5.79101562 289.746419,5.85693293 289.870117,5.98876953 C289.993816,6.12060613 290.055664,6.30045459 290.055664,6.52832031 C290.055664,6.75944126 289.993002,6.9425449 289.867676,7.07763672 C289.74235,7.21272854 289.562501,7.28027344 289.328125,7.28027344 C289.093749,7.28027344 288.914714,7.21354233 288.791016,7.08007812 C288.667317,6.94661392 288.605469,6.76269648 288.605469,6.52832031 Z M293.566406,2.68066406 C294.285811,2.68066406 294.855467,2.87109185 295.275391,3.25195312 C295.695315,3.6328144 295.905273,4.15201494 295.905273,4.80957031 C295.905273,5.57129287 295.666832,6.16617625 295.189941,6.59423828 C294.713051,7.02230032 294.035161,7.23632812 293.15625,7.23632812 C292.35872,7.23632812 291.732099,7.10774868 291.276367,6.85058594 L291.276367,5.81054688 C291.54004,5.96028721 291.842772,6.07584595 292.18457,6.15722656 C292.526369,6.23860718 292.843749,6.27929688 293.136719,6.27929688 C293.654299,6.27929688 294.048176,6.16373813 294.318359,5.93261719 C294.588543,5.70149624 294.723633,5.36295796 294.723633,4.91699219 C294.723633,4.06412334 294.180018,3.63769531 293.092773,3.63769531 C292.939778,3.63769531 292.750978,3.6531574 292.526367,3.68408203 C292.301757,3.71500667 292.104819,3.7499998 291.935547,3.7890625 L291.422852,3.48632812 L291.696289,0 L295.407227,0 L295.407227,1.02050781 L292.707031,1.02050781 L292.545898,2.78808594 C292.659831,2.76855459 292.79899,2.74576836 292.963379,2.71972656 C293.127768,2.69368477 293.328775,2.68066406 293.566406,2.68066406 Z" id="1.5"></path>
                    <path d="M319.838867,7.25097656 L315,7.25097656 L315,6.38183594 L316.84082,4.53125 C317.384443,3.97460659 317.744954,3.57991653 317.922363,3.34716797 C318.099773,3.11441941 318.229166,2.89550884 318.310547,2.69042969 C318.391927,2.48535054 318.432617,2.26562617 318.432617,2.03125 C318.432617,1.70898276 318.335776,1.45507905 318.14209,1.26953125 C317.948404,1.08398345 317.680666,0.991210938 317.338867,0.991210938 C317.065428,0.991210938 316.800945,1.04166616 316.54541,1.14257812 C316.289875,1.24349009 315.994468,1.42577993 315.65918,1.68945312 L315.039062,0.932617187 C315.4362,0.597329053 315.821938,0.359701221 316.196289,0.219726562 C316.57064,0.0797519043 316.969399,0.009765625 317.392578,0.009765625 C318.056644,0.009765625 318.588865,0.183103735 318.989258,0.529785156 C319.38965,0.876466577 319.589844,1.34277051 319.589844,1.92871094 C319.589844,2.25097817 319.532064,2.5569647 319.416504,2.84667969 C319.300943,3.13639468 319.123536,3.43505706 318.884277,3.74267578 C318.645018,4.05029451 318.247073,4.46614321 317.69043,4.99023438 L316.450195,6.19140625 L316.450195,6.24023438 L319.838867,6.24023438 L319.838867,7.25097656 Z M320.917969,6.640625 C320.917969,6.4029936 320.979817,6.22070376 321.103516,6.09375 C321.227214,5.96679624 321.406249,5.90332031 321.640625,5.90332031 C321.878256,5.90332031 322.058919,5.96923762 322.182617,6.10107422 C322.306316,6.23291082 322.368164,6.41275928 322.368164,6.640625 C322.368164,6.87174595 322.305502,7.05484958 322.180176,7.18994141 C322.05485,7.32503323 321.875001,7.39257812 321.640625,7.39257812 C321.406249,7.39257812 321.227214,7.32584702 321.103516,7.19238281 C320.979817,7.0589186 320.917969,6.87500117 320.917969,6.640625 Z M328.295898,3.68164062 C328.295898,4.9218812 328.096519,5.84309595 327.697754,6.4453125 C327.298989,7.04752905 326.689457,7.34863281 325.869141,7.34863281 C325.074866,7.34863281 324.472658,7.03776353 324.0625,6.41601562 C323.652342,5.79426772 323.447266,4.88281851 323.447266,3.68164062 C323.447266,2.4218687 323.646645,1.49332981 324.04541,0.895996094 C324.444175,0.298662378 325.052079,0 325.869141,0 C326.666671,0 327.270506,0.312496875 327.680664,0.9375 C328.090822,1.56250312 328.295898,2.47720752 328.295898,3.68164062 Z M324.609375,3.68164062 C324.609375,4.65495278 324.709472,5.34993281 324.909668,5.76660156 C325.109864,6.18327031 325.429685,6.39160156 325.869141,6.39160156 C326.308596,6.39160156 326.630045,6.18001514 326.833496,5.75683594 C327.036948,5.33365674 327.138672,4.64193188 327.138672,3.68164062 C327.138672,2.72460459 327.036948,2.03206594 326.833496,1.60400391 C326.630045,1.17594187 326.308596,0.961914062 325.869141,0.961914062 C325.429685,0.961914062 325.109864,1.1718729 324.909668,1.59179688 C324.709472,2.01172085 324.609375,2.70832847 324.609375,3.68164062 Z" id="2.0"></path>
                    <path d="M350.838867,7.24121094 L346,7.24121094 L346,6.37207031 L347.84082,4.52148438 C348.384443,3.96484097 348.744954,3.5701509 348.922363,3.33740234 C349.099773,3.10465378 349.229166,2.88574321 349.310547,2.68066406 C349.391927,2.47558491 349.432617,2.25586055 349.432617,2.02148438 C349.432617,1.69921714 349.335776,1.44531343 349.14209,1.25976562 C348.948404,1.07421782 348.680666,0.981445312 348.338867,0.981445312 C348.065428,0.981445312 347.800945,1.03190054 347.54541,1.1328125 C347.289875,1.23372446 346.994468,1.41601431 346.65918,1.6796875 L346.039062,0.922851562 C346.4362,0.587563428 346.821938,0.349935596 347.196289,0.209960938 C347.57064,0.0699862793 347.969399,0 348.392578,0 C349.056644,0 349.588865,0.17333811 349.989258,0.520019531 C350.38965,0.866700952 350.589844,1.33300488 350.589844,1.91894531 C350.589844,2.24121255 350.532064,2.54719907 350.416504,2.83691406 C350.300943,3.12662905 350.123536,3.42529143 349.884277,3.73291016 C349.645018,4.04052888 349.247073,4.45637759 348.69043,4.98046875 L347.450195,6.18164062 L347.450195,6.23046875 L350.838867,6.23046875 L350.838867,7.24121094 Z M351.917969,6.63085938 C351.917969,6.39322798 351.979817,6.21093813 352.103516,6.08398438 C352.227214,5.95703062 352.406249,5.89355469 352.640625,5.89355469 C352.878256,5.89355469 353.058919,5.959472 353.182617,6.09130859 C353.306316,6.22314519 353.368164,6.40299365 353.368164,6.63085938 C353.368164,6.86198032 353.305502,7.04508396 353.180176,7.18017578 C353.05485,7.3152676 352.875001,7.3828125 352.640625,7.3828125 C352.406249,7.3828125 352.227214,7.3160814 352.103516,7.18261719 C351.979817,7.04915298 351.917969,6.86523555 351.917969,6.63085938 Z M356.878906,2.78320312 C357.598311,2.78320312 358.167967,2.97363091 358.587891,3.35449219 C359.007815,3.73535347 359.217773,4.254554 359.217773,4.91210938 C359.217773,5.67383193 358.979332,6.26871531 358.502441,6.69677734 C358.025551,7.12483938 357.347661,7.33886719 356.46875,7.33886719 C355.67122,7.33886719 355.044599,7.21028774 354.588867,6.953125 L354.588867,5.91308594 C354.85254,6.06282627 355.155272,6.17838501 355.49707,6.25976562 C355.838869,6.34114624 356.156249,6.38183594 356.449219,6.38183594 C356.966799,6.38183594 357.360676,6.2662772 357.630859,6.03515625 C357.901043,5.8040353 358.036133,5.46549702 358.036133,5.01953125 C358.036133,4.1666624 357.492518,3.74023438 356.405273,3.74023438 C356.252278,3.74023438 356.063478,3.75569646 355.838867,3.78662109 C355.614257,3.81754573 355.417319,3.85253887 355.248047,3.89160156 L354.735352,3.58886719 L355.008789,0.102539062 L358.719727,0.102539062 L358.719727,1.12304688 L356.019531,1.12304688 L355.858398,2.890625 C355.972331,2.87109365 356.11149,2.84830742 356.275879,2.82226562 C356.440268,2.79622383 356.641275,2.78320312 356.878906,2.78320312 Z" id="2.5"></path>
                    <path d="M382.589844,1.75292969 C382.589844,2.20540591 382.458009,2.5821925 382.194336,2.88330078 C381.930663,3.18440906 381.559573,3.38704375 381.081055,3.49121094 L381.081055,3.53027344 C381.653974,3.60188838 382.083657,3.78010925 382.370117,4.06494141 C382.656577,4.34977356 382.799805,4.72818774 382.799805,5.20019531 C382.799805,5.88704771 382.557294,6.41682756 382.072266,6.78955078 C381.587237,7.162274 380.89714,7.34863281 380.001953,7.34863281 C379.210934,7.34863281 378.543623,7.22005337 378,6.96289062 L378,5.94238281 C378.302736,6.09212314 378.623371,6.20768188 378.961914,6.2890625 C379.300457,6.37044312 379.625975,6.41113281 379.938477,6.41113281 C380.491865,6.41113281 380.905272,6.30859478 381.178711,6.10351562 C381.45215,5.89843647 381.588867,5.58105684 381.588867,5.15136719 C381.588867,4.77050591 381.437502,4.49056079 381.134766,4.31152344 C380.83203,4.13248608 380.356774,4.04296875 379.708984,4.04296875 L379.088867,4.04296875 L379.088867,3.11035156 L379.71875,3.11035156 C380.858079,3.11035156 381.427734,2.71647529 381.427734,1.92871094 C381.427734,1.62271982 381.328452,1.38671958 381.129883,1.22070312 C380.931314,1.05468667 380.638348,0.971679688 380.250977,0.971679688 C379.980793,0.971679688 379.720379,1.009928 379.469727,1.08642578 C379.219074,1.16292356 378.922853,1.31184785 378.581055,1.53320312 L378.019531,0.732421875 C378.673831,0.250648633 379.433915,0.009765625 380.299805,0.009765625 C381.019209,0.009765625 381.580727,0.164386475 381.984375,0.473632813 C382.388023,0.78287915 382.589844,1.20930718 382.589844,1.75292969 Z M383.9375,6.640625 C383.9375,6.4029936 383.999348,6.22070376 384.123047,6.09375 C384.246745,5.96679624 384.42578,5.90332031 384.660156,5.90332031 C384.897788,5.90332031 385.07845,5.96923762 385.202148,6.10107422 C385.325847,6.23291082 385.387695,6.41275928 385.387695,6.640625 C385.387695,6.87174595 385.325033,7.05484958 385.199707,7.18994141 C385.074381,7.32503323 384.894532,7.39257812 384.660156,7.39257812 C384.42578,7.39257812 384.246745,7.32584702 384.123047,7.19238281 C383.999348,7.0589186 383.9375,6.87500117 383.9375,6.640625 Z M391.31543,3.68164062 C391.31543,4.9218812 391.11605,5.84309595 390.717285,6.4453125 C390.31852,7.04752905 389.708988,7.34863281 388.888672,7.34863281 C388.094397,7.34863281 387.49219,7.03776353 387.082031,6.41601562 C386.671873,5.79426772 386.466797,4.88281851 386.466797,3.68164062 C386.466797,2.4218687 386.666176,1.49332981 387.064941,0.895996094 C387.463706,0.298662378 388.07161,0 388.888672,0 C389.686202,0 390.290037,0.312496875 390.700195,0.9375 C391.110354,1.56250312 391.31543,2.47720752 391.31543,3.68164062 Z M387.628906,3.68164062 C387.628906,4.65495278 387.729003,5.34993281 387.929199,5.76660156 C388.129396,6.18327031 388.449217,6.39160156 388.888672,6.39160156 C389.328127,6.39160156 389.649576,6.18001514 389.853027,5.75683594 C390.056479,5.33365674 390.158203,4.64193188 390.158203,3.68164062 C390.158203,2.72460459 390.056479,2.03206594 389.853027,1.60400391 C389.649576,1.17594187 389.328127,0.961914062 388.888672,0.961914062 C388.449217,0.961914062 388.129396,1.1718729 387.929199,1.59179688 C387.729003,2.01172085 387.628906,2.70832847 387.628906,3.68164062 Z" id="3.0"></path>
                </g>
                <g id="Group" transform="translate(344.000000, 0.000000)">
                    <g id="Group-3">
                        <rect id="Rectangle" fill="#6C6C6C" fill-rule="nonzero" x="0" y="0" width="21" height="20" rx="5"></rect>
                        <path d="M8.83886719,13.2509766 L4,13.2509766 L4,12.3818359 L5.84082031,10.53125 C6.38444282,9.97460659 6.74495354,9.57991653 6.92236328,9.34716797 C7.09977302,9.11441941 7.22916626,8.89550884 7.31054688,8.69042969 C7.39192749,8.48535054 7.43261719,8.26562617 7.43261719,8.03125 C7.43261719,7.70898276 7.33577571,7.45507905 7.14208984,7.26953125 C6.94840398,7.08398345 6.68066577,6.99121094 6.33886719,6.99121094 C6.06542832,6.99121094 5.80094529,7.04166616 5.54541016,7.14257812 C5.28987502,7.24349009 4.99446782,7.42577993 4.65917969,7.68945312 L4.0390625,6.93261719 C4.4361999,6.59732905 4.82193823,6.35970122 5.19628906,6.21972656 C5.57063989,6.0797519 5.96939893,6.00976562 6.39257812,6.00976562 C7.05664395,6.00976562 7.58886519,6.18310374 7.98925781,6.52978516 C8.38965044,6.87646658 8.58984375,7.34277051 8.58984375,7.92871094 C8.58984375,8.25097817 8.53206438,8.5569647 8.41650391,8.84667969 C8.30094343,9.13639468 8.12353635,9.43505706 7.88427734,9.74267578 C7.64501833,10.0502945 7.2470731,10.4661432 6.69042969,10.9902344 L5.45019531,12.1914062 L5.45019531,12.2402344 L8.83886719,12.2402344 L8.83886719,13.2509766 Z M9.91796875,12.640625 C9.91796875,12.4029936 9.97981709,12.2207038 10.1035156,12.09375 C10.2272142,11.9667962 10.4062488,11.9033203 10.640625,11.9033203 C10.8782564,11.9033203 11.0589187,11.9692376 11.1826172,12.1010742 C11.3063157,12.2329108 11.3681641,12.4127593 11.3681641,12.640625 C11.3681641,12.8717459 11.3055019,13.0548496 11.1801758,13.1899414 C11.0548496,13.3250332 10.8750012,13.3925781 10.640625,13.3925781 C10.4062488,13.3925781 10.2272142,13.325847 10.1035156,13.1923828 C9.97981709,13.0589186 9.91796875,12.8750012 9.91796875,12.640625 Z M17.2958984,9.68164062 C17.2958984,10.9218812 17.0965189,11.8430959 16.6977539,12.4453125 C16.2989889,13.0475291 15.6894572,13.3486328 14.8691406,13.3486328 C14.0748658,13.3486328 13.4726583,13.0377635 13.0625,12.4160156 C12.6523417,11.7942677 12.4472656,10.8828185 12.4472656,9.68164062 C12.4472656,8.4218687 12.6466451,7.49332981 13.0454102,6.89599609 C13.4441752,6.29866238 14.0520792,6 14.8691406,6 C15.6666707,6 16.2705058,6.31249688 16.6806641,6.9375 C17.0908224,7.56250312 17.2958984,8.47720752 17.2958984,9.68164062 Z M13.609375,9.68164062 C13.609375,10.6549528 13.7094717,11.3499328 13.909668,11.7666016 C14.1098643,12.1832703 14.4296853,12.3916016 14.8691406,12.3916016 C15.3085959,12.3916016 15.6300446,12.1800151 15.8334961,11.7568359 C16.0369476,11.3336567 16.1386719,10.6419319 16.1386719,9.68164062 C16.1386719,8.72460459 16.0369476,8.03206594 15.8334961,7.60400391 C15.6300446,7.17594187 15.3085959,6.96191406 14.8691406,6.96191406 C14.4296853,6.96191406 14.1098643,7.1718729 13.909668,7.59179688 C13.7094717,8.01172085 13.609375,8.70832847 13.609375,9.68164062 Z" id="2.0" fill="#FFFFFF"></path>
                    </g>
                </g>
                <g id="Group-2" transform="translate(377.000000, 0.000000)">
                    <rect id="Rectangle" fill="#6C6C6C" fill-rule="nonzero" x="0" y="0" width="21" height="20" rx="5"></rect>
                    <path d="M8.83886719,13.2412109 L4,13.2412109 L4,12.3720703 L5.84082031,10.5214844 C6.38444282,9.96484097 6.74495354,9.5701509 6.92236328,9.33740234 C7.09977302,9.10465378 7.22916626,8.88574321 7.31054688,8.68066406 C7.39192749,8.47558491 7.43261719,8.25586055 7.43261719,8.02148438 C7.43261719,7.69921714 7.33577571,7.44531343 7.14208984,7.25976562 C6.94840398,7.07421782 6.68066577,6.98144531 6.33886719,6.98144531 C6.06542832,6.98144531 5.80094529,7.03190054 5.54541016,7.1328125 C5.28987502,7.23372446 4.99446782,7.41601431 4.65917969,7.6796875 L4.0390625,6.92285156 C4.4361999,6.58756343 4.82193823,6.3499356 5.19628906,6.20996094 C5.57063989,6.06998628 5.96939893,6 6.39257812,6 C7.05664395,6 7.58886519,6.17333811 7.98925781,6.52001953 C8.38965044,6.86670095 8.58984375,7.33300488 8.58984375,7.91894531 C8.58984375,8.24121255 8.53206438,8.54719907 8.41650391,8.83691406 C8.30094343,9.12662905 8.12353635,9.42529143 7.88427734,9.73291016 C7.64501833,10.0405289 7.2470731,10.4563776 6.69042969,10.9804688 L5.45019531,12.1816406 L5.45019531,12.2304688 L8.83886719,12.2304688 L8.83886719,13.2412109 Z M9.91796875,12.6308594 C9.91796875,12.393228 9.97981709,12.2109381 10.1035156,12.0839844 C10.2272142,11.9570306 10.4062488,11.8935547 10.640625,11.8935547 C10.8782564,11.8935547 11.0589187,11.959472 11.1826172,12.0913086 C11.3063157,12.2231452 11.3681641,12.4029937 11.3681641,12.6308594 C11.3681641,12.8619803 11.3055019,13.045084 11.1801758,13.1801758 C11.0548496,13.3152676 10.8750012,13.3828125 10.640625,13.3828125 C10.4062488,13.3828125 10.2272142,13.3160814 10.1035156,13.1826172 C9.97981709,13.049153 9.91796875,12.8652355 9.91796875,12.6308594 Z M14.8789062,8.78320312 C15.5983109,8.78320312 16.1679667,8.97363091 16.5878906,9.35449219 C17.0078146,9.73535347 17.2177734,10.254554 17.2177734,10.9121094 C17.2177734,11.6738319 16.9793318,12.2687153 16.5024414,12.6967773 C16.025551,13.1248394 15.3476606,13.3388672 14.46875,13.3388672 C13.67122,13.3388672 13.0445986,13.2102877 12.5888672,12.953125 L12.5888672,11.9130859 C12.8525404,12.0628263 13.1552717,12.178385 13.4970703,12.2597656 C13.8388689,12.3411462 14.1562485,12.3818359 14.4492188,12.3818359 C14.9667995,12.3818359 15.3606757,12.2662772 15.6308594,12.0351562 C15.901043,11.8040353 16.0361328,11.465497 16.0361328,11.0195312 C16.0361328,10.1666624 15.4925185,9.74023438 14.4052734,9.74023438 C14.2522779,9.74023438 14.0634777,9.75569646 13.8388672,9.78662109 C13.6142567,9.81754573 13.4173186,9.85253887 13.2480469,9.89160156 L12.7353516,9.58886719 L13.0087891,6.10253906 L16.7197266,6.10253906 L16.7197266,7.12304688 L14.0195312,7.12304688 L13.8583984,8.890625 C13.9723313,8.87109365 14.1114901,8.84830742 14.2758789,8.82226562 C14.4402677,8.79622383 14.6412749,8.78320312 14.8789062,8.78320312 Z" id="2.5" fill="#FFFFFF"></path>
                </g>
                <path d="M280,31.6666667 L383,31.6666667" id="Line-2" stroke="#EFBB39" stroke-width="4" stroke-linecap="square" fill-rule="nonzero"></path>
                <path d="M32,31.6666667 L286,31.6666667" id="Line-2" stroke="#33E9B6" stroke-width="4" stroke-linecap="square" fill-rule="nonzero"></path>
                <path d="M387,32.2222222 L441.958994,32.2222222" id="Line-2" stroke="#E96A6A" stroke-width="4" stroke-linecap="square" fill-rule="nonzero"></path>
                <path d="M29.5,49.5 L29.5,230.5" id="Line" stroke="#979797" stroke-linecap="square" fill-rule="nonzero"></path>
                <circle id="Oval" stroke="#97DBF9" stroke-width="2" fill="#FFFFFF" fill-rule="nonzero" cx="355.5" cy="31.5" r="5.5"></circle>
                <circle id="Oval" stroke="#97DBF9" stroke-width="2" fill="#FFFFFF" fill-rule="nonzero" cx="387.5" cy="31.5" r="5.5"></circle>
                <path d="M443,231 L30,231" id="Line" stroke="#979797" stroke-linecap="square" fill-rule="nonzero"></path>
                <g id="|" transform="translate(58.000000, 231.000000)" fill-rule="nonzero" stroke="#979797" stroke-linecap="square">
                    <path d="M0.5,0.428571429 L0.5,5.57142857" id="Line-12"></path>
                    <path d="M31.5,0.428571429 L31.5,5.57142857" id="Line-12"></path>
                    <path d="M62.5,0.428571429 L62.5,5.57142857" id="Line-12"></path>
                    <path d="M93.5,0.428571429 L93.5,5.57142857" id="Line-12"></path>
                    <path d="M125.5,0.428571429 L125.5,5.57142857" id="Line-12"></path>
                    <path d="M156.5,0.428571429 L156.5,5.57142857" id="Line-12"></path>
                    <path d="M187.5,0.428571429 L187.5,5.57142857" id="Line-12"></path>
                    <path d="M218.5,0.428571429 L218.5,5.57142857" id="Line-12"></path>
                    <path d="M249.5,0.428571429 L249.5,5.57142857" id="Line-12"></path>
                    <path d="M280.5,0.428571429 L280.5,5.57142857" id="Line-12"></path>
                    <path d="M312.5,0.428571429 L312.5,5.57142857" id="Line-12"></path>
                    <path d="M343.5,0.428571429 L343.5,5.57142857" id="Line-12"></path>
                    <path d="M374.5,0.428571429 L374.5,5.57142857" id="Line-12"></path>
                </g>
                <g id="hoz" transform="translate(26.000000, 55.000000)" fill-rule="nonzero" opacity="0.341852679" stroke="#979797" stroke-linecap="square">
                    <path d="M0.518610422,156.5 L417.48139,156.5" id="Line-15"></path>
                    <path d="M0.518610422,137.5 L417.48139,137.5" id="Line-15"></path>
                    <path d="M0.518610422,117.5 L417.48139,117.5" id="Line-15"></path>
                    <path d="M0.518610422,98.5 L417.48139,98.5" id="Line-15"></path>
                    <path d="M0.518610422,78.5 L417.48139,78.5" id="Line-15"></path>
                    <path d="M0.518610422,59.5 L417.48139,59.5" id="Line-15"></path>
                    <path d="M0.518610422,39.5 L417.48139,39.5" id="Line-15"></path>
                    <path d="M0.518610422,20.5 L417.48139,20.5" id="Line-15"></path>
                    <path d="M0.518610422,0.5 L417.48139,0.5" id="Line-15"></path>
                </g>
                <path d="M355.5,37.5 L355.5,230.5" id="Line-16" stroke="#3C3C3C" stroke-linecap="square" stroke-dasharray="2" fill-rule="nonzero"></path>
                <path d="M386.5,37.5 L386.5,230.5" id="Line-16" stroke="#3C3C3C" stroke-linecap="square" stroke-dasharray="2" fill-rule="nonzero"></path>
                <path d="M230.5,230.5 L230.5,65.5" id="Line-17" stroke="#070707" stroke-linecap="square" fill-rule="nonzero"></path>
                <path d="M50,229.942014 C71.0574065,230.624081 89.8335824,225.289004 106.328527,213.93678 C122.823473,202.584557 140.633892,182.865324 159.759787,154.779082 L185.999196,114.544092 C202.192781,89.5146974 216.739394,77 229.639035,77 C242.538676,77 260.133238,93.8445818 282.422719,127.533746 C302.384014,158.401204 315.268236,177.081763 321.075388,183.575422 C329.786115,193.31591 352.594217,229.942014 421.5,229.942014" id="Path-33" stroke="#4EB8E7" stroke-width="2" fill-rule="nonzero"></path>
                <path d="M33.8701172,14.4799805 C33.8701172,15.3051799 33.5717803,15.9526344 32.9750977,16.4223633 C32.378415,16.8920922 31.5553438,17.1269531 30.5058594,17.1269531 C29.456375,17.1269531 28.5973341,16.9640316 27.9287109,16.6381836 L27.9287109,15.2036133 C28.3518901,15.4025075 28.8015113,15.5590815 29.2775879,15.6733398 C29.7536645,15.7875982 30.1969381,15.8447266 30.6074219,15.8447266 C31.2083363,15.8447266 31.6516099,15.7304699 31.9372559,15.5019531 C32.2229018,15.2734364 32.3657227,14.966636 32.3657227,14.581543 C32.3657227,14.234536 32.2345391,13.9404309 31.972168,13.6992188 C31.7097969,13.4580066 31.1681356,13.1723649 30.347168,12.8422852 C29.5008096,12.49951 28.9041358,12.1080751 28.5571289,11.6679688 C28.210122,11.2278624 28.0366211,10.6988963 28.0366211,10.0810547 C28.0366211,9.30663675 28.3116834,8.69726785 28.8618164,8.25292969 C29.4119494,7.80859153 30.150386,7.58642578 31.0771484,7.58642578 C31.9658248,7.58642578 32.850256,7.78108529 33.7304688,8.17041016 L33.2480469,9.40820312 C32.4228474,9.06119618 31.6865267,8.88769531 31.0390625,8.88769531 C30.5481746,8.88769531 30.1757825,8.99454646 29.921875,9.20825195 C29.6679675,9.42195745 29.5410156,9.70442533 29.5410156,10.0556641 C29.5410156,10.2968762 29.5917964,10.503173 29.6933594,10.6745605 C29.7949224,10.8459481 29.9620757,11.0078117 30.1948242,11.1601562 C30.4275728,11.3125008 30.8465139,11.5135079 31.4516602,11.7631836 C32.1329787,12.0467137 32.6323226,12.3111967 32.949707,12.5566406 C33.2670914,12.8020846 33.4998365,13.0792628 33.6479492,13.3881836 C33.7960619,13.6971044 33.8701172,14.0610331 33.8701172,14.4799805 Z M38.1230469,15.9208984 C38.486981,15.9208984 38.8509096,15.8637701 39.2148438,15.7495117 L39.2148438,16.8730469 C39.0498039,16.9449873 38.8371595,17.0052895 38.5769043,17.0539551 C38.3166491,17.1026207 38.0468764,17.1269531 37.7675781,17.1269531 C36.3541596,17.1269531 35.6474609,16.3821689 35.6474609,14.8925781 L35.6474609,11.109375 L34.6889648,11.109375 L34.6889648,10.4492188 L35.7172852,9.90332031 L36.2250977,8.41796875 L37.1455078,8.41796875 L37.1455078,9.97949219 L39.1450195,9.97949219 L39.1450195,11.109375 L37.1455078,11.109375 L37.1455078,14.8671875 C37.1455078,15.2268898 37.235432,15.4924308 37.4152832,15.6638184 C37.5951344,15.8352059 37.8310532,15.9208984 38.1230469,15.9208984 Z M45.0102539,17 L44.7119141,16.0224609 L44.6611328,16.0224609 C44.3225895,16.4498719 43.9819353,16.7408033 43.6391602,16.8952637 C43.296385,17.0497241 42.8562852,17.1269531 42.3188477,17.1269531 C41.6290656,17.1269531 41.0905781,16.9407571 40.7033691,16.5683594 C40.3161602,16.1959617 40.1225586,15.6691115 40.1225586,14.987793 C40.1225586,14.2641565 40.3912734,13.7182636 40.9287109,13.3500977 C41.4661485,12.9819318 42.284988,12.7809246 43.3852539,12.7470703 L44.5976562,12.7089844 L44.5976562,12.3344727 C44.5976562,11.8859027 44.492921,11.5505382 44.2834473,11.3283691 C44.0739736,11.1062001 43.7491884,10.9951172 43.309082,10.9951172 C42.9493797,10.9951172 42.6044938,11.0480138 42.2744141,11.1538086 C41.9443343,11.2596034 41.6269546,11.3844394 41.3222656,11.5283203 L40.8398438,10.4619141 C41.220705,10.2630198 41.6375303,10.1117355 42.090332,10.0080566 C42.5431338,9.90437774 42.9705384,9.85253906 43.3725586,9.85253906 C44.2654667,9.85253906 44.9393695,10.0471986 45.3942871,10.4365234 C45.8492047,10.8258483 46.0766602,11.4373331 46.0766602,12.2709961 L46.0766602,17 L45.0102539,17 Z M42.7885742,15.984375 C43.3302436,15.984375 43.7650537,15.8330907 44.0930176,15.5305176 C44.4209815,15.2279445 44.5849609,14.8037137 44.5849609,14.2578125 L44.5849609,13.6484375 L43.6835938,13.6865234 C42.9811163,13.7119142 42.4701351,13.8293447 42.1506348,14.0388184 C41.8311345,14.2482921 41.6713867,14.5688455 41.6713867,15.0004883 C41.6713867,15.3136409 41.7644847,15.5559073 41.9506836,15.7272949 C42.1368824,15.8986825 42.4161765,15.984375 42.7885742,15.984375 Z M54.3349609,17 L52.8369141,17 L52.8369141,12.6835938 C52.8369141,12.1419244 52.7279471,11.7377943 52.5100098,11.4711914 C52.2920725,11.2045885 51.9461287,11.0712891 51.472168,11.0712891 C50.841631,11.0712891 50.3803726,11.2574851 50.0883789,11.6298828 C49.7963853,12.0022805 49.6503906,12.6264605 49.6503906,13.5024414 L49.6503906,17 L48.1586914,17 L48.1586914,9.97949219 L49.3266602,9.97949219 L49.5361328,10.8999023 L49.6123047,10.8999023 C49.8238943,10.5655908 50.124347,10.3074553 50.5136719,10.1254883 C50.9029967,9.94352123 51.334633,9.85253906 51.8085938,9.85253906 C53.492847,9.85253906 54.3349609,10.7094641 54.3349609,12.4233398 L54.3349609,17 Z M58.7783203,17.1269531 C57.9023394,17.1269531 57.2189152,16.8095735 56.7280273,16.1748047 C56.2371395,15.5400359 55.9916992,14.649257 55.9916992,13.5024414 C55.9916992,12.351394 56.2403133,11.4553255 56.7375488,10.814209 C57.2347844,10.1730925 57.9234982,9.85253906 58.8037109,9.85253906 C59.7262416,9.85253906 60.4287085,10.1931932 60.9111328,10.8745117 L60.9873047,10.8745117 C60.9153642,10.3709285 60.8793945,9.97314599 60.8793945,9.68115234 L60.8793945,7.12304688 L62.3774414,7.12304688 L62.3774414,17 L61.2094727,17 L60.9492188,16.0795898 L60.8793945,16.0795898 C60.401202,16.7778355 59.700851,17.1269531 58.7783203,17.1269531 Z M59.1782227,15.9208984 C59.7918325,15.9208984 60.2382799,15.7484555 60.5175781,15.4035645 C60.7968764,15.0586734 60.9407552,14.4990273 60.9492188,13.7246094 L60.9492188,13.5151367 C60.9492188,12.6306922 60.80534,12.0022805 60.5175781,11.6298828 C60.2298163,11.2574851 59.7791372,11.0712891 59.1655273,11.0712891 C58.6407851,11.0712891 58.2366551,11.2839334 57.953125,11.7092285 C57.6695949,12.1345236 57.527832,12.7407187 57.527832,13.527832 C57.527832,14.3064818 57.6653632,14.8999817 57.9404297,15.3083496 C58.2154962,15.7167175 58.6280897,15.9208984 59.1782227,15.9208984 Z M68.902832,17 L68.6044922,16.0224609 L68.5537109,16.0224609 C68.2151676,16.4498719 67.8745134,16.7408033 67.5317383,16.8952637 C67.1889631,17.0497241 66.7488634,17.1269531 66.2114258,17.1269531 C65.5216437,17.1269531 64.9831562,16.9407571 64.5959473,16.5683594 C64.2087383,16.1959617 64.0151367,15.6691115 64.0151367,14.987793 C64.0151367,14.2641565 64.2838515,13.7182636 64.8212891,13.3500977 C65.3587266,12.9819318 66.1775661,12.7809246 67.277832,12.7470703 L68.4902344,12.7089844 L68.4902344,12.3344727 C68.4902344,11.8859027 68.3854991,11.5505382 68.1760254,11.3283691 C67.9665517,11.1062001 67.6417665,10.9951172 67.2016602,10.9951172 C66.8419578,10.9951172 66.497072,11.0480138 66.1669922,11.1538086 C65.8369124,11.2596034 65.5195328,11.3844394 65.2148438,11.5283203 L64.7324219,10.4619141 C65.1132832,10.2630198 65.5301084,10.1117355 65.9829102,10.0080566 C66.4357119,9.90437774 66.8631165,9.85253906 67.2651367,9.85253906 C68.1580448,9.85253906 68.8319476,10.0471986 69.2868652,10.4365234 C69.7417829,10.8258483 69.9692383,11.4373331 69.9692383,12.2709961 L69.9692383,17 L68.902832,17 Z M66.6811523,15.984375 C67.2228217,15.984375 67.6576318,15.8330907 67.9855957,15.5305176 C68.3135596,15.2279445 68.4775391,14.8037137 68.4775391,14.2578125 L68.4775391,13.6484375 L67.5761719,13.6865234 C66.8736944,13.7119142 66.3627132,13.8293447 66.0432129,14.0388184 C65.7237126,14.2482921 65.5639648,14.5688455 65.5639648,15.0004883 C65.5639648,15.3136409 65.6570629,15.5559073 65.8432617,15.7272949 C66.0294606,15.8986825 66.3087546,15.984375 66.6811523,15.984375 Z M75.6123047,9.85253906 C75.9127619,9.85253906 76.160318,9.87369771 76.3549805,9.91601562 L76.2089844,11.3061523 C75.9973948,11.2553708 75.7773449,11.2299805 75.5488281,11.2299805 C74.9521455,11.2299805 74.4686705,11.42464 74.0983887,11.8139648 C73.7281069,12.2032897 73.5429688,12.7089813 73.5429688,13.3310547 L73.5429688,17 L72.0512695,17 L72.0512695,9.97949219 L73.2192383,9.97949219 L73.4160156,11.2172852 L73.4921875,11.2172852 C73.7249361,10.7983377 74.0285626,10.4661471 74.4030762,10.2207031 C74.7775898,9.97525919 75.1806619,9.85253906 75.6123047,9.85253906 Z M80.0239258,17.1269531 C79.1479448,17.1269531 78.4645207,16.8095735 77.9736328,16.1748047 C77.4827449,15.5400359 77.2373047,14.649257 77.2373047,13.5024414 C77.2373047,12.351394 77.4859187,11.4553255 77.9831543,10.814209 C78.4803899,10.1730925 79.1691037,9.85253906 80.0493164,9.85253906 C80.9718471,9.85253906 81.674314,10.1931932 82.1567383,10.8745117 L82.2329102,10.8745117 C82.1609697,10.3709285 82.125,9.97314599 82.125,9.68115234 L82.125,7.12304688 L83.6230469,7.12304688 L83.6230469,17 L82.4550781,17 L82.1948242,16.0795898 L82.125,16.0795898 C81.6468075,16.7778355 80.9464564,17.1269531 80.0239258,17.1269531 Z M80.4238281,15.9208984 C81.037438,15.9208984 81.4838853,15.7484555 81.7631836,15.4035645 C82.0424819,15.0586734 82.1863606,14.4990273 82.1948242,13.7246094 L82.1948242,13.5151367 C82.1948242,12.6306922 82.0509454,12.0022805 81.7631836,11.6298828 C81.4754217,11.2574851 81.0247427,11.0712891 80.4111328,11.0712891 C79.8863906,11.0712891 79.4822605,11.2839334 79.1987305,11.7092285 C78.9152004,12.1345236 78.7734375,12.7407187 78.7734375,13.527832 C78.7734375,14.3064818 78.9109687,14.8999817 79.1860352,15.3083496 C79.4611016,15.7167175 79.8736952,15.9208984 80.4238281,15.9208984 Z M91.5004883,17.1269531 C90.6245073,17.1269531 89.9410832,16.8095735 89.4501953,16.1748047 C88.9593074,15.5400359 88.7138672,14.649257 88.7138672,13.5024414 C88.7138672,12.351394 88.9624812,11.4553255 89.4597168,10.814209 C89.9569524,10.1730925 90.6456662,9.85253906 91.5258789,9.85253906 C92.4484096,9.85253906 93.1508765,10.1931932 93.6333008,10.8745117 L93.7094727,10.8745117 C93.6375322,10.3709285 93.6015625,9.97314599 93.6015625,9.68115234 L93.6015625,7.12304688 L95.0996094,7.12304688 L95.0996094,17 L93.9316406,17 L93.6713867,16.0795898 L93.6015625,16.0795898 C93.12337,16.7778355 92.4230189,17.1269531 91.5004883,17.1269531 Z M91.9003906,15.9208984 C92.5140005,15.9208984 92.9604478,15.7484555 93.2397461,15.4035645 C93.5190444,15.0586734 93.6629231,14.4990273 93.6713867,13.7246094 L93.6713867,13.5151367 C93.6713867,12.6306922 93.5275079,12.0022805 93.2397461,11.6298828 C92.9519842,11.2574851 92.5013052,11.0712891 91.8876953,11.0712891 C91.3629531,11.0712891 90.958823,11.2839334 90.675293,11.7092285 C90.3917629,12.1345236 90.25,12.7407187 90.25,13.527832 C90.25,14.3064818 90.3875312,14.8999817 90.6625977,15.3083496 C90.9376641,15.7167175 91.3502577,15.9208984 91.9003906,15.9208984 Z M100.29834,17.1269531 C99.2065375,17.1269531 98.3527863,16.8085156 97.7370605,16.1716309 C97.1213348,15.5347462 96.8134766,14.6577204 96.8134766,13.5405273 C96.8134766,12.3937117 97.0991182,11.4923535 97.6704102,10.8364258 C98.2417021,10.180498 99.0266877,9.85253906 100.025391,9.85253906 C100.952153,9.85253906 101.684242,10.133949 102.22168,10.6967773 C102.759117,11.2596057 103.027832,12.034012 103.027832,13.0200195 L103.027832,13.8261719 L98.3496094,13.8261719 C98.3707683,14.5074904 98.5548485,15.0311668 98.9018555,15.3972168 C99.2488624,15.7632668 99.7376271,15.9462891 100.368164,15.9462891 C100.78288,15.9462891 101.169025,15.9071456 101.526611,15.8288574 C101.884198,15.7505693 102.268227,15.6204436 102.678711,15.4384766 L102.678711,16.6508789 C102.314777,16.8243824 101.946616,16.9471025 101.574219,17.019043 C101.201821,17.0909834 100.776532,17.1269531 100.29834,17.1269531 Z M100.025391,10.9824219 C99.5514299,10.9824219 99.1716323,11.1326482 98.8859863,11.4331055 C98.6003404,11.7335627 98.4300133,12.1715466 98.375,12.7470703 L101.561523,12.7470703 C101.55306,12.1673148 101.413413,11.728273 101.142578,11.4299316 C100.871743,11.1315903 100.499351,10.9824219 100.025391,10.9824219 Z M106.322266,17 L103.65625,9.97949219 L105.230469,9.97949219 L106.658691,14.0610352 C106.904135,14.7465855 107.052246,15.3009419 107.103027,15.7241211 L107.153809,15.7241211 C107.191895,15.4194321 107.340005,14.8650756 107.598145,14.0610352 L109.026367,9.97949219 L110.613281,9.97949219 L107.93457,17 L106.322266,17 Z M113.171387,17 L111.679688,17 L111.679688,9.97949219 L113.171387,9.97949219 L113.171387,17 Z M111.59082,8.11962891 C111.59082,7.85302601 111.663818,7.64778718 111.809814,7.50390625 C111.955811,7.36002532 112.164224,7.28808594 112.435059,7.28808594 C112.69743,7.28808594 112.901611,7.36002532 113.047607,7.50390625 C113.193604,7.64778718 113.266602,7.85302601 113.266602,8.11962891 C113.266602,8.37353643 113.193604,8.5734856 113.047607,8.71948242 C112.901611,8.86547925 112.69743,8.93847656 112.435059,8.93847656 C112.164224,8.93847656 111.955811,8.86547925 111.809814,8.71948242 C111.663818,8.5734856 111.59082,8.37353643 111.59082,8.11962891 Z M119.696777,17 L119.398438,16.0224609 L119.347656,16.0224609 C119.009113,16.4498719 118.668459,16.7408033 118.325684,16.8952637 C117.982908,17.0497241 117.542809,17.1269531 117.005371,17.1269531 C116.315589,17.1269531 115.777102,16.9407571 115.389893,16.5683594 C115.002684,16.1959617 114.809082,15.6691115 114.809082,14.987793 C114.809082,14.2641565 115.077797,13.7182636 115.615234,13.3500977 C116.152672,12.9819318 116.971511,12.7809246 118.071777,12.7470703 L119.28418,12.7089844 L119.28418,12.3344727 C119.28418,11.8859027 119.179444,11.5505382 118.969971,11.3283691 C118.760497,11.1062001 118.435712,10.9951172 117.995605,10.9951172 C117.635903,10.9951172 117.291017,11.0480138 116.960938,11.1538086 C116.630858,11.2596034 116.313478,11.3844394 116.008789,11.5283203 L115.526367,10.4619141 C115.907228,10.2630198 116.324054,10.1117355 116.776855,10.0080566 C117.229657,9.90437774 117.657062,9.85253906 118.059082,9.85253906 C118.95199,9.85253906 119.625893,10.0471986 120.080811,10.4365234 C120.535728,10.8258483 120.763184,11.4373331 120.763184,12.2709961 L120.763184,17 L119.696777,17 Z M117.475098,15.984375 C118.016767,15.984375 118.451577,15.8330907 118.779541,15.5305176 C119.107505,15.2279445 119.271484,14.8037137 119.271484,14.2578125 L119.271484,13.6484375 L118.370117,13.6865234 C117.66764,13.7119142 117.156658,13.8293447 116.837158,14.0388184 C116.517658,14.2482921 116.35791,14.5688455 116.35791,15.0004883 C116.35791,15.3136409 116.451008,15.5559073 116.637207,15.7272949 C116.823406,15.8986825 117.1027,15.984375 117.475098,15.984375 Z M125.460449,15.9208984 C125.824383,15.9208984 126.188312,15.8637701 126.552246,15.7495117 L126.552246,16.8730469 C126.387206,16.9449873 126.174562,17.0052895 125.914307,17.0539551 C125.654051,17.1026207 125.384279,17.1269531 125.10498,17.1269531 C123.691562,17.1269531 122.984863,16.3821689 122.984863,14.8925781 L122.984863,11.109375 L122.026367,11.109375 L122.026367,10.4492188 L123.054688,9.90332031 L123.5625,8.41796875 L124.48291,8.41796875 L124.48291,9.97949219 L126.482422,9.97949219 L126.482422,11.109375 L124.48291,11.109375 L124.48291,14.8671875 C124.48291,15.2268898 124.572834,15.4924308 124.752686,15.6638184 C124.932537,15.8352059 125.168456,15.9208984 125.460449,15.9208984 Z M129.446777,17 L127.955078,17 L127.955078,9.97949219 L129.446777,9.97949219 L129.446777,17 Z M127.866211,8.11962891 C127.866211,7.85302601 127.939208,7.64778718 128.085205,7.50390625 C128.231202,7.36002532 128.439615,7.28808594 128.710449,7.28808594 C128.97282,7.28808594 129.177001,7.36002532 129.322998,7.50390625 C129.468995,7.64778718 129.541992,7.85302601 129.541992,8.11962891 C129.541992,8.37353643 129.468995,8.5734856 129.322998,8.71948242 C129.177001,8.86547925 128.97282,8.93847656 128.710449,8.93847656 C128.439615,8.93847656 128.231202,8.86547925 128.085205,8.71948242 C127.939208,8.5734856 127.866211,8.37353643 127.866211,8.11962891 Z M137.806641,13.4770508 C137.806641,14.6238664 137.512535,15.518877 136.924316,16.1621094 C136.336097,16.8053418 135.517258,17.1269531 134.467773,17.1269531 C133.811846,17.1269531 133.232099,16.9788426 132.728516,16.6826172 C132.224932,16.3863917 131.837729,15.961103 131.566895,15.4067383 C131.29606,14.8523735 131.160645,14.2091508 131.160645,13.4770508 C131.160645,12.3386987 131.452634,11.4500357 132.036621,10.8110352 C132.620608,10.1720346 133.44368,9.85253906 134.505859,9.85253906 C135.521489,9.85253906 136.325518,10.1794401 136.917969,10.833252 C137.51042,11.4870638 137.806641,12.3683213 137.806641,13.4770508 Z M132.696777,13.4770508 C132.696777,15.0978271 133.295567,15.9082031 134.493164,15.9082031 C135.678066,15.9082031 136.270508,15.0978271 136.270508,13.4770508 C136.270508,11.8732016 135.673834,11.0712891 134.480469,11.0712891 C133.854164,11.0712891 133.400311,11.2786438 133.118896,11.6933594 C132.837482,12.108075 132.696777,12.7026328 132.696777,13.4770508 Z M145.696777,17 L144.19873,17 L144.19873,12.6835938 C144.19873,12.1419244 144.089763,11.7377943 143.871826,11.4711914 C143.653889,11.2045885 143.307945,11.0712891 142.833984,11.0712891 C142.203447,11.0712891 141.742189,11.2574851 141.450195,11.6298828 C141.158202,12.0022805 141.012207,12.6264605 141.012207,13.5024414 L141.012207,17 L139.520508,17 L139.520508,9.97949219 L140.688477,9.97949219 L140.897949,10.8999023 L140.974121,10.8999023 C141.185711,10.5655908 141.486163,10.3074553 141.875488,10.1254883 C142.264813,9.94352123 142.696449,9.85253906 143.17041,9.85253906 C144.854663,9.85253906 145.696777,10.7094641 145.696777,12.4233398 L145.696777,17 Z" id="Standard-deviation" fill="#3E3E3E"></path>
                <path d="M217.011719,272.280273 L214.320312,264.529785 L214.269531,264.529785 C214.341472,265.680833 214.377441,266.759923 214.377441,267.76709 L214.377441,272.280273 L213,272.280273 L213,263 L215.13916,263 L217.716309,270.382324 L217.754395,270.382324 L220.407715,263 L222.553223,263 L222.553223,272.280273 L221.093262,272.280273 L221.093262,267.690918 C221.093262,267.229653 221.104899,266.628747 221.128174,265.888184 C221.151449,265.14762 221.171549,264.699057 221.188477,264.54248 L221.137695,264.54248 L218.351074,272.280273 L217.011719,272.280273 Z M227.904297,272.407227 C226.812495,272.407227 225.958743,272.088789 225.343018,271.451904 C224.727292,270.81502 224.419434,269.937994 224.419434,268.820801 C224.419434,267.673985 224.705075,266.772627 225.276367,266.116699 C225.847659,265.460771 226.632645,265.132812 227.631348,265.132812 C228.55811,265.132812 229.290199,265.414222 229.827637,265.977051 C230.365074,266.539879 230.633789,267.314285 230.633789,268.300293 L230.633789,269.106445 L225.955566,269.106445 C225.976725,269.787764 226.160806,270.31144 226.507812,270.67749 C226.854819,271.04354 227.343584,271.226562 227.974121,271.226562 C228.388837,271.226562 228.774982,271.187419 229.132568,271.109131 C229.490155,271.030843 229.874184,270.900717 230.284668,270.71875 L230.284668,271.931152 C229.920734,272.104656 229.552573,272.227376 229.180176,272.299316 C228.807778,272.371257 228.382489,272.407227 227.904297,272.407227 Z M227.631348,266.262695 C227.157387,266.262695 226.777589,266.412922 226.491943,266.713379 C226.206297,267.013836 226.03597,267.45182 225.980957,268.027344 L229.16748,268.027344 C229.159017,267.447588 229.01937,267.008546 228.748535,266.710205 C228.4777,266.411864 228.105308,266.262695 227.631348,266.262695 Z M236.721191,272.280273 L236.422852,271.302734 L236.37207,271.302734 C236.033527,271.730145 235.692873,272.021077 235.350098,272.175537 C235.007323,272.329998 234.567223,272.407227 234.029785,272.407227 C233.340003,272.407227 232.801516,272.221031 232.414307,271.848633 C232.027098,271.476235 231.833496,270.949385 231.833496,270.268066 C231.833496,269.54443 232.102211,268.998537 232.639648,268.630371 C233.177086,268.262205 233.995925,268.061198 235.096191,268.027344 L236.308594,267.989258 L236.308594,267.614746 C236.308594,267.166176 236.203858,266.830812 235.994385,266.608643 C235.784911,266.386473 235.460126,266.275391 235.02002,266.275391 C234.660317,266.275391 234.315431,266.328287 233.985352,266.434082 C233.655272,266.539877 233.337892,266.664713 233.033203,266.808594 L232.550781,265.742188 C232.931643,265.543293 233.348468,265.392009 233.80127,265.28833 C234.254071,265.184651 234.681476,265.132812 235.083496,265.132812 C235.976404,265.132812 236.650307,265.327472 237.105225,265.716797 C237.560142,266.106122 237.787598,266.717607 237.787598,267.55127 L237.787598,272.280273 L236.721191,272.280273 Z M234.499512,271.264648 C235.041181,271.264648 235.475991,271.113364 235.803955,270.810791 C236.131919,270.508218 236.295898,270.083987 236.295898,269.538086 L236.295898,268.928711 L235.394531,268.966797 C234.692054,268.992188 234.181073,269.109618 233.861572,269.319092 C233.542072,269.528566 233.382324,269.849119 233.382324,270.280762 C233.382324,270.593914 233.475422,270.836181 233.661621,271.007568 C233.84782,271.178956 234.127114,271.264648 234.499512,271.264648 Z M246.045898,272.280273 L244.547852,272.280273 L244.547852,267.963867 C244.547852,267.422198 244.438885,267.018068 244.220947,266.751465 C244.00301,266.484862 243.657066,266.351562 243.183105,266.351562 C242.552568,266.351562 242.09131,266.537759 241.799316,266.910156 C241.507323,267.282554 241.361328,267.906734 241.361328,268.782715 L241.361328,272.280273 L239.869629,272.280273 L239.869629,265.259766 L241.037598,265.259766 L241.24707,266.180176 L241.323242,266.180176 C241.534832,265.845864 241.835285,265.587729 242.224609,265.405762 C242.613934,265.223795 243.045571,265.132812 243.519531,265.132812 C245.203784,265.132812 246.045898,265.989738 246.045898,267.703613 L246.045898,272.280273 Z" id="Mean" fill="#3E3E3E"></path>
                <path d="M-8.88525391,127.270996 C-8.88525391,128.802905 -9.31054262,129.974036 -10.1611328,130.784424 C-11.011723,131.594812 -12.2368084,132 -13.8364258,132 L-16.4326172,132 L-16.4326172,122.719727 L-13.5634766,122.719727 C-12.0865812,122.719727 -10.9376669,123.117509 -10.1166992,123.913086 C-9.29573157,124.708663 -8.88525391,125.827955 -8.88525391,127.270996 Z M-10.4848633,127.321777 C-10.4848633,125.100087 -11.5237526,123.989258 -13.6015625,123.989258 L-14.9155273,123.989258 L-14.9155273,130.724121 L-13.8364258,130.724121 C-11.6020396,130.724121 -10.4848633,129.590018 -10.4848633,127.321777 Z M-3.98486328,132.126953 C-5.07666562,132.126953 -5.93041684,131.808516 -6.54614258,131.171631 C-7.16186831,130.534746 -7.46972656,129.65772 -7.46972656,128.540527 C-7.46972656,127.393712 -7.18408489,126.492354 -6.61279297,125.836426 C-6.04150105,125.180498 -5.25651541,124.852539 -4.2578125,124.852539 C-3.33105005,124.852539 -2.59896102,125.133949 -2.06152344,125.696777 C-1.52408585,126.259606 -1.25537109,127.034012 -1.25537109,128.02002 L-1.25537109,128.826172 L-5.93359375,128.826172 C-5.91243479,129.50749 -5.7283546,130.031167 -5.38134766,130.397217 C-5.03434071,130.763267 -4.54557607,130.946289 -3.91503906,130.946289 C-3.50032345,130.946289 -3.11417822,130.907146 -2.7565918,130.828857 C-2.39900537,130.750569 -2.01497601,130.620444 -1.60449219,130.438477 L-1.60449219,131.650879 C-1.9684263,131.824382 -2.33658668,131.947103 -2.70898438,132.019043 C-3.08138207,132.090983 -3.50667079,132.126953 -3.98486328,132.126953 Z M-4.2578125,125.982422 C-4.7317732,125.982422 -5.11157084,126.132648 -5.3972168,126.433105 C-5.68286276,126.733563 -5.85318983,127.171547 -5.90820312,127.74707 L-2.72167969,127.74707 C-2.73014327,127.167315 -2.86979031,126.728273 -3.140625,126.429932 C-3.41145969,126.13159 -3.7838518,125.982422 -4.2578125,125.982422 Z M6.61572266,132 L5.11767578,132 L5.11767578,127.683594 C5.11767578,127.141924 5.00870877,126.737794 4.79077148,126.471191 C4.5728342,126.204589 4.22689039,126.071289 3.75292969,126.071289 C3.12239268,126.071289 2.66113427,126.257485 2.36914062,126.629883 C2.07714698,127.002281 1.93115234,127.62646 1.93115234,128.502441 L1.93115234,132 L0.439453125,132 L0.439453125,124.979492 L1.60742188,124.979492 L1.81689453,125.899902 L1.89306641,125.899902 C2.10465601,125.565591 2.40510873,125.307455 2.79443359,125.125488 C3.18375846,124.943521 3.61539477,124.852539 4.08935547,124.852539 C5.77360868,124.852539 6.61572266,125.709464 6.61572266,127.42334 L6.61572266,132 Z M13.4077148,130.000488 C13.4077148,130.686039 13.1580429,131.211831 12.6586914,131.577881 C12.15934,131.943931 11.4441778,132.126953 10.5131836,132.126953 C9.57795756,132.126953 8.82682575,131.98519 8.25976562,131.70166 L8.25976562,130.413086 C9.08496506,130.793947 9.85302379,130.984375 10.5639648,130.984375 C11.4822637,130.984375 11.9414062,130.707197 11.9414062,130.152832 C11.9414062,129.975097 11.8906255,129.826986 11.7890625,129.708496 C11.6874995,129.590006 11.5203462,129.467286 11.2875977,129.340332 C11.0548491,129.213378 10.7311219,129.0695 10.3164062,128.908691 C9.50813398,128.595539 8.96118307,128.282391 8.67553711,127.969238 C8.38989115,127.656086 8.24707031,127.24984 8.24707031,126.750488 C8.24707031,126.149574 8.48933677,125.683026 8.97387695,125.35083 C9.45841714,125.018634 10.1175089,124.852539 10.9511719,124.852539 C11.7763713,124.852539 12.5571252,125.019692 13.293457,125.354004 L12.8110352,126.477539 C12.0535444,126.164386 11.4166692,126.007812 10.9003906,126.007812 C10.1132773,126.007812 9.71972656,126.232094 9.71972656,126.680664 C9.71972656,126.900717 9.82234598,127.086913 10.0275879,127.239258 C10.2328298,127.391602 10.6803351,127.601073 11.3701172,127.867676 C11.9498727,128.091961 12.3709297,128.2972 12.6333008,128.483398 C12.8956719,128.669597 13.0903314,128.884358 13.2172852,129.127686 C13.3442389,129.371014 13.4077148,129.661945 13.4077148,130.000488 Z M16.5117188,132 L15.0200195,132 L15.0200195,124.979492 L16.5117188,124.979492 L16.5117188,132 Z M14.9311523,123.119629 C14.9311523,122.853026 15.0041497,122.647787 15.1501465,122.503906 C15.2961433,122.360025 15.5045559,122.288086 15.7753906,122.288086 C16.0377617,122.288086 16.2419426,122.360025 16.3879395,122.503906 C16.5339363,122.647787 16.6069336,122.853026 16.6069336,123.119629 C16.6069336,123.373536 16.5339363,123.573486 16.3879395,123.719482 C16.2419426,123.865479 16.0377617,123.938477 15.7753906,123.938477 C15.5045559,123.938477 15.2961433,123.865479 15.1501465,123.719482 C15.0041497,123.573486 14.9311523,123.373536 14.9311523,123.119629 Z M21.2597656,130.920898 C21.6236997,130.920898 21.9876284,130.86377 22.3515625,130.749512 L22.3515625,131.873047 C22.1865226,131.944987 21.9738783,132.005289 21.713623,132.053955 C21.4533678,132.102621 21.1835951,132.126953 20.9042969,132.126953 C19.4908783,132.126953 18.7841797,131.382169 18.7841797,129.892578 L18.7841797,126.109375 L17.8256836,126.109375 L17.8256836,125.449219 L18.8540039,124.90332 L19.3618164,123.417969 L20.2822266,123.417969 L20.2822266,124.979492 L22.2817383,124.979492 L22.2817383,126.109375 L20.2822266,126.109375 L20.2822266,129.867188 C20.2822266,130.22689 20.3721508,130.492431 20.552002,130.663818 C20.7318531,130.835206 20.967772,130.920898 21.2597656,130.920898 Z M22.6879883,124.979492 L24.3129883,124.979492 L25.7412109,128.959473 C25.9570323,129.526533 26.1009111,130.059731 26.1728516,130.559082 L26.2236328,130.559082 C26.2617189,130.326333 26.3315425,130.043866 26.4331055,129.71167 C26.5346685,129.379474 27.072098,127.802097 28.0454102,124.979492 L29.6577148,124.979492 L26.6552734,132.933105 C26.1093723,134.393074 25.1995506,135.123047 23.9257812,135.123047 C23.5957015,135.123047 23.2740901,135.087077 22.9609375,135.015137 L22.9609375,133.834473 C23.1852225,133.885254 23.4412421,133.910645 23.7290039,133.910645 C24.4484085,133.910645 24.9541001,133.493819 25.2460938,132.660156 L25.5063477,132 L22.6879883,124.979492 Z" id="Density" fill="#3E3E3E" transform="translate(6.612549, 128.705566) rotate(-90.000000) translate(-6.612549, -128.705566) "></path>
            </g>
        </g>
    </g>
</svg>