<?xml version="1.0" encoding="UTF-8"?>
<svg width="25px" height="16px" viewBox="0 0 25 16" version="1.1" xmlns="http://www.w3.org/2000/svg" xmlns:xlink="http://www.w3.org/1999/xlink">
    <!-- Generator: Sketch 46.2 (44496) - http://www.bohemiancoding.com/sketch -->
    <title>Group 2</title>
    <desc>Created with Sketch.</desc>
    <defs>
        <rect id="path-1" x="0" y="0" width="22" height="12"></rect>
    </defs>
    <g id="ExamBuilder---Collections" stroke="none" stroke-width="1" fill="none" fill-rule="evenodd">
        <g id="Artboard" transform="translate(-536.000000, -652.000000)">
            <g id="Group-2" transform="translate(536.000000, 653.000000)">
                <g id="dropdown">
                    <g id="Rectangle-782">
                        <use fill="#DBECFB" fill-rule="evenodd" xlink:href="#path-1"></use>
                        <rect stroke="#B4D2F4" stroke-width="1" x="0.5" y="0.5" width="21" height="11"></rect>
                    </g>
                    <path d="M10.5416667,0.461538462 L10.5416667,11.5384615" id="Line" stroke="#B4D2F4" stroke-linecap="square"></path>
                    <polygon id="Triangle-1" fill="#64A3EE" transform="translate(16.041667, 6.000000) rotate(-180.000000) translate(-16.041667, -6.000000) " points="18.3333333 7.38461538 13.75 7.38461538 16.0416667 4.61538462"></polygon>
                </g>
                <path d="M21.6703323,11.0300694 C21.2158809,11.0300694 20.8474752,11.4479369 20.8474752,11.9634027 L20.8474752,12.2300694 C20.8474752,12.7455351 21.2158809,13.1634027 21.6703323,13.1634027 L23.3160467,13.1634027 C23.7704981,13.1634027 24.1389038,12.7455351 24.1389038,12.2300694 L24.1389038,11.9634027 C24.1389038,11.4479369 23.7704981,11.0300694 23.3160467,11.0300694 L21.6703323,11.0300694 Z M21.6703323,10.096736 L23.3160467,10.096736 C24.2249496,10.096736 24.961761,10.9324712 24.961761,11.9634027 L24.961761,12.2300694 C24.961761,13.2610009 24.2249496,14.096736 23.3160467,14.096736 L21.6703323,14.096736 C20.7614294,14.096736 20.024618,13.2610009 20.024618,12.2300694 L20.024618,11.9634027 C20.024618,10.9324712 20.7614294,10.096736 21.6703323,10.096736 Z" id="Rectangle-2" fill="#427EC5" fill-rule="nonzero" transform="translate(22.493189, 12.096736) rotate(-271.000000) translate(-22.493189, -12.096736) "></path>
                <path d="M21.5421786,8.10765738 C21.0451223,8.10765738 20.6421786,8.52552494 20.6421786,9.04099071 L20.6421786,9.30765738 C20.6421786,9.82312314 21.0451223,10.2409907 21.5421786,10.2409907 L23.3421786,10.2409907 C23.8392349,10.2409907 24.2421786,9.82312314 24.2421786,9.30765738 L24.2421786,9.04099071 C24.2421786,8.52552494 23.8392349,8.10765738 23.3421786,8.10765738 L21.5421786,8.10765738 Z M21.5421786,7.17432404 L23.3421786,7.17432404 C24.3362912,7.17432404 25.1421787,8.01005918 25.1421787,9.04099071 L25.1421787,9.30765738 C25.1421787,10.3385889 24.3362912,11.174324 23.3421786,11.174324 L21.5421786,11.174324 C20.548066,11.174324 19.7421786,10.3385889 19.7421786,9.30765738 L19.7421786,9.04099071 C19.7421786,8.01005918 20.548066,7.17432404 21.5421786,7.17432404 Z" id="Rectangle-2" fill="#64A3EE" fill-rule="nonzero" transform="translate(22.442179, 9.174324) rotate(-271.000000) translate(-22.442179, -9.174324) "></path>
                <path d="M23.020043,11.8061403 L23.020043,12.1886151 L21.7465697,12.1886151 C20.7456966,12.1886151 19.9343287,11.4051134 19.9343287,10.4386151 L19.9343287,10.1886151 L20.8483173,10.554437 C20.9070001,10.9829392 21.2867947,11.3136151 21.7465697,11.3136151 L22.7450874,11.3136151 L23.020043,11.4236655 L22.1139225,11.4236655 L22.1139225,12.1886151 L23.020043,12.1886151 L23.020043,11.8061403 Z M23.020043,11.8061403 L23.020043,12.1886151 L21.7465697,12.1886151 C20.7456966,12.1886151 19.9343287,11.4051134 19.9343287,10.4386151 L19.9343287,10.1886151 L20.8483173,10.554437 C20.9070001,10.9829392 21.2867947,11.3136151 21.7465697,11.3136151 L22.7450874,11.3136151 L23.020043,11.3136151 L23.020043,12.1886151 L22.1139225,12.1886151 L23.020043,12.1886151 L23.020043,11.8061403 Z" id="Rectangle-2" fill="#427EC5" fill-rule="nonzero" transform="translate(21.477186, 11.188615) rotate(-271.000000) translate(-21.477186, -11.188615) "></path>
            </g>
        </g>
    </g>
</svg>