<?xml version="1.0" encoding="UTF-8"?>
<svg width="172px" height="378px" viewBox="0 0 172 378" version="1.1" xmlns="http://www.w3.org/2000/svg" xmlns:xlink="http://www.w3.org/1999/xlink">
    <!-- Generator: Sketch 51.3 (57544) - http://www.bohemiancoding.com/sketch -->
    <title>Group 3</title>
    <desc>Created with Sketch.</desc>
    <defs></defs>
    <g id="Page-1" stroke="none" stroke-width="1" fill="none" fill-rule="evenodd">
        <g id="Artboard-Copy-3" transform="translate(-717.000000, -445.000000)" fill-rule="nonzero">
            <g id="Group-3" transform="translate(717.000000, 445.000000)">
                <polygon id="Rectangle" fill="#F0BE77" points="50 76 69 76 70 98 49 98"></polygon>
                <polygon id="Oval-3" fill="#FDCC86" points="84.2334962 63.2929831 81.450627 36 57.0683353 36.079967 36 59 48.289408 84.4117777 69.9049774 84.4117777"></polygon>
                <circle id="Oval" fill="#38393D" cx="81.5" cy="24.5" r="9.5"></circle>
                <polygon id="Path-2" fill="#FDCC86" points="82 19 82 59 36 59 36 22.964405"></polygon>
                <path d="M32.7937726,4.56184297 L70.7867499,4.56184297 L70.7867499,0 L83.2815826,4.56184297 L81.2688525,24.9498524 L70.7867499,28.2286465 L47.4905246,28.2286465 C44.9941994,29.7727721 43.3878912,31.0843413 42.6715999,32.1633541 C41.9553087,33.242367 41.4967051,35.0413572 41.295789,37.5603246 L41.295789,46 L35.2810746,46 L35.2810746,32.1633541 C30.7508353,27.2246077 28.3357373,23.0909294 28.0357806,19.7623193 C27.7358239,16.4337093 29.3218212,11.3668838 32.7937726,4.56184297 Z" id="Path" fill="#38393D"></path>
                <circle id="Oval-2" fill="#FDCC86" cx="37" cy="49" r="7"></circle>
                <path d="M52,64 L76,64 C75.8247463,65.7401318 75.4366697,67.0734651 74.83577,68 C74.2348704,68.9265349 72.8934935,70.2598682 70.8116395,72 L58.5561391,72 C56.6948728,71.4802446 55.3932405,70.8498783 54.651242,70.1089012 C53.9092436,69.3679241 53.0254962,67.8159189 52,65.4528856" id="Path-3" fill="#FFFFFF"></path>
                <g id="Group" transform="translate(24.000000, 54.000000)" fill="#38393D">
                    <polygon id="Path-4" points="77.8310113 4.52777107 88.8526728 41.2528393 53.4732143 48.1813081 59.9825681 61.0642435 98.9987 53.7985558 103.862595 41.2528393 90.8172263 0"></polygon>
                    <path d="M2.37529345,56.7437902 L0,79.7960107 L0,151.131625 L10.1846816,172.681004 L55.5890317,172.681004 L65.5917582,161.013117 L65.5917582,61.9108547 C61.4095525,53.7769234 58.0753103,48.6182266 55.5890317,46.4347642 C53.1027531,44.2513018 49.1736462,43.3646222 43.8017109,43.7747253 L23.8725286,43.7747253 L2.37529345,56.7437902 Z" id="Path-5"></path>
                </g>
                <path d="M53.7629339,55.7410903 C58.0502839,55.7410903 69,57.2631302 69,52.9265549 C69,51.2794529 67.4377841,42.9325413 66.5809629,41.6699728 C65.1819008,39.6083856 56.4218785,40.0369618 53.7629339,40.0369618 C49.4755839,40.0369618 46,43.5524507 46,47.8890261 C46,52.2256014 49.4755839,55.7410903 53.7629339,55.7410903 Z" id="Oval-4" fill="#38393D"></path>
                <polygon id="Path-6" fill="#38393D" points="27.2429825 110.608735 2.04314036 139.999908 0.801008394 153.070004 21.2703775 179 32 170.096023 14.3187676 146.696808 25.0775286 134.151365"></polygon>
                <g id="Group-2" transform="translate(57.000000, 38.000000)" fill="#696969">
                    <path d="M10.2163121,20.8195337 C12.6444365,20.8195337 57.7545867,19.4578498 57.7545867,19.4578498 C46.9903654,23.2828477 57.7545867,6.22958221 57.7545867,3.00121948 C57.7545867,0.296806444 15.8586254,0.296806444 10.2163121,0.296806444 C4.57399871,0.296806444 0,4.89097543 0,10.5581701 C0,16.2253647 4.57399871,20.8195337 10.2163121,20.8195337 Z" id="Oval-5"></path>
                    <path d="M16.1241078,20.5646431 C18.5522322,20.5646431 63.6623824,19.2029591 63.6623824,19.2029591 C56.6577974,14.0371256 72.8151122,2.74632883 63.6623824,2.74632883 C62.4654902,2.74632883 21.7664211,0.0419157891 16.1241078,0.0419157891 C10.4817944,0.0419157891 5.9077957,4.63608478 5.9077957,10.3032794 C5.9077957,15.9704741 10.4817944,20.5646431 16.1241078,20.5646431 Z" id="Oval-5" transform="translate(36.229454, 10.303279) rotate(-180.000000) translate(-36.229454, -10.303279) "></path>
                </g>
                <polygon id="Path-7" fill="#FDCC86" points="21 177.943372 31.9169496 170 43.4839467 185.016727 33.5207347 193.824157"></polygon>
                <path d="M58.7168221,128.473937 L58.7168221,201 L82,201 L82,124.22059 C80.3529219,115.217666 78.7784368,109.158423 77.2765448,106.04286 C75.7746528,102.927297 72.9751415,99.9130101 68.8780111,97 L49,97 C53.6031774,102.591445 56.4531599,107.16348 57.5499476,110.716106 C58.6467354,114.268731 59.0356935,120.188008 58.7168221,128.473937 Z" id="Path-8" fill="#FFFFFF"></path>
                <path d="M58.58873,96 L57,97.9464436 L60.803196,99.9862099 C64.0159798,102.720897 65.1438183,110.508615 64.1867115,123.349366 C63.2296047,136.190117 62.0867402,150.705954 60.7581179,166.896876 L68.6829268,176 L79,166.896876 L75.1126997,123.349366 C72.6198486,110.431402 68.9778525,102.643683 64.1867115,99.9862099 C64.1867115,99.9862099 64.679843,99.3062878 65.666106,97.9464436 L62.7527334,96 L58.58873,96 Z" id="Path-9" fill="#F8A204"></path>
                <path d="M76,224.765015 L117.671739,245.470485 L116.927346,305 L150,305 C148.233221,302.546122 146.364906,300.865554 144.395056,299.958295 C142.425206,299.051037 140.073959,298.788192 137.341316,299.16976 C135.712256,298.79752 134.544916,298.395342 133.839297,297.963228 C133.133678,297.531114 132.443177,296.408257 131.767793,294.594658 L131.767793,243.346759 L125.80522,233.446903 L85.068115,214 L76,224.765015 Z" id="Path-10" fill="#38393D"></path>
                <path d="M34,223 L47.4564142,223 L48.562619,225.599968 L48.562619,357.639454 C48.9585333,358.981637 49.4376603,359.927195 50,360.476126 C50.5623397,361.025058 51.6687983,361.62728 53.3193757,362.282794 C56.8380185,361.468738 59.5001172,361.468738 61.3056719,362.282794 C63.1112265,363.096849 64.6760026,365.002584 66,368 L34,368 L34,223 Z" id="Path-11" fill="#38393D"></path>
                <circle id="Oval-6" fill="#BEBEBE" cx="92.5" cy="48.5" r="10.5"></circle>
                <circle id="Oval-6" fill="#BEBEBE" cx="113.5" cy="48.5" r="10.5"></circle>
                <circle id="Oval-6" fill="#F9F9F9" cx="113.5" cy="48.5" r="8.5"></circle>
                <circle id="Oval-6" fill="#F9F9F9" cx="92.5" cy="48.5" r="8.5"></circle>
                <polyline id="Line" stroke="#979797" stroke-width="5" stroke-linecap="square" points="169 317 86 317 86 375"></polyline>
            </g>
        </g>
    </g>
</svg>