<?xml version="1.0" encoding="UTF-8"?>
<svg width="22px" height="23px" viewBox="0 0 22 23" version="1.1" xmlns="http://www.w3.org/2000/svg" xmlns:xlink="http://www.w3.org/1999/xlink">
    <!-- Generator: Sketch 43.1 (39012) - http://www.bohemiancoding.com/sketch -->
    <title>anchor</title>
    <desc>Created with Sketch.</desc>
    <defs></defs>
    <g id="Symbols" stroke="none" stroke-width="1" fill="none" fill-rule="evenodd">
        <g id="icons/anchor-grey">
            <g id="anchor">
                <g id="Group-33">
                    <polygon id="Line" fill="#C8C8C8" fill-rule="nonzero" points="12 20.5 12 7.5 12 6.5 10 6.5 10 7.5 10 20.5 10 21.5 12 21.5"></polygon>
                    <polygon id="Line" fill="#C8C8C8" fill-rule="nonzero" points="6.5 12 15.5 12 16.5 12 16.5 10 15.5 10 6.5 10 5.5 10 5.5 12"></polygon>
                    <path d="M11,6 L11,6 C12.1045695,6 13,5.1045695 13,4 C13,2.8954305 12.1045695,2 11,2 C9.8954305,2 9,2.8954305 9,4 C9,5.1045695 9.8954305,6 11,6 L11,6 Z M11,8 L11,8 C8.790861,8 7,6.209139 7,4 C7,1.790861 8.790861,0 11,0 C13.209139,0 15,1.790861 15,4 C15,6.209139 13.209139,8 11,8 L11,8 Z" id="Oval-432" fill="#F88686" fill-rule="nonzero"></path>
                    <path d="M1.1730735,16.06231 C1.30927148,16.2626012 1.55676543,16.5932229 1.90790625,17.0112476 C2.48742386,17.7011496 3.15439709,18.3901715 3.90261593,19.0351877 C9.14060502,23.5506956 15.1374968,23.5506956 20.7961622,16.1050833 L19.2038378,14.8949167 C14.3069476,21.3381933 9.63717276,21.3381933 5.20849518,17.5203678 C4.54699179,16.9501063 3.95354837,16.3370449 3.43931598,15.7248635 C3.13420679,15.3616382 2.92683963,15.0846211 2.8269265,14.93769 L1.1730735,16.06231 L1.1730735,16.06231 Z" id="Path-880" fill="#C8C8C8" fill-rule="nonzero"></path>
                    <polygon id="Path-881" fill="#979797" points="6 15 1.5 19.5 0.5 14"></polygon>
                    <polygon id="Path-881" fill="#979797" transform="translate(19.050049, 16.750000) scale(-1, 1) translate(-19.050049, -16.750000) " points="21.8000488 15 17.3000488 19.5 16.3000488 14"></polygon>
                </g>
            </g>
        </g>
    </g>
</svg>