<?xml version="1.0" encoding="UTF-8"?>
<svg width="184px" height="154px" viewBox="0 0 184 154" version="1.1" xmlns="http://www.w3.org/2000/svg" xmlns:xlink="http://www.w3.org/1999/xlink" style="background: #FFFFFF;">
    <!-- Generator: Sketch 46.2 (44496) - http://www.bohemiancoding.com/sketch -->
    <title>Artboard</title>
    <desc>Created with Sketch.</desc>
    <defs></defs>
    <g id="Page-1" stroke="none" stroke-width="1" fill="none" fill-rule="evenodd">
        <g id="Artboard">
            <g id="Group-4" transform="translate(25.000000, 1.000000)">
                <g id="Group" fill-rule="nonzero" fill="#72CDFF">
                    <path d="M3,3 L3,122 L130,122 L130,3 L3,3 Z M0,0 L133,0 L133,125 L0,125 L0,0 Z" id="Rectangle"></path>
                    <path d="M67.2462632,78.8909624 L39.2145064,62.3702352 L3,92.7932029 L3,122 L130,122 L130,58.2678379 L102.713823,33.3974106 L67.2462632,78.8909624 Z M0,91.3953265 L38.9095923,58.7082796 L66.5,74.9688943 L102.340053,28.9975527 L133,56.9430573 L133,125 L0,125 L0,91.3953265 Z" id="Rectangle"></path>
                    <path d="M31.5,47.5 C22.1111593,47.5 14.5,39.8888407 14.5,30.5 C14.5,21.1111593 22.1111593,13.5 31.5,13.5 C40.8888407,13.5 48.5,21.1111593 48.5,30.5 C48.5,39.8888407 40.8888407,47.5 31.5,47.5 Z M31.5,44.5 C39.2319865,44.5 45.5,38.2319865 45.5,30.5 C45.5,22.7680135 39.2319865,16.5 31.5,16.5 C23.7680135,16.5 17.5,22.7680135 17.5,30.5 C17.5,38.2319865 23.7680135,44.5 31.5,44.5 Z" id="Oval"></path>
                </g>
                <g id="Group-3" transform="translate(115.500000, 108.500000) rotate(44.000000) translate(-115.500000, -108.500000) translate(74.000000, 59.000000)">
                    <path d="M50.1022707,45.4321476 C56.3923804,43.6476852 61,37.8619262 61,31 L61,15 C61,6.71572875 54.2842712,-1.52179594e-15 46,0 L46,0 L39,0 L39,0 C30.7157288,1.52179594e-15 24,6.71572875 24,15 L24,15 L24,31 C24,37.8619262 28.6076196,43.6476852 34.8977293,45.4321476 C34.3261195,44.4180204 34,43.2470948 34,42 L34,16 C34,12.1340068 37.1340068,9 41,9 L44,9 C47.8659932,9 51,12.1340068 51,16 L51,42 C51,43.2470948 50.6738805,44.4180204 50.1022707,45.4321476 Z" id="Combined-Shape" fill="#FFB2B2"></path>
                    <path d="M50.1022707,98.4321476 C56.3923804,96.6476852 61,90.8619262 61,84 L61,68 C61,59.7157288 54.2842712,53 46,53 L46,53 L39,53 L39,53 C30.7157288,53 24,59.7157288 24,68 L24,68 L24,84 C24,90.8619262 28.6076196,96.6476852 34.8977293,98.4321476 C34.3261195,97.4180204 34,96.2470948 34,95 L34,69 C34,65.1340068 37.1340068,62 41,62 L44,62 C47.8659932,62 51,65.1340068 51,69 L51,95 C51,96.2470948 50.6738805,97.4180204 50.1022707,98.4321476 Z" id="Combined-Shape" fill="#FFB2B2" transform="translate(42.500000, 75.716074) scale(1, -1) translate(-42.500000, -75.716074) "></path>
                    <g id="Group-2" transform="translate(0.000000, 33.000000)" fill-rule="nonzero" fill="#9F9F9F">
                        <polygon id="Line-2" points="12 14 -1 14 -1 17 12 17"></polygon>
                        <polygon id="Line-2" points="14.4578137 24.0368079 3.08775747 30.339333 4.54218633 32.9631921 15.9122425 26.660667"></polygon>
                        <polygon id="Line" points="16.0669959 4.52300095 5.52300095 -2.06699587 3.93300413 0.476999046 14.476999 7.06699587"></polygon>
                    </g>
                    <g id="Group-2" transform="translate(76.000000, 48.500000) scale(-1, 1) translate(-76.000000, -48.500000) translate(69.000000, 33.000000)" fill-rule="nonzero" fill="#9F9F9F">
                        <polygon id="Line-2" points="12 14 -1 14 -1 17 12 17"></polygon>
                        <polygon id="Line-2" points="14.4578137 24.0368079 3.08775747 30.339333 4.54218633 32.9631921 15.9122425 26.660667"></polygon>
                        <polygon id="Line" points="16.0669959 4.52300095 5.52300095 -2.06699587 3.93300413 0.476999046 14.476999 7.06699587"></polygon>
                    </g>
                </g>
            </g>
        </g>
    </g>
</svg>