<?xml version="1.0" encoding="UTF-8"?>
<svg width="120px" height="109px" viewBox="0 0 120 109" version="1.1" xmlns="http://www.w3.org/2000/svg" xmlns:xlink="http://www.w3.org/1999/xlink" style="background: #FFFFFF;">
    <!-- Generator: Sketch 46.2 (44496) - http://www.bohemiancoding.com/sketch -->
    <title>Artboard</title>
    <desc>Created with Sketch.</desc>
    <defs></defs>
    <g id="Page-1" stroke="none" stroke-width="1" fill="none" fill-rule="evenodd">
        <g id="Artboard">
            <g id="Group-4">
                <g id="Group" fill-rule="nonzero" fill="#72CDFF">
                    <path d="M2.21052632,2.16 L2.21052632,87.84 L95.7894737,87.84 L95.7894737,2.16 L2.21052632,2.16 Z M0,0 L98,0 L98,90 L0,90 L0,0 Z" id="Rectangle"></path>
                    <path d="M49.5498782,56.8014929 L28.8948994,44.9065694 L2.21052632,66.8111061 L2.21052632,87.84 L95.7894737,87.84 L95.7894737,41.9528433 L75.6838693,24.0461356 L49.5498782,56.8014929 Z M0,65.8046351 L28.6702259,42.2699613 L49,53.9776039 L75.4084598,20.878238 L98,40.9990013 L98,90 L0,90 L0,65.8046351 Z" id="Rectangle"></path>
                    <path d="M23.2105263,34.2 C16.2924331,34.2 10.6842105,28.7199653 10.6842105,21.96 C10.6842105,15.2000347 16.2924331,9.72 23.2105263,9.72 C30.1286195,9.72 35.7368421,15.2000347 35.7368421,21.96 C35.7368421,28.7199653 30.1286195,34.2 23.2105263,34.2 Z M23.2105263,32.04 C28.9077795,32.04 33.5263158,27.5270303 33.5263158,21.96 C33.5263158,16.3929697 28.9077795,11.88 23.2105263,11.88 C17.5132731,11.88 12.8947368,16.3929697 12.8947368,21.96 C12.8947368,27.5270303 17.5132731,32.04 23.2105263,32.04 Z" id="Oval"></path>
                </g>
                <g id="Group-3" transform="translate(84.000000, 78.000000) rotate(44.000000) translate(-84.000000, -78.000000) translate(52.000000, 42.000000)">
                    <path d="M38.2874802,32.2769337 C43.0491763,30.1513708 46.3678715,25.3749907 46.3678715,19.8234879 L46.3678715,13.6310576 C46.3678715,6.10283235 40.2650391,-1.38291254e-15 32.7368139,0 L32.7368139,0 L32.7368139,0 C25.2085887,1.38291254e-15 19.1057564,6.10283235 19.1057564,13.6310576 L19.1057564,13.6310576 L19.1057564,19.8234879 C19.1057564,25.3749907 22.4244516,30.1513708 27.1861476,32.2769337 C26.7312294,31.4090406 26.4738956,30.4212947 26.4738956,29.3734453 L26.4738956,12.8083729 L26.4738956,12.8083729 C26.4738956,9.3494586 29.2778996,6.54545455 32.7368139,6.54545455 C36.1957282,6.54545455 38.9997323,9.3494586 38.9997323,12.8083729 L38.9997323,29.3734453 C38.9997323,30.4212947 38.7423985,31.4090406 38.2874802,32.2769337 Z" id="Combined-Shape" fill="#FFB2B2"></path>
                    <path d="M38.2874802,71.5870164 C43.0491763,69.4614535 46.3678715,64.6850735 46.3678715,59.1335706 L46.3678715,52.9411403 C46.3678715,45.4129151 40.2650391,39.3100827 32.7368139,39.3100827 L32.7368139,39.3100827 L32.7368139,39.3100827 C25.2085887,39.3100827 19.1057564,45.4129151 19.1057564,52.9411403 L19.1057564,52.9411403 L19.1057564,59.1335706 C19.1057564,64.6850735 22.4244516,69.4614535 27.1861476,71.5870164 C26.7312294,70.7191233 26.4738956,69.7313774 26.4738956,68.683528 L26.4738956,52.1184556 C26.4738956,48.6595413 29.2778996,45.8555373 32.7368139,45.8555373 L32.7368139,45.8555373 L32.7368139,45.8555373 C36.1957282,45.8555373 38.9997323,48.6595413 38.9997323,52.1184556 L38.9997323,68.683528 C38.9997323,69.7313774 38.7423985,70.7191233 38.2874802,71.5870164 Z" id="Combined-Shape" fill="#FFB2B2" transform="translate(32.736814, 55.448550) scale(1, -1) translate(-32.736814, -55.448550) "></path>
                    <g id="Group-2" transform="translate(-0.000000, 22.176471)" fill-rule="nonzero" fill="#9F9F9F">
                        <polygon id="Line-2" points="10.2639893 12.0053476 0.6854083 12.0053476 0.6854083 14.1871658 10.2639893 14.1871658"></polygon>
                        <polygon id="Line-2" points="12.0749406 19.3048443 3.69732492 23.8884988 4.76896835 25.79676 13.1465841 21.2131054"></polygon>
                        <polygon id="Line" points="13.2606085 5.11298465 5.49164622 0.320259691 4.32011442 2.17043781 12.0890767 6.96316277"></polygon>
                    </g>
                    <g id="Group-2" transform="translate(57.000000, 35.176471) scale(-1, 1) translate(-57.000000, -35.176471) translate(50.000000, 22.176471)" fill-rule="nonzero" fill="#9F9F9F">
                        <polygon id="Line-2" points="10.2639893 12.0053476 0.6854083 12.0053476 0.6854083 14.1871658 10.2639893 14.1871658"></polygon>
                        <polygon id="Line-2" points="12.0749406 19.3048443 3.69732492 23.8884988 4.76896835 25.79676 13.1465841 21.2131054"></polygon>
                        <polygon id="Line" points="13.2606085 5.11298465 5.49164622 0.320259691 4.32011442 2.17043781 12.0890767 6.96316277"></polygon>
                    </g>
                </g>
            </g>
        </g>
    </g>
</svg>