<?xml version="1.0" encoding="UTF-8"?>
<svg width="25px" height="14px" viewBox="0 0 25 14" version="1.1" xmlns="http://www.w3.org/2000/svg" xmlns:xlink="http://www.w3.org/1999/xlink">
    <!-- Generator: Sketch 44.1 (41455) - http://www.bohemiancoding.com/sketch -->
    <title>icons/browse-grey</title>
    <desc>Created with Sketch.</desc>
    <defs></defs>
    <g id="ExamBuilder---User-Manager" stroke="none" stroke-width="1" fill="none" fill-rule="evenodd">
        <g id="Group-Tab-&gt;-Edit-Group" transform="translate(-635.000000, -496.000000)" fill="#888888">
            <g id="Group-30" transform="translate(170.000000, 482.000000)">
                <g id="Group-29" transform="translate(448.000000, 0.000000)">
                    <g id="Group-28" transform="translate(17.000000, 14.000000)">
                        <g id="icons/browse-grey">
                            <g id="icons/binoculars">
                                <g>
                                    <g id="binoculars">
                                        <path d="M14.3560537,1.55555556 L17.8030303,1.55555556 C19.6969554,1.55555556 20.4545341,3.1110877 20.4545455,3.11111111 C17.1073652,3.11111111 14.3939394,5.89689489 14.3939394,9.33333333 C14.3939394,10.0123784 14.4998887,10.6660178 14.6957413,11.2777778 L10.3042587,11.2777778 C10.5001113,10.6660178 10.6060606,10.0123784 10.6060606,9.33333333 C10.6060606,5.89689489 7.89263485,3.11111111 4.54545455,3.11111111 C4.92424242,1.55555556 7.1969697,1.55555556 7.1969697,1.55555556 L10.6439463,1.55555556 C10.8194274,0.668017653 11.5837281,0 12.5,0 C13.4162719,0 14.1805726,0.668017653 14.3560537,1.55555556 Z" id="Combined-Shape"></path>
                                        <path d="M4.54545455,14 C2.03506932,14 0,11.9106622 0,9.33333333 C0,6.7560045 2.03506932,4.66666667 4.54545455,4.66666667 C7.05583977,4.66666667 9.09090909,6.7560045 9.09090909,9.33333333 C9.09090909,11.9106622 7.05583977,14 4.54545455,14 Z M4.54545455,12.4444444 C6.2190447,12.4444444 7.57575758,11.0515526 7.57575758,9.33333333 C7.57575758,7.61511411 6.2190447,6.22222222 4.54545455,6.22222222 C2.87186439,6.22222222 1.51515152,7.61511411 1.51515152,9.33333333 C1.51515152,11.0515526 2.87186439,12.4444444 4.54545455,12.4444444 Z" id="Combined-Shape"></path>
                                        <path d="M20.4545455,14 C17.9441602,14 15.9090909,11.9106622 15.9090909,9.33333333 C15.9090909,6.7560045 17.9441602,4.66666667 20.4545455,4.66666667 C22.9649307,4.66666667 25,6.7560045 25,9.33333333 C25,11.9106622 22.9649307,14 20.4545455,14 Z M20.4545455,12.4444444 C22.1281356,12.4444444 23.4848485,11.0515526 23.4848485,9.33333333 C23.4848485,7.61511411 22.1281356,6.22222222 20.4545455,6.22222222 C18.7809553,6.22222222 17.4242424,7.61511411 17.4242424,9.33333333 C17.4242424,11.0515526 18.7809553,12.4444444 20.4545455,12.4444444 Z" id="Combined-Shape"></path>
                                    </g>
                                </g>
                            </g>
                        </g>
                    </g>
                </g>
            </g>
        </g>
    </g>
</svg>