<?xml version="1.0" encoding="UTF-8"?>
<svg width="30px" height="30px" viewBox="0 0 30 30" version="1.1" xmlns="http://www.w3.org/2000/svg" xmlns:xlink="http://www.w3.org/1999/xlink">
    <!-- Generator: Sketch 46.2 (44496) - http://www.bohemiancoding.com/sketch -->
    <title>calendar-outline</title>
    <desc>Created with Sketch.</desc>
    <defs></defs>
    <g id="ExamBuilder---Business-Dashboard" stroke="none" stroke-width="1" fill="none" fill-rule="evenodd">
        <g id="Employee-Dashboard---Overview" transform="translate(-1102.000000, -414.000000)" fill="#AFAFAF">
            <g id="calendar-outline" transform="translate(1102.000000, 414.000000)">
                <g id="Group-16" transform="translate(7.000000, 0.000000)">
                    <rect id="Rectangle-8" x="0" y="0" width="4" height="6" rx="1"></rect>
                    <rect id="Rectangle-8" x="13" y="0" width="4" height="6" rx="1"></rect>
                </g>
                <path d="M3,4 L27,4 C28.6568542,4 30,5.34314575 30,7 L30,27 C30,28.6568542 28.6568542,30 27,30 L3,30 C1.34314575,30 2.02906125e-16,28.6568542 0,27 L0,7 L0,7 C-2.02906125e-16,5.34314575 1.34314575,4 3,4 L3,4 Z M3,9 L3,26 L27,26 L27,9 L3,9 Z" id="Combined-Shape"></path>
            </g>
        </g>
    </g>
</svg>