<?xml version="1.0" encoding="UTF-8"?>
<svg width="23px" height="25px" viewBox="0 0 23 25" version="1.1" xmlns="http://www.w3.org/2000/svg" xmlns:xlink="http://www.w3.org/1999/xlink">
    <!-- Generator: Sketch 3.8.3 (29802) - http://www.bohemiancoding.com/sketch -->
    <title>icons/clock-grey</title>
    <desc>Created with Sketch.</desc>
    <defs></defs>
    <g id="Website" stroke="none" stroke-width="1" fill="none" fill-rule="evenodd">
        <g id="Exam-Editor---Blueprint" transform="translate(-402.000000, -659.000000)">
            <g id="Group-19" transform="translate(114.000000, 352.000000)">
                <g id="Group-15" transform="translate(140.000000, 229.000000)">
                    <g id="Group-33" transform="translate(25.000000, 77.000000)">
                        <g id="icons/clock-grey" transform="translate(123.431953, 0.000000)">
                            <g id="icons/clock">
                                <g id="Group-33">
                                    <circle id="Oval-84" fill="#FFFFFF" cx="11" cy="13.9969373" r="8.5"></circle>
                                    <path d="M11.9698867,12.0501574 L8.30322007,15.7168241 C8.0794822,15.9405619 8.0794822,16.3033127 8.30322007,16.5270506 C8.52695795,16.7507885 8.88970872,16.7507885 9.11344659,16.5270506 L12.7801133,12.8603839 C13.0038511,12.636646 13.0038511,12.2738953 12.7801133,12.0501574 C12.5563754,11.8264195 12.1936246,11.8264195 11.9698867,12.0501574 L11.9698867,12.0501574 Z" id="Line" fill="#C8C8C8"></path>
                                    <path d="M5.78778557,10.9203959 L12.2044522,14.5870626 C12.3692864,14.6812535 12.5792677,14.6239859 12.6734586,14.4591518 C12.7676495,14.2943176 12.7103819,14.0843363 12.5455478,13.9901454 L6.12888109,10.3234787 C5.96404697,10.2292878 5.75406568,10.2865554 5.65987475,10.4513896 C5.56568383,10.6162237 5.62295145,10.826205 5.78778557,10.9203959 L5.78778557,10.9203959 Z" id="Line" fill="#C8C8C8"></path>
                                    <g id="Group-9" transform="translate(0.000000, 0.996937)" fill="#C8C8C8">
                                        <path d="M0.916666667,6.87500004 C0.916666626,7.10573222 6.87500007,1.83333339 6.875,1.83333337 C6.15592429,0.770923773 5.37948157,0.5 4,0.5 C1.790861,0.5 0,2.290861 0,4.5 C0,5.72823892 0.0453984569,6.14124749 0.916666667,6.87500004 Z" id="Oval-73"></path>
                                        <path d="M12.3699951,1.875 C12.3699951,1.875 12.0949951,0.5 10.9949951,0.5 C9.89499512,0.5 9.61999512,1.875 9.61999512,1.875 C9.61999512,1.875 12.3699951,1.875 12.3699951,1.875 Z" id="Oval-76"></path>
                                    </g>
                                    <g id="Group-9" transform="translate(18.500000, 4.496937) scale(-1, 1) translate(-18.500000, -4.496937) translate(15.000000, 0.996937)" fill="#C8C8C8">
                                        <path d="M0.916666667,6.87500004 C0.916666626,7.10573222 6.87500007,1.83333339 6.875,1.83333337 C6.15592429,0.770923773 5.37948157,0.5 4,0.5 C1.790861,0.5 0,2.290861 0,4.5 C0,5.72823892 0.0453984569,6.14124749 0.916666667,6.87500004 Z" id="Oval-73"></path>
                                    </g>
                                    <path d="M11,21.576104 L11,21.576104 C15.2779056,21.576104 18.7458333,18.1081763 18.7458333,13.8302707 C18.7458333,9.55236504 15.2779056,6.08443733 11,6.08443733 C6.72209438,6.08443733 3.25416667,9.55236504 3.25416667,13.8302707 C3.25416667,18.1081763 6.72209438,21.576104 11,21.576104 L11,21.576104 Z M11,23.913604 L11,23.913604 C5.43112877,23.913604 0.916666667,19.3991419 0.916666667,13.8302707 C0.916666667,8.26139944 5.43112877,3.74693733 11,3.74693733 C16.5688712,3.74693733 21.0833333,8.26139944 21.0833333,13.8302707 C21.0833333,19.3991419 16.5688712,23.913604 11,23.913604 L11,23.913604 Z" id="Oval-73" fill="#C8C8C8"></path>
                                    <g id="Group-10" transform="translate(10.083333, 6.496937)">
                                        <g id="Group-8" fill="#959595">
                                            <ellipse id="Oval-77" transform="translate(0.920222, 1.489583) rotate(-225.000000) translate(-0.920222, -1.489583) " cx="0.920222044" cy="1.48958333" rx="0.572916667" ry="0.572916667"></ellipse>
                                            <ellipse id="Oval-77" transform="translate(0.920222, 13.231059) rotate(-225.000000) translate(-0.920222, -13.231059) " cx="0.920222044" cy="13.2310592" rx="0.572916667" ry="0.572916667"></ellipse>
                                        </g>
                                        <ellipse id="Oval-77" fill="#C8C8C8" transform="translate(0.920222, 1.489583) rotate(-150.000000) translate(-0.920222, -1.489583) " cx="0.920222044" cy="1.48958333" rx="0.572916667" ry="0.572916667"></ellipse>
                                        <ellipse id="Oval-77" fill="#C8C8C8" transform="translate(0.920222, 13.231059) rotate(-150.000000) translate(-0.920222, -13.231059) " cx="0.920222044" cy="13.2310592" rx="0.572916667" ry="0.572916667"></ellipse>
                                    </g>
                                    <g id="Group-10" transform="translate(10.833333, 13.913604) rotate(90.000000) translate(-10.833333, -13.913604) translate(9.833333, 6.413604)">
                                        <g id="Group-8" fill="#959595">
                                            <ellipse id="Oval-77" transform="translate(0.920222, 1.489583) rotate(-225.000000) translate(-0.920222, -1.489583) " cx="0.920222044" cy="1.48958333" rx="0.572916667" ry="0.572916667"></ellipse>
                                            <ellipse id="Oval-77" transform="translate(0.920222, 13.231059) rotate(-225.000000) translate(-0.920222, -13.231059) " cx="0.920222044" cy="13.2310592" rx="0.572916667" ry="0.572916667"></ellipse>
                                        </g>
                                        <ellipse id="Oval-77" fill="#C8C8C8" transform="translate(0.920222, 1.489583) rotate(-150.000000) translate(-0.920222, -1.489583) " cx="0.920222044" cy="1.48958333" rx="0.572916667" ry="0.572916667"></ellipse>
                                        <ellipse id="Oval-77" fill="#C8C8C8" transform="translate(0.920222, 13.231059) rotate(-150.000000) translate(-0.920222, -13.231059) " cx="0.920222044" cy="13.2310592" rx="0.572916667" ry="0.572916667"></ellipse>
                                    </g>
                                    <path d="M16.5,23.0969358 L19.0580583,25.4388791 C19.3021359,25.6829568 19.6978641,25.6829568 19.9419417,25.4388791 C20.1860194,25.1948014 20.1860194,24.7990733 19.9419417,24.5549956 L17.6361923,22.2492461 L16.5,23.0969358 Z" id="Path-1059" fill="#C8C8C8"></path>
                                    <path d="M2,23.0969358 L4.55805826,25.4388791 C4.80213594,25.6829568 5.19786406,25.6829568 5.44194174,25.4388791 C5.68601942,25.1948014 5.68601942,24.7990733 5.44194174,24.5549956 L3.13619227,22.2492461 L2,23.0969358 Z" id="Path-1059" fill="#C8C8C8" transform="translate(3.812500, 23.935592) scale(-1, 1) translate(-3.812500, -23.935592) "></path>
                                </g>
                            </g>
                        </g>
                    </g>
                </g>
            </g>
        </g>
    </g>
</svg>