<?xml version="1.0" encoding="UTF-8"?>
<svg width="30px" height="30px" viewBox="0 0 30 30" version="1.1" xmlns="http://www.w3.org/2000/svg" xmlns:xlink="http://www.w3.org/1999/xlink">
    <!-- Generator: Sketch 44.1 (41455) - http://www.bohemiancoding.com/sketch -->
    <title>icons/config-small-grey</title>
    <desc>Created with Sketch.</desc>
    <defs></defs>
    <g id="ExamBuilder---User-Manager" stroke="none" stroke-width="1" fill="none" fill-rule="evenodd">
        <g id="Group-Tab-&gt;-Browse" transform="translate(-750.000000, -510.000000)" stroke="#969696">
            <g id="Group-40" transform="translate(460.000000, 511.000000)">
                <g id="Group-37" transform="translate(291.000000, 0.000000)">
                    <g id="Group-25">
                        <g id="icons/config-small-grey">
                            <g id="Path-283">
                                <path d="M12.2741914,9.31602943 L12.2871586,9.34558662 C12.2871586,9.34558662 10.4116198,9.8143507 9.49149861,11.8505713 L9.52156789,11.8623022 C9.52156789,11.8623022 8.52682795,13.5199747 9.31602943,15.610424 L9.34558662,15.5974568 C9.34558662,15.5974568 9.8143507,17.4729956 11.8505713,18.3931168 L11.8623022,18.3630475 C11.8623022,18.3630475 13.5199747,19.3577874 15.610424,18.568586 L15.5974568,18.5390288 C15.5974568,18.5390288 17.4729956,18.0702647 18.3931168,16.0340441 L18.3630475,16.0223132 C18.3630475,16.0223132 19.3577874,14.3646407 18.568586,12.2741914 L18.5390288,12.2871586 C18.5390288,12.2871586 18.0702647,10.4116198 16.0340441,9.49149861 L16.0223132,9.52156789 C16.0223132,9.52156789 14.3646407,8.52682795 12.2741914,9.31602943 Z M9.80612403,4.05617326 L10.3035295,3.82323191 L11.9177775,0 L15.7748635,0 L17.5450024,3.8232318 L18.0081369,4.02703148 L18.5245701,4.21403585 L22.369449,2.65204838 L25.0968206,5.37941999 L23.6450647,9.33453034 L23.8284421,9.80612403 L24.0613835,10.3035295 L27.8846154,11.9177775 L27.8846154,15.7748635 L24.0613836,17.5450024 L23.8575839,18.0081369 L23.6705795,18.5245701 L25.232567,22.369449 L22.5051954,25.0968206 L18.550085,23.6450647 L18.0784914,23.8284421 L17.5810859,24.0613835 L15.9668378,27.8846154 L12.1097519,27.8846154 L10.339613,24.0613836 L9.87647851,23.8575839 L9.36004532,23.6705795 L5.51516638,25.232567 L2.78779476,22.5051954 L4.23955068,18.550085 L4.05617326,18.0784914 L3.82323191,17.5810859 L1.73638546e-14,15.9668378 L1.66553194e-14,12.1097519 L3.8232318,10.339613 L4.02703148,9.87647851 L4.21403585,9.36004532 L2.65204838,5.51516638 L5.37941999,2.78779476 L9.33453034,4.23955068 L9.80612403,4.05617326 Z" stroke-width="1.5"></path>
                            </g>
                        </g>
                    </g>
                </g>
            </g>
        </g>
    </g>
</svg>