<?xml version="1.0" encoding="UTF-8"?>
<svg width="16px" height="16px" viewBox="0 0 16 16" version="1.1" xmlns="http://www.w3.org/2000/svg" xmlns:xlink="http://www.w3.org/1999/xlink">
    <!-- Generator: Sketch 44.1 (41455) - http://www.bohemiancoding.com/sketch -->
    <title>icons/config-tiny</title>
    <desc>Created with Sketch.</desc>
    <defs></defs>
    <g id="Symbols---Builder" stroke="none" stroke-width="1" fill="none" fill-rule="evenodd">
        <g id="dropdown/actions-small" transform="translate(-12.000000, -10.000000)" stroke="#696969">
            <path d="M19.1624906,15.6772893 L19.169001,15.692129 C19.169001,15.692129 18.2273512,15.9274809 17.7653869,16.9498041 L17.7804837,16.9556938 C17.7804837,16.9556938 17.2810557,17.7879597 17.6772893,18.8375094 L17.692129,18.830999 C17.692129,18.830999 17.9274809,19.7726488 18.9498041,20.2346131 L18.9556938,20.2195163 C18.9556938,20.2195163 19.7879597,20.7189443 20.8375094,20.3227107 L20.830999,20.307871 C20.830999,20.307871 21.7726488,20.0725191 22.2346131,19.0501959 L22.2195163,19.0443062 C22.2195163,19.0443062 22.7189443,18.2120403 22.3227107,17.1624906 L22.307871,17.169001 C22.307871,17.169001 22.0725191,16.2273512 21.0501959,15.7653869 L21.0443062,15.7804837 C21.0443062,15.7804837 20.2120403,15.2810557 19.1624906,15.6772893 Z M17.9233505,13.0364787 L18.1730824,12.9195261 L18.9835462,11 L20.9200694,11 L21.8088012,12.919526 L22.0413267,13.0218475 L22.3006117,13.1157366 L24.2310061,12.3315112 L25.6003348,13.7008398 L24.8714532,15.686578 L24.9635213,15.9233505 L25.0804739,16.1730824 L27,16.9835462 L27,18.9200694 L25.080474,19.8088012 L24.9781525,20.0413267 L24.8842634,20.3006117 L25.6684888,22.2310061 L24.2991602,23.6003348 L22.313422,22.8714532 L22.0766495,22.9635213 L21.8269176,23.0804739 L21.0164538,25 L19.0799306,25 L18.1911988,23.080474 L17.9586733,22.9781525 L17.6993883,22.8842634 L15.7689939,23.6684888 L14.3996652,22.2991602 L15.1285468,20.313422 L15.0364787,20.0766495 L14.9195261,19.8269176 L13,19.0164538 L13,17.0799306 L14.919526,16.1911988 L15.0218475,15.9586733 L15.1157366,15.6993883 L14.3315112,13.7689939 L15.7008398,12.3996652 L17.686578,13.1285468 L17.9233505,13.0364787 Z" id="icons/config-tiny"></path>
        </g>
    </g>
</svg>