<?xml version="1.0" encoding="UTF-8" standalone="no"?>
<svg width="41px" height="41px" viewBox="0 0 41 41" version="1.1" xmlns="http://www.w3.org/2000/svg" xmlns:xlink="http://www.w3.org/1999/xlink">
    <!-- Generator: Sketch 3.8.3 (29802) - http://www.bohemiancoding.com/sketch -->
    <title>icons/config-white</title>
    <desc>Created with Sketch.</desc>
    <defs></defs>
    <g id="Symbols" stroke="none" stroke-width="1" fill="none" fill-rule="evenodd">
        <g id="navigation/sidebar" transform="translate(-23.000000, -462.000000)" stroke="#FFFFFF">
            <g id="Group-82">
                <g id="Group-81">
                    <g id="icons/config-white" transform="translate(24.000000, 463.000000)">
                        <g id="icons/config-whute">
                            <path d="M17.166938,13.0295915 C20.0906837,11.925798 22.4091387,13.3170618 22.4091387,13.3170618 L22.4255458,13.2750063 C25.2734461,14.5619069 25.9290692,17.1850742 25.9290692,17.1850742 L25.9704085,17.166938 C27.074202,20.0906837 25.6829382,22.4091387 25.6829382,22.4091387 L25.7249937,22.4255458 C24.4380931,25.2734461 21.8149258,25.9290692 21.8149258,25.9290692 L21.833062,25.9704085 C18.9093163,27.074202 16.5908613,25.6829382 16.5908613,25.6829382 L16.5744542,25.7249937 C13.7265539,24.4380931 13.0709308,21.8149258 13.0709308,21.8149258 L13.0295915,21.833062 C11.925798,18.9093163 13.3170618,16.5908613 13.3170618,16.5908613 L13.2750063,16.5744542 C14.5619069,13.7265539 17.1850742,13.0709308 17.1850742,13.0709308 L17.166938,13.0295915 Z M13.715048,5.67304785 L14.4107295,5.34725125 L16.6684502,0 L22.0630504,0 L24.5388033,5.3472511 L25.1865528,5.63228955 L25.908847,5.89383773 L31.2863742,3.70920973 L35.1009326,7.5237681 L33.0704767,13.0554673 L33.3269522,13.715048 L33.6527487,14.4107295 L39,16.6684502 L39,22.0630504 L33.6527489,24.5388033 L33.3677105,25.1865528 L33.1061623,25.908847 L35.2907903,31.2863742 L31.4762319,35.1009326 L25.9445327,33.0704767 L25.284952,33.3269522 L24.5892705,33.6527487 L22.3315498,39 L16.9369496,39 L14.4611967,33.6527489 L13.8134472,33.3677105 L13.091153,33.1061623 L7.7136258,35.2907903 L3.89906744,31.4762319 L5.9295233,25.9445327 L5.67304785,25.284952 L5.34725125,24.5892705 L5.65820092e-15,22.3315498 L4.66722895e-15,16.9369496 L5.3472511,14.4611967 L5.63228955,13.8134472 L5.89383773,13.091153 L3.70920973,7.7136258 L7.5237681,3.89906744 L13.0554673,5.9295233 L13.715048,5.67304785 Z" id="Path-283"></path>
                        </g>
                    </g>
                </g>
            </g>
        </g>
    </g>
</svg>