<?xml version="1.0" encoding="UTF-8" standalone="no"?>
<svg width="23px" height="22px" viewBox="0 0 23 22" version="1.1" xmlns="http://www.w3.org/2000/svg" xmlns:xlink="http://www.w3.org/1999/xlink">
    <!-- Generator: Sketch 3.8.3 (29802) - http://www.bohemiancoding.com/sketch -->
    <title>icons/workflow</title>
    <desc>Created with Sketch.</desc>
    <defs></defs>
    <g id="Website" stroke="none" stroke-width="1" fill="none" fill-rule="evenodd">
        <g id="Collections" transform="translate(-347.000000, -1375.000000)" fill="#989898">
            <g id="Collection-Card-Simple" transform="translate(139.000000, 1158.000000)">
                <g id="Collection-Card" transform="translate(0.000000, 0.996937)">
                    <g id="Group-18">
                        <g id="ui/form-actions" transform="translate(173.000000, 180.000000)">
                            <g id="icons/workflow" transform="translate(35.000000, 36.000000)">
                                <path d="M13.1715074,2.58764155 L13.1715074,1.70147219 C13.1715074,0.767644566 12.4099565,0 11.4705359,0 C10.5245658,0 9.76956442,0.761775046 9.76956442,1.70147219 L9.76956442,2.66624168 C8.8500398,2.85807133 7.9837792,3.18521548 7.19501344,3.62462286 L6.49743974,2.7932869 C5.89718692,2.07793344 4.82037269,1.97939905 4.10073475,2.58324698 C3.37607963,3.19130483 3.28737455,4.26016392 3.89140023,4.98001369 L4.59519019,5.8187579 C4.07921496,6.46503415 3.65866093,7.18402605 3.35349878,7.9567351 L2.15033906,7.74458558 C1.23069838,7.58242812 0.342474139,8.19910924 0.179345462,9.12425795 C0.0150794812,10.0558566 0.634176834,10.9316687 1.55959786,11.0948454 L2.7967384,11.3129867 C2.83399466,12.1143861 2.98841095,12.8868186 3.24409048,13.6151613 L2.16426206,14.2386006 C1.35554362,14.7055144 1.07151936,15.7488591 1.54122967,16.5624212 C2.01421471,17.3816553 3.05143195,17.6546182 3.86523355,17.1847696 L5.00722662,16.5254396 C5.57029151,17.1332974 6.22364098,17.6636535 6.94732277,18.0975269 L6.53269402,19.23671 C6.21330617,20.114221 6.66638,21.0960366 7.54914661,21.4173374 C8.43806772,21.7408782 9.40807938,21.2832695 9.72947473,20.4002431 L10.1413044,19.2687503 C10.6423107,19.3520722 11.1577308,19.3955158 11.6838169,19.3955158 C12.0690807,19.3955158 12.4486244,19.3722173 12.820976,19.3270205 L13.2115971,20.4002431 C13.5309849,21.277754 14.5091586,21.7386382 15.3919252,21.4173374 C16.2808463,21.0937966 16.7297731,20.1197365 16.4083778,19.23671 L16.0669553,18.2986594 C16.8664296,17.8671941 17.5887421,17.3213372 18.2093069,16.6844775 L19.0758383,17.1847696 C19.8845567,17.6516834 20.9301318,17.3759833 21.3998421,16.5624212 C21.8728272,15.7431871 21.5906113,14.7084491 20.7768097,14.2386006 L20.0491162,13.8184665 C20.3579376,13.0084687 20.5404666,12.1408723 20.5740652,11.2372133 L21.3814739,11.0948454 C22.3011146,10.9326879 22.924855,10.0494066 22.7617263,9.12425795 C22.5974604,8.19265928 21.7161538,7.58140889 20.7907327,7.74458558 L19.9860117,7.88647962 C19.641572,7.03746707 19.1573738,6.25456109 18.5602478,5.56328618 L19.0496716,4.98001369 C19.6499244,4.26466023 19.559975,3.18709491 18.8403371,2.58324698 C18.1156819,1.97518913 17.0476577,2.07343712 16.4436321,2.7932869 L15.8778877,3.46751479 C15.0460129,3.04366068 14.1350547,2.74196805 13.1715074,2.58764155 Z M11.6155158,15.3611549 C14.1403425,15.3611549 16.187119,13.4140162 16.187119,11.0120989 C16.187119,8.61018167 14.1403425,6.663043 11.6155158,6.663043 C9.09068905,6.663043 7.04391257,8.61018167 7.04391257,11.0120989 C7.04391257,13.4140162 9.09068905,15.3611549 11.6155158,15.3611549 Z" id="Rectangle-89-Copy"></path>
                            </g>
                        </g>
                    </g>
                </g>
            </g>
        </g>
    </g>
</svg>