<?xml version="1.0" encoding="UTF-8" standalone="no"?>
<svg width="30px" height="30px" viewBox="0 0 30 30" version="1.1" xmlns="http://www.w3.org/2000/svg" xmlns:xlink="http://www.w3.org/1999/xlink">
    <!-- Generator: Sketch 3.8.3 (29802) - http://www.bohemiancoding.com/sketch -->
    <title>icons/config</title>
    <desc>Created with Sketch.</desc>
    <defs></defs>
    <g id="Website" stroke="none" stroke-width="1" fill="none" fill-rule="evenodd">
        <g id="Items" transform="translate(-1336.000000, -455.000000)" fill="#ADADAD">
            <g id="icons/config" transform="translate(1336.000000, 455.000000)">
                <g id="Group-13">
                    <path d="M13.2053369,10.0227627 C15.4543721,9.17369076 17.237799,10.2438937 17.237799,10.2438937 L17.2504198,10.2115433 C19.4411124,11.2014668 19.9454378,13.2192878 19.9454378,13.2192878 L19.9772373,13.2053369 C20.8263092,15.4543721 19.7561063,17.237799 19.7561063,17.237799 L19.7884567,17.2504198 C18.7985332,19.4411124 16.7807122,19.9454378 16.7807122,19.9454378 L16.7946631,19.9772373 C14.5456279,20.8263092 12.762201,19.7561063 12.762201,19.7561063 L12.7495802,19.7884567 C10.5588876,18.7985332 10.0545622,16.7807122 10.0545622,16.7807122 L10.0227627,16.7946631 C9.17369076,14.5456279 10.2438937,12.762201 10.2438937,12.762201 L10.2115433,12.7495802 C11.2014668,10.5588876 13.2192878,10.0545622 13.2192878,10.0545622 L13.2053369,10.0227627 Z M10.5500369,4.36388296 L11.0851766,4.11327019 L12.8218848,0 L16.9715772,0 L18.8760025,4.11327007 L19.3742714,4.33253042 L19.9298823,4.53372133 L24.0664417,2.85323826 L27.0007174,5.78751392 L25.4388282,10.0426671 L25.636117,10.5500369 L25.8867298,11.0851766 L30,12.8218848 L30,16.9715772 L25.8867299,18.8760025 L25.6674696,19.3742714 L25.4662787,19.9298823 L27.1467617,24.0664417 L24.2124861,27.0007174 L19.9573329,25.4388282 L19.4499631,25.636117 L18.9148234,25.8867298 L17.1781152,30 L13.0284228,30 L11.1239975,25.8867299 L10.6257286,25.6674696 L10.0701177,25.4662787 L5.93355831,27.1467617 L2.99928264,24.2124861 L4.56117177,19.9573329 L4.36388296,19.4499631 L4.11327019,18.9148234 L-3.16621554e-13,17.1781152 L-3.1738384e-13,13.0284228 L4.11327007,11.1239975 L4.33253042,10.6257286 L4.53372133,10.0701177 L2.85323826,5.93355831 L5.78751392,2.99928264 L10.0426671,4.56117177 L10.5500369,4.36388296 Z" id="Path-283"></path>
                </g>
            </g>
        </g>
    </g>
</svg>