<?xml version="1.0" encoding="UTF-8"?>
<svg width="73px" height="80px" viewBox="0 0 73 80" version="1.1" xmlns="http://www.w3.org/2000/svg" xmlns:xlink="http://www.w3.org/1999/xlink">
    <!-- Generator: Sketch 45.2 (43514) - http://www.bohemiancoding.com/sketch -->
    <title>Group 14</title>
    <desc>Created with Sketch.</desc>
    <defs></defs>
    <g id="Page-1" stroke="none" stroke-width="1" fill="none" fill-rule="evenodd">
        <g id="Group-14">
            <g id="Group-4" transform="translate(0.074706, 0.000000)">
                <circle id="Oval" fill="#FFCB1F" cx="36" cy="36" r="36"></circle>
                <g id="Group" transform="translate(44.000000, 17.000000)" fill="#6B4400">
                    <ellipse id="Oval-2" cx="4.5" cy="6" rx="4.5" ry="6"></ellipse>
                </g>
                <g id="Group-2" transform="translate(40.000000, 13.000000)" stroke-linecap="round" stroke-width="3" stroke="#6B4400" stroke-linejoin="round">
                    <g id="Group-3">
                        <path d="M1.5,3.5 C4.74658725,3.33831114 7.5616812,3.96455559 9.94528185,5.37873336 C12.3288825,6.79291112 14.5137886,8.83333333 16.5,11.5" id="Line-2" transform="translate(9.000000, 7.487558) rotate(-27.000982) translate(-9.000000, -7.487558) "></path>
                    </g>
                </g>
            </g>
            <ellipse id="Oval-2" fill="#6B4400" cx="24.5747057" cy="24.5" rx="4.5" ry="5.5"></ellipse>
            <path d="M31.3178817,42.8187934 C35.7289229,42.576938 39.0479351,42.8673607 41.2749185,43.6900617 C43.5019019,44.5127627 45.5151155,45.7539276 47.3145594,47.4135564" id="Line-4" stroke="#6B4400" stroke-width="3" stroke-linecap="round"></path>
            <path d="M16.5747057,9.5 C19.8212929,9.33831114 22.6363869,9.96455559 25.0199875,11.3787334 C27.4035882,12.7929111 29.5884942,14.8333333 31.5747057,17.5" id="Line-2" stroke="#6B4400" stroke-width="3" stroke-linecap="round" stroke-linejoin="round" transform="translate(24.074706, 13.487558) scale(-1, 1) rotate(-28.453419) translate(-24.074706, -13.487558) "></path>
            <path d="M11.1680525,41.4842258 L11.7856305,44.4906126 C12.1685644,47.6058316 11.5412837,49.9060224 9.90378852,51.391185 C8.26629332,52.8763475 6.2524944,55.0589737 3.86239178,57.9390635 C2.00134522,62.9961196 2.2054257,67.2843971 4.47463322,70.803896 C7.87844451,76.0831443 12.4563101,78.4448778 13.8634673,78.824647 C15.2706246,79.2044163 21.1242904,79.4035237 22.8991225,78.824647 C24.082344,78.4387293 26.5916283,77.5299081 30.4269755,76.0981835 C31.2700233,75.7670764 31.6739114,75.0661447 31.63864,73.9953885 C31.6033686,72.9246323 31.1994805,72.1643133 30.4269755,71.7144316 C31.7670682,71.2558912 32.4371146,70.290545 32.4371146,68.818393 C32.4371146,67.346241 31.7670682,66.253516 30.4269755,65.540218 C31.7145898,65.1750441 32.3846361,64.2362655 32.4371146,62.723882 C32.489593,61.2114985 31.91907,60.0172694 30.7255456,59.1411946 L43.4447956,55.7476491 C44.7863498,55.3105726 45.2612665,54.2085042 44.8695459,52.4414442 C44.4778252,50.6743841 43.4778068,49.7937374 41.8694907,49.799504 L17.4892078,55.5974822 C17.0459375,55.7351538 16.7699352,55.7351538 16.6612007,55.5974822 C16.5524663,55.4598106 16.6157847,55.1905255 16.8511557,54.789627 C18.7785285,52.5073754 19.5677963,50.0029154 19.2189593,47.2762469 C18.6957038,43.1862442 17.0055592,38.8478934 13.8634673,38.6686497 C11.7687394,38.549154 10.8702678,39.4876793 11.1680525,41.4842258 Z" id="Path-3" fill="#D8AA13"></path>
        </g>
    </g>
</svg>