<?xml version="1.0" encoding="UTF-8"?>
<svg width="36px" height="36px" viewBox="0 0 36 36" version="1.1" xmlns="http://www.w3.org/2000/svg" xmlns:xlink="http://www.w3.org/1999/xlink">
    <!-- Generator: Sketch 45.2 (43514) - http://www.bohemiancoding.com/sketch -->
    <title>icons/config-grey</title>
    <desc>Created with Sketch.</desc>
    <defs></defs>
    <g id="ExamBuilder---Collections" stroke="none" stroke-width="1" fill="none" fill-rule="evenodd">
        <g id="Items" transform="translate(-106.000000, -88.000000)" fill="#969696">
            <g id="Group-15" transform="translate(106.000000, 88.000000)">
                <g id="icons/config-grey">
                    <g id="Path-283">
                        <path d="M14.7756246,11.8240368 L15.641335,11.4972076 C17.211047,10.9045986 18.7245685,10.9572787 20.0659579,11.4071178 L20.0870878,11.3529568 L20.9303406,11.7340033 C21.8191037,12.1356149 22.5560205,12.69217 23.151229,13.3624719 C23.587181,13.853425 23.9070116,14.3458183 24.1318672,14.7949702 L24.1759632,14.7756246 L24.5027924,15.641335 C25.0954014,17.211047 25.0427213,18.7245685 24.5928822,20.0659579 L24.6470432,20.0870878 L24.2659967,20.9303406 C23.8643851,21.8191037 23.30783,22.5560205 22.6375281,23.151229 C22.146575,23.587181 21.6541817,23.9070116 21.2050298,24.1318672 L21.2243754,24.1759632 L20.358665,24.5027924 C18.788953,25.0954014 17.2754315,25.0427213 15.9340421,24.5928822 L15.9129122,24.6470432 L15.0696594,24.2659967 C14.1808963,23.8643851 13.4439795,23.30783 12.848771,22.6375281 C12.412819,22.146575 12.0929884,21.6541817 11.8681328,21.2050298 L11.8240368,21.2243754 L11.4972076,20.358665 C10.9045986,18.788953 10.9572787,17.2754315 11.4071178,15.9340421 L11.3529568,15.9129122 L11.7340033,15.0696594 C12.1356149,14.1808963 12.69217,13.4439795 13.3624719,12.848771 C13.853425,12.412819 14.3458183,12.0929884 14.7949702,11.8681328 L14.7756246,11.8240368 Z M17.1892937,12.9546226 L16.1802888,13.206809 C16.1048498,13.2256638 15.9354021,13.2834597 15.7041974,13.3904182 C15.3045565,13.5752977 14.9028053,13.8295085 14.528486,14.1618931 C14.257227,14.4027632 14.0116962,14.6749416 13.7962183,14.9810942 L13.8591235,15.0056354 L13.323972,15.8974323 C13.2753591,15.9784426 13.1840343,16.1679395 13.0878078,16.4462322 C12.8327049,17.1840041 12.7411364,17.9919806 12.8911624,18.8385473 L12.9546226,18.8107063 L13.206809,19.8197112 C13.2256638,19.8951502 13.2834597,20.0645979 13.3904182,20.2958026 C13.5752977,20.6954435 13.8295085,21.0971947 14.1618931,21.471514 C14.4027632,21.742773 14.6749416,21.9883038 14.9810942,22.2037817 L15.0056354,22.1408765 L15.8974323,22.676028 C15.9784426,22.7246409 16.1679395,22.8159657 16.4462322,22.9121922 C17.1840041,23.1672951 17.9919806,23.2588636 18.8385473,23.1088376 L18.8107063,23.0453774 L19.8197112,22.793191 C19.8951502,22.7743362 20.0645979,22.7165403 20.2958026,22.6095818 C20.6954435,22.4247023 21.0971947,22.1704915 21.471514,21.8381069 C21.742773,21.5972368 21.9883038,21.3250584 22.2037817,21.0189058 L22.1408765,20.9943646 L22.676028,20.1025677 C22.7246409,20.0215574 22.8159657,19.8320605 22.9121922,19.5537678 C23.1672951,18.8159959 23.2588636,18.0080194 23.1088376,17.1614527 L23.0453774,17.1892937 L22.793191,16.1802888 C22.7743362,16.1048498 22.7165403,15.9354021 22.6095818,15.7041974 C22.4247023,15.3045565 22.1704915,14.9028053 21.8381069,14.528486 C21.5972368,14.257227 21.3250584,14.0116962 21.0189058,13.7962183 L20.9943646,13.8591235 L20.1025677,13.323972 C20.0215574,13.2753591 19.8320605,13.1840343 19.5537678,13.0878078 C18.8159959,12.8327049 18.0080194,12.7411364 17.1614527,12.8911624 L17.1892937,12.9546226 Z M16.0961366,1.75609756 L14.2091195,6.22536353 L13.2929185,6.65443219 L12.3503332,7.02307448 L7.70842801,5.31922486 L5.16759169,7.86006118 L6.9935174,12.354632 L6.87871489,12.6716718 L6.62715189,13.3605832 L6.2432238,14.2330593 L1.75609756,16.3105783 L1.75609756,19.9038634 L6.22536353,21.7908805 L6.36836689,22.0962391 L6.67761889,22.7612549 L7.02307448,23.6496668 L5.31922486,28.291572 L7.86006118,30.8324083 L12.354632,29.0064826 L12.6716718,29.1212851 L13.3605832,29.3728481 L14.2330593,29.7567762 L16.3105783,34.2439024 L19.9038634,34.2439024 L21.7908805,29.7746365 L22.0962391,29.6316331 L22.7612549,29.3223811 L23.6496668,28.9769255 L28.291572,30.6807751 L30.8324083,28.1399388 L29.0064826,23.645368 L29.1212851,23.3283282 L29.3728481,22.6394168 L29.7567762,21.7669407 L34.2439024,19.6894217 L34.2439024,16.0961366 L29.7746365,14.2091195 L29.6316331,13.9037609 L29.3223811,13.2387451 L28.9769255,12.3503332 L30.6807751,7.70842801 L28.1399388,5.16759169 L23.645368,6.9935174 L23.3283282,6.87871489 L22.6394168,6.62715189 L21.7669407,6.2432238 L19.6894217,1.75609756 L16.0961366,1.75609756 Z M12.853625,4.92102891 L14.9313858,0 L20.8115448,0 L23.0824334,4.90477527 L23.2920228,4.99788467 L23.6091925,5.11273422 L28.5580842,3.10224004 L32.7159845,7.26014036 L30.8535454,12.3341009 L30.9359091,12.5481413 L31.0789711,12.853625 L36,14.9313858 L36,20.8115448 L31.0952247,23.0824334 L31.0021153,23.2920228 L30.8872658,23.6091925 L32.89776,28.5580842 L28.7398596,32.7159845 L23.6658991,30.8535454 L23.4518587,30.9359091 L23.146375,31.0789711 L21.0686142,36 L15.1884552,36 L12.9175666,31.0952247 L12.7079772,31.0021153 L12.3908075,30.8872658 L7.44191584,32.89776 L3.28401551,28.7398596 L5.14645465,23.6658991 L5.06409086,23.4518587 L4.92102891,23.146375 L1.07231297e-15,21.0686142 L0,15.1884552 L4.90477527,12.9175666 L4.99788467,12.7079772 L5.11273422,12.3908075 L3.10224004,7.44191584 L7.26014036,3.28401551 L12.3324386,5.14584448 L12.5748388,5.05158808 L12.853625,4.92102891 Z" fill-rule="nonzero"></path>
                    </g>
                </g>
            </g>
        </g>
    </g>
</svg>