<?xml version="1.0" encoding="UTF-8"?>
<svg width="192px" height="248px" viewBox="0 0 192 248" version="1.1" xmlns="http://www.w3.org/2000/svg" xmlns:xlink="http://www.w3.org/1999/xlink">
    <!-- Generator: Sketch 51.3 (57544) - http://www.bohemiancoding.com/sketch -->
    <title>Group 4</title>
    <desc>Created with Sketch.</desc>
    <defs>
        <linearGradient x1="50%" y1="96.9449964%" x2="50%" y2="0%" id="linearGradient-1">
            <stop stop-color="#FFBF01" offset="0%"></stop>
            <stop stop-color="#FFA404" offset="100%"></stop>
        </linearGradient>
    </defs>
    <g id="Page-1" stroke="none" stroke-width="1" fill="none" fill-rule="evenodd">
        <g id="Artboard-Copy-3" transform="translate(-159.000000, -475.000000)" fill-rule="nonzero">
            <g id="Group-4" transform="translate(159.000000, 475.000000)">
                <rect id="Rectangle-18" fill="#F1F2F1" x="0" y="0" width="192" height="248" rx="7"></rect>
                <polygon id="Line" fill="#C2CECE" points="30.3773006 48 30.3773006 38 162.622699 38 162.622699 48"></polygon>
                <polygon id="Line" fill="#C2CECE" points="49.7607362 30 49.7607362 21 143.239264 21 143.239264 30"></polygon>
                <polygon id="Line" fill="#C2CECE" points="23.8466258 76 23.8466258 71 141.153374 71 141.153374 76"></polygon>
                <polygon id="Line" fill="#C2CECE" points="23.9386503 88 23.9386503 83 171.06135 83 171.06135 88"></polygon>
                <polygon id="Line" fill="#C2CECE" points="23.9386503 99 23.9386503 94 171.06135 94 171.06135 99"></polygon>
                <polygon id="Line" fill="#C2CECE" points="23.9386503 111 23.9386503 106 171.06135 106 171.06135 111"></polygon>
                <polygon id="Line" fill="#C2CECE" points="23.8466258 136 23.8466258 131 141.153374 131 141.153374 136"></polygon>
                <polygon id="Line" fill="#C2CECE" points="23.9386503 148 23.9386503 143 171.06135 143 171.06135 148"></polygon>
                <polygon id="Line" fill="#C2CECE" points="23.9386503 159 23.9386503 154 171.06135 154 171.06135 159"></polygon>
                <polygon id="Line" fill="#C2CECE" points="23.9386503 171 23.9386503 166 171.06135 166 171.06135 171"></polygon>
                <path d="M111.075294,134.759958 C108.785268,137.475437 107.47392,141.818877 107.387766,148.021944 L107.291894,154.924731 L74.7768817,154.924731 L74.7768817,147.924731 C74.7768817,139.803472 75.8156576,133.130124 78.02341,127.844899 C80.2436111,122.529872 84.355831,117.062668 90.3103107,111.291403 C95.2699924,106.484326 98.3952304,103.080727 99.4540851,101.451824 C100.897911,99.2499896 101.587366,96.974789 101.587366,94.4677419 C101.587366,90.981635 100.870735,88.7700965 99.6729291,87.4950132 C98.5722157,86.323286 96.6985289,85.6438172 93.5833333,85.6438172 C90.5622861,85.6438172 88.482297,86.3721888 86.9778168,87.762042 C85.607639,89.0278252 84.9233871,90.7417135 84.9233871,93.4018817 L84.9233871,100.401882 L50.9204571,100.401882 L51.0004468,93.3227907 C51.1316283,81.7132327 55.2470071,72.1505267 63.2875572,65.1616941 C71.1215663,58.3523866 81.3251897,55 93.5833333,55 C106.195781,55 116.440359,58.3331643 123.988785,65.1770699 C131.685775,72.1556746 135.510753,81.8456177 135.510753,93.7298387 C135.510753,104.616885 130.570607,115.049692 121.092991,124.901424 L120.957398,125.038539 L111.075294,134.759958 Z M73.3830645,173.423387 C73.3830645,168.387661 75.0945137,163.970271 78.5007047,160.61011 C81.9096556,157.247226 86.4203942,155.600806 91.6155914,155.600806 C96.8953898,155.600806 101.463378,157.296842 104.87936,160.758986 C108.223882,164.148704 109.930108,168.506496 109.930108,173.423387 C109.930108,178.221744 108.258047,182.494788 104.995576,185.847883 C101.609177,189.328348 97.0008394,191 91.6155914,191 C86.2171008,191 81.6073266,189.31959 78.2426077,185.8127 C75.0262709,182.460461 73.3830645,178.202011 73.3830645,173.423387 Z" id="?" stroke="#F1F2F1" stroke-width="14" fill="url(#linearGradient-1)"></path>
            </g>
        </g>
    </g>
</svg>