<?xml version="1.0" encoding="UTF-8"?>
<svg width="20px" height="20px" viewBox="0 0 20 20" version="1.1" xmlns="http://www.w3.org/2000/svg" xmlns:xlink="http://www.w3.org/1999/xlink">
    <!-- Generator: Sketch 3.8.3 (29802) - http://www.bohemiancoding.com/sketch -->
    <title>drag</title>
    <desc>Created with Sketch.</desc>
    <defs></defs>
    <g id="Website" stroke="none" stroke-width="1" fill="none" fill-rule="evenodd">
        <g id="Editor-S2.a---Interaction-QA" transform="translate(-889.000000, -750.000000)" fill="#CACACA">
            <g id="Group-37" transform="translate(874.000000, 685.000000)">
                <g id="Group-36" transform="translate(0.000000, 50.000000)">
                    <g id="drag" transform="translate(15.000000, 15.000000)">
                        <path d="M8.28282828,7.87878788 L11.7171717,7.87878788 L11.7171717,4.32975828 L13.9144373,4.35379399 C13.9282205,4.35394476 13.928383,4.34157668 13.9148828,4.32626277 L10.1255213,0.027804215 C10.1119841,0.0124483711 10.0894196,0.0124903045 10.0752089,0.027804215 L6.08640729,4.32626277 C6.07215766,4.34161861 6.06698084,4.35406699 6.08556266,4.35406699 L8.28282828,4.35406699 L8.28282828,7.87878788 Z" id="Path-585"></path>
                        <path d="M8.28282828,20 L11.7171717,20 L11.7171717,16.4509704 L13.9144373,16.4750061 C13.9282205,16.4751569 13.928383,16.4627888 13.9148828,16.4474749 L10.1255213,12.1490163 C10.1119841,12.1336605 10.0894196,12.1337024 10.0752089,12.1490163 L6.08640729,16.4474749 C6.07215766,16.4628307 6.06698084,16.4752791 6.08556266,16.4752791 L8.28282828,16.4752791 L8.28282828,20 Z" id="Path-585" transform="translate(10.000000, 16.060606) rotate(-180.000000) translate(-10.000000, -16.060606) "></path>
                        <path d="M14.3434343,13.9393939 L17.7777778,13.9393939 L17.7777778,10.3903643 L19.9750434,10.4144 C19.9888266,10.4145508 19.988989,10.4021827 19.9754888,10.3868688 L16.1861273,6.08841028 C16.1725902,6.07305443 16.1500256,6.07309637 16.1358149,6.08841028 L12.1470133,10.3868688 C12.1327637,10.4022247 12.1275869,10.414673 12.1461687,10.414673 L14.3434343,10.414673 L14.3434343,13.9393939 Z" id="Path-585" transform="translate(16.060606, 10.000000) rotate(-270.000000) translate(-16.060606, -10.000000) "></path>
                        <path d="M7.87878788,11.7171717 L7.87878788,8.28282828 L4.32975828,8.28282828 L4.35379399,6.08556266 C4.35394476,6.07177951 4.34157668,6.07161705 4.32626277,6.08511722 L0.027804215,9.87447874 C0.0124483711,9.88801588 0.0124903045,9.91058041 0.027804215,9.92479112 L4.32626277,13.9135927 C4.34161861,13.9278423 4.35406699,13.9330192 4.35406699,13.9144373 L4.35406699,11.7171717 L7.87878788,11.7171717" id="Path-585"></path>
                    </g>
                </g>
            </g>
        </g>
    </g>
</svg>