<?xml version="1.0" encoding="UTF-8"?>
<svg width="17px" height="19px" viewBox="0 0 17 19" version="1.1" xmlns="http://www.w3.org/2000/svg" xmlns:xlink="http://www.w3.org/1999/xlink">
    <!-- Generator: Sketch 46.2 (44496) - http://www.bohemiancoding.com/sketch -->
    <title>Combined Shape</title>
    <desc>Created with Sketch.</desc>
    <defs></defs>
    <g id="ExamBuilder---Exam-Designer" stroke="none" stroke-width="1" fill="none" fill-rule="evenodd">
        <g id="Artboard" transform="translate(-1166.000000, -426.000000)" fill="#FFFFFF">
            <path d="M1174.63203,442.833772 C1173.24913,442.939218 1172.84415,445.044027 1171.54816,445.009772 C1170.57333,444.984006 1169.57773,442.833772 1168.90778,442.833772 C1168.22367,442.833772 1167.04078,444.158497 1166.46301,444.830213 C1166.32434,444.991437 1166.17,444.963738 1166,444.747115 C1166,439.602216 1166,436.186511 1166,434.5 C1166,429.80558 1169.80558,426 1174.5,426 C1179.19442,426 1183,429.80558 1183,434.5 C1183,435.820118 1183,439.189532 1183,444.608243 C1183,444.875929 1182.86256,444.975579 1182.58767,444.907192 C1181.39189,443.743047 1180.84777,442.833772 1180.14458,442.833772 C1178.9737,442.833772 1178.11425,444.978362 1177.53022,445.009772 C1176.46894,445.06685 1175.23289,442.787957 1174.63203,442.833772 Z M1171.07571,436.88 C1172.37674,436.88 1173.43143,435.825311 1173.43143,434.524286 C1173.43143,433.223261 1172.37674,432.168571 1171.07571,432.168571 C1169.77469,432.168571 1168.72,433.223261 1168.72,434.524286 C1168.72,435.825311 1169.77469,436.88 1171.07571,436.88 Z M1177.97286,436.88 C1179.27388,436.88 1180.32857,435.825311 1180.32857,434.524286 C1180.32857,433.223261 1179.27388,432.168571 1177.97286,432.168571 C1176.67183,432.168571 1175.61714,433.223261 1175.61714,434.524286 C1175.61714,435.825311 1176.67183,436.88 1177.97286,436.88 Z" id="Combined-Shape"></path>
        </g>
    </g>
</svg>