<?xml version="1.0" encoding="UTF-8" standalone="no"?>
<svg width="26px" height="40px" viewBox="0 0 26 40" version="1.1" xmlns="http://www.w3.org/2000/svg" xmlns:xlink="http://www.w3.org/1999/xlink">
    <!-- Generator: Sketch 3.8.3 (29802) - http://www.bohemiancoding.com/sketch -->
    <title>icons/exam-bulb</title>
    <desc>Created with Sketch.</desc>
    <defs>
        <circle id="path-1" cx="10.5263158" cy="11.5789474" r="5.26315789"></circle>
        <mask id="mask-2" maskContentUnits="userSpaceOnUse" maskUnits="objectBoundingBox" x="0" y="0" width="10.5263158" height="10.5263158" fill="white">
            <use xlink:href="#path-1"></use>
        </mask>
    </defs>
    <g id="Website" stroke="none" stroke-width="1" fill="none" fill-rule="evenodd">
        <g id="Exam-Compiler" transform="translate(-496.000000, -465.000000)">
            <g id="exam/item" transform="translate(461.000000, 432.000000)">
                <g id="icons/exam-bulb" transform="translate(36.000000, 33.000000)">
                    <g id="Group-18" transform="translate(5.263158, 30.526316)">
                        <rect id="Rectangle-559" fill="#969696" x="0" y="0" width="14.7368421" height="2.10526316"></rect>
                        <polygon id="Rectangle-559" fill="#969696" points="0 3.15789474 14.7368421 3.15789474 13.3249291 5.26315789 1.36779073 5.26315789"></polygon>
                        <path d="M2.10526316,6.31578947 L12.6315789,6.31578947 L11.249746,7.89473684 C11.249746,7.89473684 9.30908352,8.94736842 7.36842105,8.94736842 C5.42775859,8.94736842 3.48709612,7.89473684 3.48709612,7.89473684 L2.10526316,6.31578947 Z" id="Rectangle-559" fill="#616161"></path>
                    </g>
                    <g id="Group-14">
                        <ellipse id="Oval-169" fill="#969696" cx="4.21052632" cy="21.0526316" rx="1.05263158" ry="1.05263158"></ellipse>
                        <ellipse id="Oval-169" fill="#969696" cx="12.6315789" cy="28.4210526" rx="1.05263158" ry="1.05263158"></ellipse>
                        <ellipse id="Oval-169" fill="#969696" cx="6.31578947" cy="28.4210526" rx="1.05263158" ry="1.05263158"></ellipse>
                        <circle id="Oval-169" fill="#969696" cx="18.9473684" cy="23.1578947" r="1.05263158"></circle>
                        <ellipse id="Oval-169" fill="#969696" cx="2.10526316" cy="10.5263158" rx="1.05263158" ry="1.05263158"></ellipse>
                        <ellipse id="Oval-169" fill="#969696" cx="8.42105263" cy="3.15789474" rx="1.05263158" ry="1.05263158"></ellipse>
                        <use id="Oval-166" stroke="#969696" mask="url(#mask-2)" stroke-width="2" xlink:href="#path-1"></use>
                        <circle id="Oval-166" stroke="#979797" cx="14.2105263" cy="19.4736842" r="2.63157895"></circle>
                        <circle id="Oval-166" stroke="#979797" cx="21.5789474" cy="11.0526316" r="2.63157895"></circle>
                        <circle id="Oval-166" stroke="#979797" cx="18.4210526" cy="4.73684211" r="2.63157895"></circle>
                        <circle id="Oval-166" stroke="#979797" cx="8.94736842" cy="23.6842105" r="2.63157895"></circle>
                        <ellipse id="Oval-166" stroke="#979797" cx="2.10526316" cy="14.7368421" rx="2.10526316" ry="2.10526316"></ellipse>
                        <circle id="Oval-166" fill="#969696" cx="21.0526316" cy="18.9473684" r="2.10526316"></circle>
                        <ellipse id="Oval-166" fill="#969696" cx="12.6315789" cy="2.10526316" rx="2.10526316" ry="2.10526316"></ellipse>
                        <ellipse id="Oval-166" stroke="#979797" cx="16.8421053" cy="27.3684211" rx="2.10526316" ry="2.10526316"></ellipse>
                        <ellipse id="Oval-166" stroke="#979797" cx="4.21052632" cy="6.31578947" rx="2.10526316" ry="2.10526316"></ellipse>
                    </g>
                </g>
            </g>
        </g>
    </g>
</svg>
