<?xml version="1.0" encoding="UTF-8" standalone="no"?>
<svg width="28px" height="19px" viewBox="0 0 28 19" version="1.1" xmlns="http://www.w3.org/2000/svg" xmlns:xlink="http://www.w3.org/1999/xlink">
    <!-- Generator: Sketch 3.8.3 (29802) - http://www.bohemiancoding.com/sketch -->
    <title>icons/eye</title>
    <desc>Created with Sketch.</desc>
    <defs>
        <path d="M11.3034188,15 C18.4443711,15 22.6068376,7.5 22.6068376,7.5 C22.6068376,7.5 18.4034878,5.65592977e-16 11.3034188,0 C4.20334985,-5.76932312e-16 0,7.5 0,7.5 C0,7.5 4.16246653,15 11.3034188,15 Z" id="path-1"></path>
        <mask id="mask-2" maskContentUnits="userSpaceOnUse" maskUnits="objectBoundingBox" x="-2" y="-2" width="26.6068376" height="19">
            <rect x="-2" y="-2" width="26.6068376" height="19" fill="white"></rect>
            <use xlink:href="#path-1" fill="black"></use>
        </mask>
        <path d="M14.8148148,7.73333333 C14.8148148,9.79506667 13.2891481,11.4666667 11.4074074,11.4666667 C9.52566667,11.4666667 8,9.79506667 8,7.73333333 C8,5.6716 9.52566667,4 11.4074074,4 C13.2891481,4 14.8148148,5.6716 14.8148148,7.73333333 L14.8148148,7.73333333 Z" id="path-3"></path>
        <mask id="mask-4" maskContentUnits="userSpaceOnUse" maskUnits="objectBoundingBox" x="-2" y="-2" width="10.8148148" height="11.4666667">
            <rect x="6" y="2" width="10.8148148" height="11.4666667" fill="white"></rect>
            <use xlink:href="#path-3" fill="black"></use>
        </mask>
    </defs>
    <g id="Website" stroke="none" stroke-width="1" fill="none" fill-rule="evenodd">
        <g id="Collections" transform="translate(-436.000000, -1377.000000)" stroke="#989898">
            <g id="Collection-Card-Simple" transform="translate(139.000000, 1158.000000)">
                <g id="Collection-Card" transform="translate(0.000000, 0.996937)">
                    <g id="Group-18">
                        <g id="ui/form-actions" transform="translate(173.000000, 180.000000)">
                            <g id="icons/eye" transform="translate(127.000000, 40.000000)">
                                <use id="Oval-33" mask="url(#mask-2)" stroke-width="4" xlink:href="#path-1"></use>
                                <use id="Stroke-7483" mask="url(#mask-4)" stroke-width="4" stroke-linecap="round" stroke-linejoin="round" xlink:href="#path-3"></use>
                                <path d="M11.7037037,6 C12.645,6 13.4074074,6.83626667 13.4074074,7.86666667 C13.4074074,8.89706667 12.645,9.73333333 11.7037037,9.73333333 C10.7624074,9.73333333 10,8.89706667 10,7.86666667" id="Stroke-7484" stroke-width="2" stroke-linecap="round" stroke-linejoin="round"></path>
                            </g>
                        </g>
                    </g>
                </g>
            </g>
        </g>
    </g>
</svg>