<?xml version="1.0" encoding="UTF-8"?>
<svg width="26px" height="17px" viewBox="0 0 26 17" version="1.1" xmlns="http://www.w3.org/2000/svg" xmlns:xlink="http://www.w3.org/1999/xlink">
    <!-- Generator: Sketch 51.3 (57544) - http://www.bohemiancoding.com/sketch -->
    <title>eye</title>
    <desc>Created with Sketch.</desc>
    <defs></defs>
    <g id="XRP---Dashboard" stroke="none" stroke-width="1" fill="none" fill-rule="evenodd">
        <g id="Dashboard" transform="translate(-445.000000, -41.000000)" stroke="#FFFFFF">
            <g id="eye" transform="translate(447.000000, 42.000000)">
                <path d="M11.3034188,15.5 C8.03206735,15.5 5.12769975,14.0355042 2.62574616,11.608918 C1.75680638,10.7661536 0.998823412,9.86447312 0.354980124,8.96233175 C0.129189639,8.64595827 -0.066491123,8.35163791 -0.231576144,8.08665588 C-0.331970901,7.92550979 -0.400679445,7.80840622 -0.437182535,7.74263436 L-0.572504067,7.49880982 L-0.436169932,7.25555002 C-0.399358979,7.18986857 -0.330087277,7.07285605 -0.228934591,6.91180191 C-0.0625755885,6.64692703 0.134452707,6.35271375 0.36160347,6.03644732 C1.00935144,5.13457519 1.77055726,4.23315254 2.64155123,3.39062308 C5.14978024,0.964364195 8.04989559,-0.5 11.3034188,-0.5 C14.556942,-0.5 17.4570574,0.964364195 19.9652864,3.39062308 C20.8362803,4.23315254 21.5974862,5.13457519 22.2452341,6.03644732 C22.4723849,6.35271375 22.6694132,6.64692703 22.8357722,6.91180191 C22.9369249,7.07285605 23.0061966,7.18986857 23.0430075,7.25555002 L23.1793417,7.49880982 L23.0440201,7.74263436 C23.0075171,7.80840622 22.9388085,7.92550979 22.8384138,8.08665588 C22.6733287,8.35163791 22.477648,8.64595827 22.2518575,8.96233175 C21.6080142,9.86447312 20.8500312,10.7661536 19.9810914,11.608918 C17.4791379,14.0355042 14.5747703,15.5 11.3034188,15.5 Z" id="Oval-33"></path>
                <path d="M15.3148148,7.73333333 C15.3148148,10.0615313 13.5760008,11.9666667 11.4074074,11.9666667 C9.23881401,11.9666667 7.5,10.0615313 7.5,7.73333333 C7.5,5.40513535 9.23881401,3.5 11.4074074,3.5 C13.5760008,3.5 15.3148148,5.40513535 15.3148148,7.73333333 Z" id="Stroke-7483" stroke-linecap="round" stroke-linejoin="round"></path>
                <path d="M11.7037037,6 C12.645,6 13.4074074,6.83626667 13.4074074,7.86666667 C13.4074074,8.89706667 12.645,9.73333333 11.7037037,9.73333333 C10.7624074,9.73333333 10,8.89706667 10,7.86666667" id="Stroke-7484" stroke-linecap="round" stroke-linejoin="round"></path>
            </g>
        </g>
    </g>
</svg>