<?xml version="1.0" encoding="UTF-8"?>
<svg width="59px" height="42px" viewBox="0 0 59 42" version="1.1" xmlns="http://www.w3.org/2000/svg" xmlns:xlink="http://www.w3.org/1999/xlink">
    <!-- Generator: Sketch 45.2 (43514) - http://www.bohemiancoding.com/sketch -->
    <title>Group 31</title>
    <desc>Created with Sketch.</desc>
    <defs></defs>
    <g id="ExamBuilder---Exam-Manager" stroke="none" stroke-width="1" fill="none" fill-rule="evenodd">
        <g id="Exam-Manager-Home" transform="translate(-622.000000, -73.000000)">
            <g id="Group-31" transform="translate(622.000000, 73.000000)">
                <path d="M12.9163457,6.51226035e-16 L26,6.51226035e-16 L26,4.4408921e-16 C27.6568542,1.39726555e-16 29,1.34314575 29,3 L29,4.32943901 L29,4.32943901 C29,5.43400851 29.8954305,6.32943901 31,6.32943901 L36.1935867,6.32943901 L29.8971062,15.1732852 L29.8971062,15.1732852 C29.3342408,15.9638688 28.4237068,16.4333333 27.4532224,16.4333333 L12.365505,16.4333333 L12.365505,16.4333333 C10.9638628,16.4333333 9.74902947,15.4627808 9.43954738,14.0957322 L7.68135917,6.32943901 L8.34177553,6.20406289 L8.34177553,6.20406289 C9.2856422,6.02487543 9.96875,5.19988277 9.96875,4.23915782 L9.96875,2.94759574 L9.96875,2.94759574 C9.96875,1.31968356 11.2884336,7.43139274e-16 12.9163457,4.4408921e-16 Z" id="Rectangle-3" fill="#FFA100"></path>
                <rect id="Rectangle-2" fill="#FFA100" x="3.625" y="5.8" width="51.65625" height="29.9666667" rx="3"></rect>
                <path d="M3.45861763,9.66666667 L55.0589719,9.66666667 L55.0589719,9.66666667 C56.7158262,9.66666667 58.0589719,11.0098124 58.0589719,12.6666667 C58.0589719,12.731864 58.0568466,12.797044 58.0525992,12.8621029 L56.3617416,38.7621029 L56.3617416,38.7621029 C56.2587478,40.3397276 54.9490973,41.5666667 53.3681142,41.5666667 L5.11028937,41.5666667 L5.11028937,41.5666667 C3.52756399,41.5666667 2.2170985,40.3371091 2.11637096,38.7575922 L0.46469922,12.8575922 L0.46469922,12.8575922 C0.359253978,11.2040967 1.61419665,9.7781935 3.26769213,9.67274826 C3.33125327,9.66869489 3.39492738,9.66666667 3.45861763,9.66666667 Z" id="Rectangle" fill="#FFCB00"></path>
            </g>
        </g>
    </g>
</svg>