<?xml version="1.0" encoding="UTF-8"?>
<svg width="59px" height="54px" viewBox="0 0 59 54" version="1.1" xmlns="http://www.w3.org/2000/svg" xmlns:xlink="http://www.w3.org/1999/xlink">
    <!-- Generator: Sketch 44.1 (41455) - http://www.bohemiancoding.com/sketch -->
    <title>Group 3</title>
    <desc>Created with Sketch.</desc>
    <defs></defs>
    <g id="Page-1" stroke="none" stroke-width="1" fill="none" fill-rule="evenodd">
        <g id="Artboard" transform="translate(-4.000000, -6.000000)" fill="#999999">
            <g id="Group-3" transform="translate(4.000000, 6.000000)">
                <g id="Group" transform="translate(36.735849, 0.000000)">
                    <path d="M3.39176138,29.5870572 C11.5275357,29.5870572 22.2641509,29.5870572 22.2641509,29.5870572 C22.2641509,24.8449502 19.8920546,20.656876 16.2697026,18.1446753 C14.2358311,19.9067514 11.5826119,20.9729512 8.68036837,20.9729512 C7.9663225,20.9729512 7.26735055,20.908412 6.58896768,20.7848489 C6.27245474,24.0287913 5.1368968,27.0326844 3.39176467,29.5870572 Z" id="Combined-Shape"></path>
                    <path d="M6.67906785,19.0073567 C7.32460769,19.1441299 7.9940853,19.2160827 8.68036837,19.2160827 C13.9867431,19.2160827 18.2884097,14.914416 18.2884097,9.60804133 C18.2884097,4.30166663 13.9867431,0 8.68036837,0 C5.12327181,0 2.01765198,1.93300169 0.35664028,4.80587366 C4.23665357,8.27148058 6.67924528,13.3127555 6.67924528,18.9245283 C6.67924528,18.9521516 6.6791861,18.9797611 6.67906785,19.0073567 Z" id="Combined-Shape"></path>
                </g>
                <g id="Group-2">
                    <path d="M10.7075791,33.7843099 C4.2646747,37.9471626 0,45.1925283 0,53.4339623 C0,53.4339623 46.754717,53.4339623 46.754717,53.4339623 C46.754717,45.4672225 42.7695951,38.4312579 36.6840438,34.2107608 C33.2671397,37.1710486 28.8097314,38.9622642 23.9339623,38.9622642 C18.8283078,38.9622642 14.1813944,36.9981604 10.7075791,33.7843099 Z" id="Combined-Shape"></path>
                    <circle id="Oval" cx="23.9339623" cy="19.4811321" r="16.1415094"></circle>
                </g>
            </g>
        </g>
    </g>
</svg>