<?xml version="1.0" encoding="UTF-8"?>
<svg width="37px" height="40px" viewBox="0 0 37 40" version="1.1" xmlns="http://www.w3.org/2000/svg" xmlns:xlink="http://www.w3.org/1999/xlink">
    <!-- Generator: Sketch 3.8.3 (29802) - http://www.bohemiancoding.com/sketch -->
    <title>Group 43</title>
    <desc>Created with Sketch.</desc>
    <defs>
        <path d="M17.804693,28.8891393 C18.1992212,29.0847799 18.3416762,28.9359191 18.1230416,28.5569381 L12.2596035,18.393261 C11.7536705,17.5162773 12.0542968,16.4061611 12.9420841,15.907562 L13.6201483,15.5267477 C14.503005,15.0309178 15.6387709,15.3265128 16.1618502,16.1951104 L19.6754903,22.029674 C19.7279972,22.116864 19.8414211,22.1475685 19.9246801,22.1005955 L22.2623528,20.781728 C22.4693215,20.6649605 22.7951314,20.6914268 22.9795901,20.8328101 L24.0168757,21.6278653 C24.0703854,21.6688792 24.1582085,21.672584 24.2237917,21.6289893 L26.3183701,20.2366735 C26.51501,20.1059623 26.8585878,20.0610322 27.0735597,20.132272 L28.2824334,20.5328825 C28.3447946,20.5535485 28.4476208,20.5456312 28.5097303,20.516318 L29.8482333,19.8845992 C30.7091033,19.4783037 31.7971472,19.8233685 32.2699466,20.6406288 L35.4761652,26.1827582 L36.1383509,32.9945121 C36.1615123,33.2327683 36.0221173,33.5183664 35.8099597,33.6423755 L26.4809085,39.0953398 C26.2763817,39.2148887 26.0032223,39.1503526 25.8736774,38.9555366 L24.1137633,36.3088903 L13.4357727,31.6927877 C12.564796,31.3162639 12.1791255,30.3097854 12.5727741,29.4482123 L13.0334061,28.4400333 C13.4277618,27.5769123 14.4311041,27.216228 15.2834793,27.6389079 L17.804693,28.8891393 Z" id="path-1"></path>
        <mask id="mask-2" maskContentUnits="userSpaceOnUse" maskUnits="objectBoundingBox" x="0" y="0" width="24.131103" height="23.8689779" fill="white">
            <use xlink:href="#path-1"></use>
        </mask>
    </defs>
    <g id="Website" stroke="none" stroke-width="1" fill="none" fill-rule="evenodd">
        <g id="Editor-S1---Question-Metadata" transform="translate(-1050.000000, -1141.000000)">
            <g id="Group-42" transform="translate(845.000000, 1104.000000)">
                <g id="Group-50">
                    <g id="Group-49">
                        <g id="Group-48" transform="translate(0.000000, 12.000000)">
                            <g id="Group-43" transform="translate(205.000000, 25.000000)">
                                <g id="Group-44">
                                    <g id="Group-46">
                                        <polygon id="Path" fill="#FFFFFF" points="21.685476 15.2954139 27.5269274 15.2954139 28.262215 15.2954139 28.262215 13.8347493 27.5269274 13.8347493 21.685476 13.8347493 20.9501885 13.8347493 20.9501885 15.2954139"></polygon>
                                        <polygon id="Path" fill="#FFFFFF" points="3.96656355 23.0718473 9.80801493 23.0718473 10.5433025 23.0718473 10.5433025 21.6111827 9.80801493 21.6111827 3.96656355 21.6111827 3.23127596 21.6111827 3.23127596 23.0718473"></polygon>
                                        <polygon id="Path" fill="#FFFFFF" points="0.735287587 15.8634502 6.57673897 15.8634502 7.31202656 15.8634502 7.31202656 14.4027856 6.57673897 14.4027856 0.735287587 14.4027856 0 14.4027856 0 15.8634502"></polygon>
                                        <polygon id="Path" fill="#FFFFFF" points="3.63793314 8.46520116 9.47938453 8.46520116 10.2146721 8.46520116 10.2146721 7.00453654 9.47938453 7.00453654 3.63793314 7.00453654 2.90264555 7.00453654 2.90264555 8.46520116"></polygon>
                                        <polygon id="Path" fill="#FFFFFF" points="10.963909 5.19248367 16.8053604 5.19248367 17.540648 5.19248367 17.540648 3.73181905 16.8053604 3.73181905 10.963909 3.73181905 10.2286214 3.73181905 10.2286214 5.19248367"></polygon>
                                        <polygon id="Path" fill="#FFFFFF" points="18.4263015 8.05946099 24.2677528 8.05946099 25.0030404 8.05946099 25.0030404 6.59879637 24.2677528 6.59879637 18.4263015 6.59879637 17.6910139 6.59879637 17.6910139 8.05946099"></polygon>
                                        <use id="Path-695" stroke="#FFFFFF" mask="url(#mask-2)" stroke-width="21.308736" xlink:href="#path-1"></use>
                                    </g>
                                </g>
                            </g>
                        </g>
                    </g>
                </g>
            </g>
        </g>
    </g>
</svg>