<?xml version="1.0" encoding="UTF-8" standalone="no"?>
<svg width="28px" height="27px" viewBox="0 0 28 27" version="1.1" xmlns="http://www.w3.org/2000/svg" xmlns:xlink="http://www.w3.org/1999/xlink">
    <!-- Generator: Sketch 3.8.3 (29802) - http://www.bohemiancoding.com/sketch -->
    <title>icons/question-grey</title>
    <desc>Created with Sketch.</desc>
    <defs></defs>
    <g id="Symbols" stroke="none" stroke-width="1" fill="none" fill-rule="evenodd">
        <g id="icons/question-grey" fill="#969696">
            <g id="Group-15">
                <g>
                    <g id="pathways">
                        <path d="M3.97782398,7.91683992 C6.16399895,7.91683992 7.93624394,6.14459493 7.93624394,3.95841996 C7.93624394,1.77224498 6.16399895,0 3.97782398,0 C1.791649,0 0.0194040194,1.77224498 0.0194040194,3.95841996 C0.0194040194,6.14459493 1.791649,7.91683992 3.97782398,7.91683992 L3.97782398,7.91683992 Z M3.97782398,6.4033264 C2.62753943,6.4033264 1.53291753,5.3087045 1.53291753,3.95841996 C1.53291753,2.60813541 2.62753943,1.51351351 3.97782398,1.51351351 C5.32810852,1.51351351 6.42273042,2.60813541 6.42273042,3.95841996 C6.42273042,5.3087045 5.32810852,6.4033264 3.97782398,6.4033264 L3.97782398,6.4033264 Z" id="Oval"></path>
                        <polygon id="Shape" points="27.7275671 3.78378378 10.5945946 3.78378378 10.5945946 5.2972973 27.7275671 5.2972973"></polygon>
                    </g>
                </g>
                <g transform="translate(0.000000, 9.081081)">
                    <g id="pathways">
                        <path d="M3.97782398,7.91683992 C6.16399895,7.91683992 7.93624394,6.14459493 7.93624394,3.95841996 C7.93624394,1.77224498 6.16399895,0 3.97782398,0 C1.791649,0 0.0194040194,1.77224498 0.0194040194,3.95841996 C0.0194040194,6.14459493 1.791649,7.91683992 3.97782398,7.91683992 L3.97782398,7.91683992 Z M3.97782398,6.4033264 C2.62753943,6.4033264 1.53291753,5.3087045 1.53291753,3.95841996 C1.53291753,2.60813541 2.62753943,1.51351351 3.97782398,1.51351351 C5.32810852,1.51351351 6.42273042,2.60813541 6.42273042,3.95841996 C6.42273042,5.3087045 5.32810852,6.4033264 3.97782398,6.4033264 L3.97782398,6.4033264 Z" id="Oval"></path>
                        <polygon id="Shape" points="27.7275671 3.78378378 10.5945946 3.78378378 10.5945946 5.2972973 27.7275671 5.2972973"></polygon>
                    </g>
                </g>
                <g transform="translate(0.000000, 18.162162)">
                    <g id="pathways">
                        <path d="M3.97782398,7.91683992 C6.16399895,7.91683992 7.93624394,6.14459493 7.93624394,3.95841996 C7.93624394,1.77224498 6.16399895,0 3.97782398,0 C1.791649,0 0.0194040194,1.77224498 0.0194040194,3.95841996 C0.0194040194,6.14459493 1.791649,7.91683992 3.97782398,7.91683992 L3.97782398,7.91683992 Z M3.97782398,6.4033264 C2.62753943,6.4033264 1.53291753,5.3087045 1.53291753,3.95841996 C1.53291753,2.60813541 2.62753943,1.51351351 3.97782398,1.51351351 C5.32810852,1.51351351 6.42273042,2.60813541 6.42273042,3.95841996 C6.42273042,5.3087045 5.32810852,6.4033264 3.97782398,6.4033264 L3.97782398,6.4033264 Z" id="Oval"></path>
                        <polygon id="Shape" points="27.7275671 3.78378378 10.5945946 3.78378378 10.5945946 5.2972973 27.7275671 5.2972973"></polygon>
                    </g>
                </g>
            </g>
        </g>
    </g>
</svg>