<?xml version="1.0" encoding="UTF-8"?>
<svg width="157px" height="89px" viewBox="0 0 157 89" version="1.1" xmlns="http://www.w3.org/2000/svg" xmlns:xlink="http://www.w3.org/1999/xlink">
    <!-- Generator: Sketch 3.8.3 (29802) - http://www.bohemiancoding.com/sketch -->
    <title>level-4</title>
    <desc>Created with Sketch.</desc>
    <defs>
        <rect id="path-1" x="0" y="0" width="157" height="78"></rect>
        <path d="M8.50000027,15.5 C22.1976093,-4.547494 139.000002,1.49999998 139.000002,1.49999998 L76.5,72.5 L1,72.5 C1,72.5 -2.96905737,32.2858393 8.50000027,15.5 Z" id="path-3"></path>
    </defs>
    <g id="Page-1" stroke="none" stroke-width="1" fill="none" fill-rule="evenodd">
        <g id="level-4">
            <g id="Round">
                <mask id="mask-2" fill="white">
                    <use xlink:href="#path-1"></use>
                </mask>
                <use id="Mask" fill="#FFFFFF" xlink:href="#path-1"></use>
                <g mask="url(#mask-2)" id="Group">
                    <g transform="translate(0.000000, 6.000000)">
                        <g transform="translate(11.000000, 5.000000)">
                            <circle id="Oval-1" stroke="#D1D2D4" stroke-width="3" cx="67" cy="67" r="67"></circle>
                            <circle id="Oval-1" fill="#D1D2D4" cx="67" cy="67" r="58"></circle>
                            <circle id="Oval-1" fill="#FFFFFF" cx="67" cy="67" r="30"></circle>
                        </g>
                        <g>
                            <mask id="mask-4" fill="white">
                                <use xlink:href="#path-3"></use>
                            </mask>
                            <g id="Mask"></g>
                            <g mask="url(#mask-4)" id="Oval-1">
                                <g transform="translate(9.000000, 3.000000)">
                                    <path d="M69,137.5 C106.831505,137.5 137.5,106.831505 137.5,69 C137.5,31.1684946 106.831505,0.5 69,0.5 C31.1684946,0.5 0.5,31.1684946 0.5,69 C0.5,106.831505 31.1684946,137.5 69,137.5 L69,137.5 Z M69,134.5 C32.8253489,134.5 3.5,105.174651 3.5,69 C3.5,32.8253489 32.8253489,3.5 69,3.5 C105.174651,3.5 134.5,32.8253489 134.5,69 C134.5,105.174651 105.174651,134.5 69,134.5 L69,134.5 Z" fill="#FF8300"></path>
                                    <circle fill="#FF8300" cx="69" cy="69" r="58"></circle>
                                    <circle fill="#FFFFFF" cx="69" cy="69" r="30"></circle>
                                </g>
                            </g>
                        </g>
                    </g>
                </g>
            </g>
            <g id="Group-2" transform="translate(102.937188, 48.661052) rotate(-270.000000) translate(-102.937188, -48.661052) translate(64.937188, 15.161052)">
                <path d="M5.08642745,4.59599314 L67.3621813,58.5193692" id="Line" stroke="#FFFFFF" stroke-width="15" stroke-linecap="square"></path>
                <circle id="Oval-4" fill="#999999" cx="68" cy="59" r="8"></circle>
                <polygon id="Line" fill="#979797" points="3.12265392 6.86394233 65.3984078 60.7873183 67.666357 62.7510919 71.593904 58.2151935 69.3259549 56.25142 7.05020098 2.32804395 4.78225179 0.364270425 0.854704735 4.90016881"></polygon>
            </g>
        </g>
    </g>
</svg>