<?xml version="1.0" encoding="UTF-8"?>
<svg width="23px" height="22px" viewBox="0 0 23 22" version="1.1" xmlns="http://www.w3.org/2000/svg" xmlns:xlink="http://www.w3.org/1999/xlink">
    <!-- Generator: Sketch 43.1 (39012) - http://www.bohemiancoding.com/sketch -->
    <title>link</title>
    <desc>Created with Sketch.</desc>
    <defs>
        <path d="M12.8356362,5.74952801 L3.83563616,13.749528 C3.42285339,14.116446 3.38567266,14.7485184 3.75259068,15.1613012 C4.1195087,15.5740839 4.75158107,15.6112647 5.16436384,15.2443466 L14.1643638,7.24434665 C14.5771466,6.87742863 14.6143273,6.24535626 14.2474093,5.83257349 C13.8804913,5.41979072 13.2484189,5.38260999 12.8356362,5.74952801 L12.8356362,5.74952801 Z" id="path-1"></path>
    </defs>
    <g id="Symbols" stroke="none" stroke-width="1" fill="none" fill-rule="evenodd">
        <g id="icons/linked" transform="translate(2.000000, 1.000000)">
            <g id="link">
                <circle id="Oval-402" stroke="#F88686" stroke-width="3" cx="14.5" cy="5.49693733" r="4.5"></circle>
                <circle id="Oval-402" stroke="#F88686" stroke-width="3" cx="4.5" cy="14.4969373" r="4.5"></circle>
                <g id="Line" fill-rule="nonzero">
                    <use fill="#979797" fill-rule="evenodd" xlink:href="#path-1"></use>
                    <path stroke="#FFFFFF" stroke-width="1" d="M12.5034542,5.37582335 L3.50345424,13.3758234 C2.88428009,13.9262004 2.828509,14.8743089 3.37888602,15.4934831 C3.92926305,16.1126572 4.87737161,16.1684283 5.49654576,15.6180513 L14.4965458,7.61805131 C15.1157199,7.06767428 15.171491,6.11956572 14.621114,5.50039157 C14.070737,4.88121742 13.1226284,4.82544633 12.5034542,5.37582335 L12.5034542,5.37582335 Z"></path>
                </g>
            </g>
        </g>
    </g>
</svg>