<?xml version="1.0" encoding="UTF-8"?>
<svg width="16px" height="20px" viewBox="0 0 16 20" version="1.1" xmlns="http://www.w3.org/2000/svg" xmlns:xlink="http://www.w3.org/1999/xlink">
    <!-- Generator: Sketch 46.2 (44496) - http://www.bohemiancoding.com/sketch -->
    <title>Group 3</title>
    <desc>Created with Sketch.</desc>
    <defs>
        <path d="M2.5,2.91464715 L2.5,5 L1.5,5 L1.5,2.91464715 C0.917403814,2.70872894 0.5,2.15310941 0.5,1.5 C0.5,0.671572875 1.17157288,0 2,0 C2.82842712,0 3.5,0.671572875 3.5,1.5 C3.5,2.15310941 3.08259619,2.70872894 2.5,2.91464715 Z" id="path-1"></path>
    </defs>
    <g id="Page-1" stroke="none" stroke-width="1" fill="none" fill-rule="evenodd">
        <g id="Group-3">
            <g id="Group-2">
                <path d="M0.625,8.625 L0.625,19.375 L15.375,19.375 L15.375,8.625 L12.7335387,8.625 L12.7182187,8.01571002 C12.6090858,3.67538967 11.3993759,1.60067001 8.10093403,1.60067001 C4.7917665,1.60067001 3.54384237,3.70456729 3.42784379,8.01680633 L3.41148347,8.625 L0.625,8.625 Z" id="Combined-Shape" stroke="#FFFFFF" stroke-width="1.25"></path>
                <g id="Group" transform="translate(6.000000, 11.500000)">
                    <g id="Combined-Shape">
                        <use fill="#FFFFFF" fill-rule="evenodd" xlink:href="#path-1"></use>
                        <path stroke="#FFFFFF" stroke-width="1" d="M2.33337696,2.4432272 C2.72955178,2.3031995 3,1.92726209 3,1.5 C3,0.94771525 2.55228475,0.5 2,0.5 C1.44771525,0.5 1,0.94771525 1,1.5 C1,1.92726209 1.27044822,2.3031995 1.66662304,2.4432272 L2,2.56105905 L2,2.7378531 L2,2.56105905 L2.33337696,2.4432272 Z M2,4.5 L2,4.75 L2,4.5 Z"></path>
                    </g>
                </g>
            </g>
            <polygon id="Line" fill="#FFFFFF" fill-rule="nonzero" points="2.80357143 9.25 15.8035714 9.25 15.8035714 8 2.80357143 8"></polygon>
        </g>
    </g>
</svg>