<?xml version="1.0" encoding="UTF-8"?>
<svg width="22px" height="26px" viewBox="0 0 22 26" version="1.1" xmlns="http://www.w3.org/2000/svg" xmlns:xlink="http://www.w3.org/1999/xlink">
    <!-- Generator: Sketch 3.8.3 (29802) - http://www.bohemiancoding.com/sketch -->
    <title>unlocked</title>
    <desc>Created with Sketch.</desc>
    <defs></defs>
    <g id="Website" stroke="none" stroke-width="1" fill="none" fill-rule="evenodd">
        <g id="Editor-S1---Question-Metadata" transform="translate(-1384.000000, -1007.000000)">
            <g id="unlocked" transform="translate(1384.000000, 1007.000000)">
                <path d="M2.80851064,8.19085294 C2.80851064,3.66716977 6.48517085,0 11,0 C15.5240347,0 19.1914894,3.67074268 19.1914894,8.19085294 L19.1914894,12.6091471 C19.1914894,17.1328302 15.5148292,20.8 11,20.8 C6.47596535,20.8 2.80851064,17.1292573 2.80851064,12.6091471 L2.80851064,8.19085294 Z M5.61702128,7.83667079 C5.61702128,5.07507741 7.84773462,2.83636364 10.6217865,2.83636364 L11.3782135,2.83636364 C14.142269,2.83636364 16.3829787,5.07146329 16.3829787,7.83667079 L16.3829787,13.4360565 C16.3829787,16.1976499 14.1522654,18.4363636 11.3782135,18.4363636 L10.6217865,18.4363636 C7.857731,18.4363636 5.61702128,16.201264 5.61702128,13.4360565 L5.61702128,7.83667079 Z" id="Combined-Shape" fill="#BCBEC1"></path>
                <polygon id="Rectangle-638" fill="#FFFFFF" points="3 1.5 9 6 9 12 1 12"></polygon>
                <rect id="Rectangle-699" fill="#A2A2A2" x="0" y="11.3454545" width="22" height="14.6545455"></rect>
                <g id="Group-31" transform="translate(9.361702, 16.072727)" fill="#FFFFFF">
                    <ellipse id="Oval-355" cx="1.63829787" cy="1.65454545" rx="1.63829787" ry="1.65454545"></ellipse>
                    <rect id="Rectangle-701" x="0.936170213" y="1.89090909" width="1.49787236" height="3.30909091"></rect>
                </g>
            </g>
        </g>
    </g>
</svg>