<?xml version="1.0" encoding="UTF-8"?>
<svg width="18px" height="16px" viewBox="0 0 18 16" version="1.1" xmlns="http://www.w3.org/2000/svg" xmlns:xlink="http://www.w3.org/1999/xlink">
    <!-- Generator: Sketch 46.2 (44496) - http://www.bohemiancoding.com/sketch -->
    <title>Group 4</title>
    <desc>Created with Sketch.</desc>
    <defs></defs>
    <g id="Page-1" stroke="none" stroke-width="1" fill="none" fill-rule="evenodd">
        <g id="Group-4" fill="#888888">
            <path d="M4.07913108,14.7015843 C4.41189701,15.3371591 5.19689224,15.5826341 5.83246699,15.2498682 C6.14168995,15.0879693 6.37274872,14.8084394 6.47356982,14.474276 L9.94436764,2.97059488 L17.6381753,2.97059488 L17.6381753,0.570594885 L9.20155571,0.570594885 C8.58411705,0.570594885 8.03957996,0.975083528 7.86123209,1.56620326 L4.95469766,11.1996786 L3.6781132,8.76143364 C3.45376875,8.33294125 3.01008687,8.06442349 2.52641739,8.06442349 L0.328590068,8.06442349 L0.328590068,10.4644235 L1.86069372,10.4644235 L4.07913108,14.7015843 Z" id="Path-2" fill-rule="nonzero"></path>
            <polygon id="Path-3" points="10.2985525 6.16322175 12.7948307 9.52200581 10.2985525 12.9764524 12.7948307 12.9764524 13.9972472 11.2539094 15.2588099 12.9764524 17.8215375 12.9764524 15.2588099 9.56983709 17.7673802 6.16322175 15.2588099 6.08972617 13.9972472 7.87835866 12.7948307 6.16322175"></polygon>
        </g>
    </g>
</svg>