<?xml version="1.0" encoding="UTF-8"?>
<svg width="43px" height="43px" viewBox="0 0 43 43" version="1.1" xmlns="http://www.w3.org/2000/svg" xmlns:xlink="http://www.w3.org/1999/xlink">
    <!-- Generator: Sketch 46.2 (44496) - http://www.bohemiancoding.com/sketch -->
    <title>browser-icon</title>
    <desc>Created with Sketch.</desc>
    <defs></defs>
    <g id="ExamBuilder---Classes" stroke="none" stroke-width="1" fill="none" fill-rule="evenodd">
        <g id="Class---Default-view" transform="translate(-145.000000, -87.000000)" stroke="#969696" fill-rule="nonzero" fill="#969696">
            <g id="browser-icon" transform="translate(146.000000, 88.000000)">
                <path d="M20.5,40.5543478 C9.42428953,40.5543478 0.445652174,31.5757105 0.445652174,20.5 C0.445652174,9.42428953 9.42428953,0.445652174 20.5,0.445652174 C31.5757105,0.445652174 40.5543478,9.42428953 40.5543478,20.5 C40.5543478,31.5757105 31.5757105,40.5543478 20.5,40.5543478 Z M20.5,39.6630435 C31.0834567,39.6630435 39.6630435,31.0834567 39.6630435,20.5 C39.6630435,9.91654333 31.0834567,1.33695652 20.5,1.33695652 C9.91654333,1.33695652 1.33695652,9.91654333 1.33695652,20.5 C1.33695652,31.0834567 9.91654333,39.6630435 20.5,39.6630435 Z" id="Oval-3"></path>
                <path d="M20.9456522,28.9673913 C16.515368,28.9673913 12.923913,25.3759364 12.923913,20.9456522 C12.923913,16.515368 16.515368,12.923913 20.9456522,12.923913 C25.3759364,12.923913 28.9673913,16.515368 28.9673913,20.9456522 C28.9673913,25.3759364 25.3759364,28.9673913 20.9456522,28.9673913 Z M20.9456522,28.076087 C24.8836826,28.076087 28.076087,24.8836826 28.076087,20.9456522 C28.076087,17.0076218 24.8836826,13.8152174 20.9456522,13.8152174 C17.0076218,13.8152174 13.8152174,17.0076218 13.8152174,20.9456522 C13.8152174,24.8836826 17.0076218,28.076087 20.9456522,28.076087 Z" id="Oval-5"></path>
                <path d="M20.4890149,13.8039546 L20.5112628,12.912928 L39.2506451,13.380828 L39.2283972,14.2718546 L20.4890149,13.8039546 Z M18.4245966,40.2744732 L17.6603094,39.8159009 L26.1406208,25.6820485 L26.904908,26.1406208 L18.4245966,40.2744732 Z M14.4293249,23.7612823 L13.6735003,24.2336727 L4.28806645,9.21697854 L5.04389102,8.74458818 L14.4293249,23.7612823 Z" id="Combined-Shape"></path>
            </g>
        </g>
    </g>
</svg>