<?xml version="1.0" encoding="UTF-8"?>
<svg width="46px" height="46px" viewBox="0 0 46 46" version="1.1" xmlns="http://www.w3.org/2000/svg" xmlns:xlink="http://www.w3.org/1999/xlink">
    <!-- Generator: Sketch 46.2 (44496) - http://www.bohemiancoding.com/sketch -->
    <title>browser-icon</title>
    <desc>Created with Sketch.</desc>
    <defs></defs>
    <g id="Symbols" stroke="none" stroke-width="1" fill="none" fill-rule="evenodd">
        <g id="navigation/sidebar" transform="translate(-22.000000, -625.000000)" fill-rule="nonzero" fill="#FFFFFF">
            <g id="browser-icon" transform="translate(23.000000, 626.000000)">
                <path d="M22,44.5 C9.57359313,44.5 -0.5,34.4264069 -0.5,22 C-0.5,9.57359313 9.57359313,-0.5 22,-0.5 C34.4264069,-0.5 44.5,9.57359313 44.5,22 C44.5,34.4264069 34.4264069,44.5 22,44.5 Z M22,43.5 C33.8741221,43.5 43.5,33.8741221 43.5,22 C43.5,10.1258779 33.8741221,0.5 22,0.5 C10.1258779,0.5 0.5,10.1258779 0.5,22 C0.5,33.8741221 10.1258779,43.5 22,43.5 Z" id="Oval-3"></path>
                <path d="M22.5,31.5 C17.5294373,31.5 13.5,27.4705627 13.5,22.5 C13.5,17.5294373 17.5294373,13.5 22.5,13.5 C27.4705627,13.5 31.5,17.5294373 31.5,22.5 C31.5,27.4705627 27.4705627,31.5 22.5,31.5 Z M22.5,30.5 C26.918278,30.5 30.5,26.918278 30.5,22.5 C30.5,18.081722 26.918278,14.5 22.5,14.5 C18.081722,14.5 14.5,18.081722 14.5,22.5 C14.5,26.918278 18.081722,30.5 22.5,30.5 Z" id="Oval-5"></path>
                <path d="M21.9876753,14.4873637 L22.0126363,13.4876753 L43.0373091,14.0126363 L43.0123481,15.0123247 L21.9876753,14.4873637 Z M19.6714986,44.1859943 L18.8140057,43.6714986 L28.3285014,27.8140057 L29.1859943,28.3285014 L19.6714986,44.1859943 Z M15.1889986,25.6589997 L14.3410003,26.1889986 L3.81100138,9.34100032 L4.65899968,8.81100138 L15.1889986,25.6589997 Z" id="Combined-Shape"></path>
            </g>
        </g>
    </g>
</svg>