<?xml version="1.0" encoding="UTF-8"?>
<svg width="44px" height="44px" viewBox="0 0 44 44" version="1.1" xmlns="http://www.w3.org/2000/svg" xmlns:xlink="http://www.w3.org/1999/xlink">
    <!-- Generator: Sketch 46.2 (44496) - http://www.bohemiancoding.com/sketch -->
    <title>browser-icon</title>
    <desc>Created with Sketch.</desc>
    <defs></defs>
    <g id="ExamBuilder---Classes" stroke="none" stroke-width="1" fill="none" fill-rule="evenodd">
        <g id="Class---Default-view" transform="translate(-191.000000, -815.000000)" fill-rule="nonzero" stroke="#D1D1D1" fill="#D1D1D1">
            <g id="Group-2" transform="translate(144.000000, 783.000000)">
                <g id="exam">
                    <g id="test/item">
                        <g id="Group-30">
                            <g id="Group-31">
                                <g id="browser-icon" transform="translate(48.000000, 33.000000)">
                                    <path d="M21,41.5434783 C9.65415025,41.5434783 0.456521739,32.3458498 0.456521739,21 C0.456521739,9.65415025 9.65415025,0.456521739 21,0.456521739 C32.3458498,0.456521739 41.5434783,9.65415025 41.5434783,21 C41.5434783,32.3458498 32.3458498,41.5434783 21,41.5434783 Z M21,40.6304348 C31.8415898,40.6304348 40.6304348,31.8415898 40.6304348,21 C40.6304348,10.1584102 31.8415898,1.36956522 21,1.36956522 C10.1584102,1.36956522 1.36956522,10.1584102 1.36956522,21 C1.36956522,31.8415898 10.1584102,40.6304348 21,40.6304348 Z" id="Oval-3"></path>
                                    <path d="M21.4565217,29.673913 C16.9181818,29.673913 13.2391304,25.9948616 13.2391304,21.4565217 C13.2391304,16.9181818 16.9181818,13.2391304 21.4565217,13.2391304 C25.9948616,13.2391304 29.673913,16.9181818 29.673913,21.4565217 C29.673913,25.9948616 25.9948616,29.673913 21.4565217,29.673913 Z M21.4565217,28.7608696 C25.4906017,28.7608696 28.7608696,25.4906017 28.7608696,21.4565217 C28.7608696,17.4224418 25.4906017,14.1521739 21.4565217,14.1521739 C17.4224418,14.1521739 14.1521739,17.4224418 14.1521739,21.4565217 C14.1521739,25.4906017 17.4224418,28.7608696 21.4565217,28.7608696 Z" id="Oval-5"></path>
                                    <path d="M20.988747,14.1406364 L21.0115375,13.2278774 L40.2079779,13.7071897 L40.1851874,14.6199487 L20.988747,14.1406364 Z M18.873977,41.2567774 L18.0910486,40.7870204 L26.7781969,26.3084399 L27.5611253,26.7781969 L18.873977,41.2567774 Z M14.7812596,24.3408258 L14.0070003,24.8247379 L4.39265343,9.4417829 L5.16691275,8.95787082 L14.7812596,24.3408258 Z" id="Combined-Shape"></path>
                                </g>
                            </g>
                        </g>
                    </g>
                </g>
            </g>
        </g>
    </g>
</svg>