<?xml version="1.0" encoding="UTF-8"?>
<svg width="199px" height="232px" viewBox="0 0 199 232" version="1.1" xmlns="http://www.w3.org/2000/svg" xmlns:xlink="http://www.w3.org/1999/xlink">
    <!-- Generator: Sketch 51.3 (57544) - http://www.bohemiancoding.com/sketch -->
    <title>Group 5</title>
    <desc>Created with Sketch.</desc>
    <defs>
        <linearGradient x1="50%" y1="96.9449964%" x2="50%" y2="0%" id="linearGradient-1">
            <stop stop-color="#FFBF01" offset="0%"></stop>
            <stop stop-color="#FFA404" offset="100%"></stop>
        </linearGradient>
    </defs>
    <g id="Page-1" stroke="none" stroke-width="1" fill="none" fill-rule="evenodd">
        <g id="Artboard-Copy-3" transform="translate(-133.000000, -648.000000)" fill-rule="nonzero">
            <g id="Group-5" transform="translate(132.000000, 648.000000)">
                <polygon id="Path-12" fill="#F1F2F1" points="13 103.581656 13 13.4324325 100.854792 13.4324325 108.944559 2.84217094e-14 150.932082 2.84217094e-14 150.932082 13.4324325 182.865679 13.4324325 179.652309 103.581656"></polygon>
                <polygon id="Path-14" fill="#E3E5E5" points="23 30 173.63014 30 173.63014 98.5551412 23 98.5551412"></polygon>
                <polygon id="Path-14" fill="#FFFFFF" points="23 37 173.63014 37 173.63014 105.555141 23 105.555141"></polygon>
                <path d="M12.2917199,143.871132 L1.13337467,85.4150728 C0.615610608,82.7026234 2.39475457,80.0840181 5.10720392,79.566254 C5.41621663,79.5072683 5.73010662,79.477578 6.04469868,79.477578 L80.8665854,79.477578 L102.143994,47 L194.898491,47 C197.659915,47 199.898491,49.2385763 199.898491,52 C199.898491,52.3122955 199.869233,52.6239042 199.8111,52.9307413 L182.58284,143.864378 C182.135616,146.224898 180.072742,147.933637 177.670231,147.933637 L17.2030439,147.933637 C14.8031217,147.933637 12.7417028,146.228491 12.2917199,143.871132 Z" id="Path-13" fill="#C2CECE"></path>
                <path d="M115.278088,176.115387 C113.495084,178.253471 112.446763,181.75086 112.376138,186.835898 L112.280266,193.738685 L82.4047887,193.738685 L82.4047887,186.738685 C82.4047887,179.648439 83.3156589,173.796788 85.267596,169.123968 C87.2319819,164.421348 90.8383929,159.626617 96.0370548,154.587914 C100.240919,150.5134 102.887479,147.631113 103.744783,146.312289 C104.878529,144.583325 105.412947,142.819747 105.412947,140.863091 C105.412947,138.10567 104.876547,136.450327 104.039208,135.558967 C103.298962,134.770962 101.954339,134.283352 99.5368217,134.283352 C97.1824444,134.283352 95.6392717,134.823741 94.5417703,135.837623 C93.5785713,136.727436 93.0978057,137.931639 93.0978057,139.948393 L93.0978057,146.948393 L61.9204571,146.948393 L62.0004468,139.869302 C62.1161243,129.631844 65.7644536,121.154399 72.8863944,114.96402 C79.8017943,108.953166 88.7903135,106 99.5368217,106 C110.591122,106 119.620596,108.937819 126.296924,114.991023 C133.121817,121.178927 136.510753,129.764229 136.510753,140.229839 C136.510753,149.853312 132.159749,159.041946 123.860433,167.668866 L123.72484,167.80598 L115.278088,176.115387 Z M81.2086459,208.621062 C81.2086459,204.042702 82.7766857,199.995464 85.8960535,196.91825 C89.0181813,193.838313 93.1413269,192.333365 97.8481495,192.333365 C102.631821,192.333365 106.80834,193.884052 109.9375,197.055498 C112.995199,200.154517 114.558015,204.146033 114.558015,208.621062 C114.558015,212.993059 113.025487,216.909518 110.042088,219.97579 C106.93476,223.169432 102.721767,224.697674 97.8481495,224.697674 C92.9612894,224.697674 88.7449221,223.160674 85.6553984,219.940607 C82.7142567,216.875191 81.2086459,212.973327 81.2086459,208.621062 Z" id="?" stroke="#FFFFFF" stroke-width="14" fill="url(#linearGradient-1)"></path>
            </g>
        </g>
    </g>
</svg>