<?xml version="1.0" encoding="UTF-8" standalone="no"?>
<svg width="7px" height="10px" viewBox="0 0 7 10" version="1.1" xmlns="http://www.w3.org/2000/svg" xmlns:xlink="http://www.w3.org/1999/xlink">
    <!-- Generator: Sketch 3.8.3 (29802) - http://www.bohemiancoding.com/sketch -->
    <title>?</title>
    <desc>Created with Sketch.</desc>
    <defs></defs>
    <g id="Symbols" stroke="none" stroke-width="1" fill="none" fill-rule="evenodd">
        <g id="icons/question" transform="translate(-5.000000, -3.000000)" fill="#788595">
            <path d="M7.92487327,9.14285714 C8.47262186,9.14285714 8.71736059,8.88569432 8.71736059,8.38095238 L8.71736059,8.38095238 C10.0692507,8.14774883 11.0948226,7.56633723 11.0948226,6.0952381 L11.0948226,6.0952381 C11.0948226,4.63691724 9.95270848,3.80952381 7.92487327,3.80952381 C7.24892819,3.80952381 6.46809509,4.12259159 5.54741129,4.57142857 C5.64064509,4.78227014 5.54741129,5.00588999 5.54741129,5.33333333 C5.54741129,5.64320655 5.9203465,6.0009983 6.33989861,6.0952381 C6.56132889,6.0009983 6.7477965,5.92273136 7.13238594,6.0952381 C7.30719932,5.52021563 7.73840566,5.37486273 7.92487327,5.33333333 C8.91548242,5.37486273 9.31172609,5.66556853 9.50984792,6.0952381 L9.50984792,6.0952381 C9.31172609,6.7389438 8.84555707,7.04083059 7.92487327,6.85714286 C7.45870425,7.20854547 7.23727397,7.4657083 7.13238594,7.61904762 L7.13238594,8.38095238 C7.45870425,8.89687531 7.70344298,9.14285714 7.92487327,9.14285714 L7.92487327,9.14285714 Z M7.13238594,10.6666667 L7.13238594,11.4285714 C7.13238594,11.6987818 7.6379382,12.1904762 8.71736059,12.1904762 C9.00429566,12.1904762 9.50984792,11.6987818 9.50984792,11.4285714 L9.50984792,10.6666667 C9.50984792,10.3964563 9.00429566,9.9047619 8.71736059,9.9047619 C7.6379382,9.9047619 7.13238594,10.3964563 7.13238594,10.6666667 L7.13238594,10.6666667 Z" id="?"></path>
        </g>
    </g>
</svg>