<?xml version="1.0" encoding="UTF-8"?>
<svg width="16px" height="15px" viewBox="0 0 16 15" version="1.1" xmlns="http://www.w3.org/2000/svg" xmlns:xlink="http://www.w3.org/1999/xlink">
    <!-- Generator: Sketch 46.2 (44496) - http://www.bohemiancoding.com/sketch -->
    <title>Group 31</title>
    <desc>Created with Sketch.</desc>
    <defs></defs>
    <g id="ExamBuilder---Exam-Manager" stroke="none" stroke-width="1" fill="none" fill-rule="evenodd">
        <g id="Exam-Manager-Home" transform="translate(-670.000000, -464.000000)">
            <g id="Group-31" transform="translate(670.000000, 464.000000)">
                <circle id="Oval-4" fill="#D64141" cx="8" cy="13" r="2"></circle>
                <path d="M12,4.25 C12,2.59314575 10.209139,1.25 8,1.25 C5.790861,1.25 4,2.59314575 4,4.25 C4.02942031,4.25 11.9819516,4.25 11.9999969,4.25 C11.9998673,4.23739746 11.9997502,4.22478209 11.9996455,4.21215388 C6.67179835,4.21215388 4.00787478,4.21215388 4.00787478,4.21215388 C4.06849084,7.21943639 2.96891305,9.88322112 0.709141405,12.2035081 C0.640802569,12.5965603 0.762106378,12.8951275 1.07305283,13.0992096 C1.38399928,13.3032918 1.84912424,13.3896129 2.46842772,13.3581729 C8.52466627,13.3581729 12.2227587,13.3581729 13.562705,13.3581729 C13.5691609,13.3581729 14.5890507,13.4420775 15.0098809,13.0992096 C15.4340919,12.7535872 15.2592443,11.9811703 15.2592443,11.9811703 C13.1240412,10.4863866 12.0376254,7.9093298 11.9999969,4.25 Z" id="Combined-Shape" fill="#ED5858"></path>
                <circle id="Oval-2" fill="#ED5858" cx="8" cy="1" r="1"></circle>
            </g>
        </g>
    </g>
</svg>