<?xml version="1.0" encoding="UTF-8"?>
<svg width="30px" height="30px" viewBox="0 0 30 30" version="1.1" xmlns="http://www.w3.org/2000/svg" xmlns:xlink="http://www.w3.org/1999/xlink">
    <!-- Generator: Sketch 3.8.3 (29802) - http://www.bohemiancoding.com/sketch -->
    <title>robot</title>
    <desc>Created with Sketch.</desc>
    <defs></defs>
    <g id="Website" stroke="none" stroke-width="1" fill="none" fill-rule="evenodd">
        <g id="Exam-Editor---Blueprint" transform="translate(-682.000000, -749.000000)" fill="#9B9B9B">
            <path d="M692.084262,760.249263 L699.218327,772.231813 L705.60071,772.231813 L705.60071,778.068825 L685.399353,778.068825 L685.399353,772.231813 L691.422118,772.231813 L685.136646,761.661236 C685.877572,761.956576 686.686979,762.119139 687.534761,762.119139 C689.312549,762.119139 690.921587,761.40429 692.084262,760.249263 Z M693.851342,754.619733 C693.782828,754.247834 693.681588,753.887232 693.550681,753.540955 L698.63833,753.540955 C698.63833,753.540955 699.201522,752.361134 700.017105,752.361134 L702.463853,752.361134 L704.491014,750.097458 C704.521034,749.936168 704.585689,749.778522 704.686918,749.635387 C705.064444,749.101578 705.807695,748.971756 706.347017,749.345423 L711.365988,752.822791 C711.90531,753.196458 712.036472,753.932113 711.658947,754.465922 C711.281421,754.999732 710.53817,755.129553 709.998848,754.755886 L705.813822,751.856312 L704.032282,753.913531 L703.969545,757.825571 L706.021125,760.012382 L710.124322,757.169502 C710.663644,756.795836 711.406896,756.925657 711.784421,757.459467 C712.161947,757.993276 712.030784,758.728931 711.491462,759.102597 L706.472492,762.579966 C705.93317,762.953633 705.189918,762.823811 704.812392,762.290002 C704.70157,762.133303 704.634582,761.95921 704.608885,761.781986 L702.338379,759.253776 L699.891631,759.253776 C699.891631,759.253776 699.408935,759.210685 699.076048,758.8812 C698.743161,758.551716 698.636888,758.011858 698.636888,758.011858 L693.542998,758.011858 C693.676345,757.662774 693.779507,757.299024 693.849331,756.923725 C693.919155,756.548426 693.955643,756.161578 693.955643,755.766298 C693.955643,755.374831 693.919856,754.991633 693.851342,754.619733 Z M687.532416,760.360815 C684.968407,760.360815 682.889868,758.303521 682.889868,755.765721 C682.889868,753.22792 684.968407,751.170626 687.532416,751.170626 C690.096424,751.170626 692.174964,753.22792 692.174964,755.765721 C692.174964,758.303521 690.096424,760.360815 687.532416,760.360815 Z M687.55109,759.533081 C689.627112,759.533081 691.310059,757.850133 691.310059,755.774112 C691.310059,753.698091 689.627112,752.015143 687.55109,752.015143 C685.475069,752.015143 683.792122,753.698091 683.792122,755.774112 C683.792122,757.850133 685.475069,759.533081 687.55109,759.533081 Z" id="robot"></path>
        </g>
    </g>
</svg>