<?xml version="1.0" encoding="UTF-8"?>
<svg width="30px" height="26px" viewBox="0 0 30 26" version="1.1" xmlns="http://www.w3.org/2000/svg" xmlns:xlink="http://www.w3.org/1999/xlink">
    <!-- Generator: Sketch 3.8.3 (29802) - http://www.bohemiancoding.com/sketch -->
    <title>icons/shuffle-grey</title>
    <desc>Created with Sketch.</desc>
    <defs>
        <path d="M18.24,17.5357437 C18.1739832,17.5330049 18.1067973,17.5300157 18.0385211,17.5267645 C17.1737431,17.4855845 16.3079854,17.4113767 15.4936232,17.2950392 C14.2704739,17.1203036 13.2675431,16.8668157 12.5306751,16.4983818 C11.6946795,16.0803842 10.9224886,15.3783925 10.1982056,14.4730387 C9.80610074,13.9829075 9.4520068,13.462181 9.13968668,12.9416474 C9.03029094,12.7593212 8.93358935,12.58944 8.85026066,12.4359398 C8.80351716,12.3491341 8.80351716,12.3491341 8.77216685,12.2892052 C8.75944608,12.2646521 8.75944608,12.2646521 8.7507107,12.2475626 C8.74709896,12.2404639 8.74709896,12.2404639 8.74450097,12.2353243 C8.74339315,12.2331277 8.74339315,12.2331277 8.74254099,12.2314327 C8.74216299,12.2306799 8.74216299,12.2306799 8.7417913,12.2299385 C8.74169537,12.229747 8.74169537,12.229747 8.74150904,12.2293748 L8.72048896,12.1845177 C7.53759487,9.48075981 6.55816163,7.83835284 5.18400001,6.80773166 C3.70446874,5.69808325 2.43687713,5.45086404 0.584369944,5.53878641 C0.148529223,5.55947197 0.14225513,5.55973164 -8.36917025e-09,5.55973164 L8.36821319e-09,3.63973164 C0.0957779473,3.63973164 0.10939819,3.63916792 0.493346742,3.62094523 C2.75005994,3.51383873 4.42864283,3.84121383 6.33599999,5.27173164 C8.06898553,6.57147075 9.16339582,8.40668219 10.4585147,11.3701358 L10.4583594,11.3698257 C10.4584074,11.3699215 10.4584074,11.3699215 10.4583404,11.3697879 C10.4582477,11.3696031 10.4582477,11.3696031 10.4582168,11.3695414 C10.4582474,11.3696024 10.4582474,11.3696024 10.4585239,11.3701507 C10.4594443,11.3719721 10.4594443,11.3719721 10.461338,11.3756944 C10.4665752,11.3859424 10.4665752,11.3859424 10.4756231,11.403408 C10.4993528,11.4487791 10.4993528,11.4487791 10.5376593,11.5199235 C10.6082306,11.6499232 10.691349,11.795942 10.7860732,11.9538157 C11.0569529,12.405282 11.3638188,12.8565555 11.6974738,13.2736243 C12.263431,13.9810708 12.8429203,14.5078793 13.3893249,14.7810815 C13.9014365,15.0371371 14.729118,15.2463313 15.7651523,15.3943362 C16.512933,15.501162 17.3208997,15.5704164 18.1298463,15.6089377 C18.1669195,15.6107031 18.2036427,15.612386 18.24,15.6139886 L18.24,12 L24,16.608 L18.24,21.6 L18.24,17.5357438 Z" id="path-1"></path>
        <mask id="mask-2" maskContentUnits="userSpaceOnUse" maskUnits="objectBoundingBox" x="-2" y="-2" width="28" height="21.9977556">
            <rect x="-2.00000001" y="1.60224442" width="28" height="21.9977556" fill="white"></rect>
            <use xlink:href="#path-1" fill="black"></use>
        </mask>
    </defs>
    <g id="Website" stroke="none" stroke-width="1" fill="none" fill-rule="evenodd">
        <g id="Exam-Editor---Blueprint" transform="translate(-294.000000, -507.000000)">
            <g id="Group-19" transform="translate(114.000000, 352.000000)">
                <g id="Group-15" transform="translate(100.000000, 77.000000)">
                    <g id="Group-33" transform="translate(25.000000, 77.000000)">
                        <g id="icons/shuffle-grey" transform="translate(56.715976, 1.183432)">
                            <g id="icons/shuffle" transform="translate(0.500000, 0.000000)">
                                <g id="Group-33">
                                    <path d="M18.24,4.54425631 C18.1739832,4.54699515 18.1067973,4.54998425 18.0385211,4.5532355 C17.1737431,4.59441546 16.3079854,4.6686233 15.4936232,4.78496076 C14.2704739,4.95969639 13.2675431,5.21318432 12.5306751,5.58161818 C11.6946795,5.99961581 10.9224886,6.7016075 10.1982056,7.60696134 C9.80610074,8.09709251 9.4520068,8.61781895 9.13968668,9.13835255 C9.03029094,9.32067882 8.93358935,9.49056001 8.85026066,9.64406024 C8.80351716,9.73086588 8.80351716,9.73086588 8.77216685,9.79079477 C8.75944608,9.8153479 8.75944608,9.8153479 8.7507107,9.83243741 C8.74709896,9.83953613 8.74709896,9.83953613 8.74450097,9.84467567 C8.74339315,9.84687225 8.74339315,9.84687225 8.74254099,9.84856733 C8.74216299,9.84932008 8.74216299,9.84932008 8.7417913,9.85006151 C8.74169537,9.85025297 8.74169537,9.85025297 8.74150904,9.85062516 L8.72048896,9.89548228 C7.53759487,12.5992402 6.55816163,14.2416472 5.18400001,15.2722683 C3.70446874,16.3819168 2.43687713,16.629136 0.584369944,16.5412136 C0.148529223,16.520528 0.14225513,16.5202684 -8.36917025e-09,16.5202684 L8.36821319e-09,18.4402684 C0.0957779473,18.4402684 0.10939819,18.4408321 0.493346742,18.4590548 C2.75005994,18.5661613 4.42864283,18.2387862 6.33599999,16.8082684 C8.06898553,15.5085293 9.16339582,13.6733178 10.4585147,10.7098642 L10.4583594,10.7101743 C10.4584074,10.7100785 10.4584074,10.7100785 10.4583404,10.7102121 C10.4582477,10.7103969 10.4582477,10.7103969 10.4582168,10.7104586 C10.4582474,10.7103976 10.4582474,10.7103976 10.4585239,10.7098493 C10.4594443,10.7080279 10.4594443,10.7080279 10.461338,10.7043056 C10.4665752,10.6940576 10.4665752,10.6940576 10.4756231,10.676592 C10.4993528,10.6312209 10.4993528,10.6312209 10.5376593,10.5600765 C10.6082306,10.4300768 10.691349,10.284058 10.7860732,10.1261843 C11.0569529,9.67471797 11.3638188,9.2234445 11.6974738,8.80637574 C12.263431,8.09892918 12.8429203,7.57212071 13.3893249,7.29891854 C13.9014365,7.04286287 14.729118,6.8336687 15.7651523,6.68566379 C16.512933,6.57883797 17.3208997,6.50958364 18.1298463,6.47106232 C18.1669195,6.46929693 18.2036427,6.46761402 18.24,6.46601144 L18.24,10.08 L24,5.472 L18.24,0.48 L18.24,4.54425616 Z" id="Combined-Shape" fill="#C8C8C8"></path>
                                    <g id="Combined-Shape">
                                        <use fill="#C8C8C8" fill-rule="evenodd" xlink:href="#path-1"></use>
                                        <use stroke="#FFFFFF" mask="url(#mask-2)" stroke-width="4" xlink:href="#path-1"></use>
                                    </g>
                                </g>
                            </g>
                        </g>
                    </g>
                </g>
            </g>
        </g>
    </g>
</svg>