<?xml version="1.0" encoding="UTF-8"?>
<svg width="29px" height="24px" viewBox="0 0 29 24" version="1.1" xmlns="http://www.w3.org/2000/svg" xmlns:xlink="http://www.w3.org/1999/xlink">
    <!-- Generator: Sketch 43.1 (39012) - http://www.bohemiancoding.com/sketch -->
    <title>shuffle-grey</title>
    <desc>Created with Sketch.</desc>
    <defs>
        <rect id="path-1" x="-9.99999994e-09" y="0.60224442" width="28" height="21.9977556"></rect>
        <path d="M20.24,16.5357437 C20.1739832,16.5330049 20.1067973,16.5300157 20.0385211,16.5267645 C19.1737431,16.4855845 18.3079854,16.4113767 17.4936232,16.2950392 C16.2704739,16.1203036 15.2675431,15.8668157 14.5306751,15.4983818 C13.6946795,15.0803842 12.9224886,14.3783925 12.1982056,13.4730387 C11.8061007,12.9829075 11.4520068,12.462181 11.1396867,11.9416474 C11.0302909,11.7593212 10.9335893,11.58944 10.8502607,11.4359398 C10.8035172,11.3491341 10.8035172,11.3491341 10.7721668,11.2892052 C10.7594461,11.2646521 10.7594461,11.2646521 10.7507107,11.2475626 C10.747099,11.2404639 10.747099,11.2404639 10.744501,11.2353243 C10.7433931,11.2331277 10.7433931,11.2331277 10.742541,11.2314327 C10.742163,11.2306799 10.742163,11.2306799 10.7417913,11.2299385 C10.7416954,11.229747 10.7416954,11.229747 10.741509,11.2293748 L10.720489,11.1845177 C9.53759487,8.48075981 8.55816163,6.83835284 7.18400001,5.80773166 C5.70446874,4.69808325 4.43687713,4.45086404 2.58436994,4.53878641 C2.14852922,4.55947197 2.14225513,4.55973164 1.99999999,4.55973164 L2.00000001,2.63973164 C2.09577795,2.63973164 2.10939819,2.63916792 2.49334674,2.62094523 C4.75005994,2.51383873 6.42864283,2.84121383 8.33599999,4.27173164 C10.0689855,5.57147075 11.1633958,7.40668219 12.4585147,10.3701358 L12.4583594,10.3698257 C12.4584074,10.3699215 12.4584074,10.3699215 12.4583404,10.3697879 C12.4582477,10.3696031 12.4582477,10.3696031 12.4582168,10.3695414 C12.4582474,10.3696024 12.4582474,10.3696024 12.4585239,10.3701507 C12.4594443,10.3719721 12.4594443,10.3719721 12.461338,10.3756944 C12.4665752,10.3859424 12.4665752,10.3859424 12.4756231,10.403408 C12.4993528,10.4487791 12.4993528,10.4487791 12.5376593,10.5199235 C12.6082306,10.6499232 12.691349,10.795942 12.7860732,10.9538157 C13.0569529,11.405282 13.3638188,11.8565555 13.6974738,12.2736243 C14.263431,12.9810708 14.8429203,13.5078793 15.3893249,13.7810815 C15.9014365,14.0371371 16.729118,14.2463313 17.7651523,14.3943362 C18.512933,14.501162 19.3208997,14.5704164 20.1298463,14.6089377 C20.1669195,14.6107031 20.2036427,14.612386 20.24,14.6139886 L20.24,11 L26,15.608 L20.24,20.6 L20.24,16.5357438 L20.24,16.5357437 Z" id="path-3"></path>
    </defs>
    <g id="Page-1" stroke="none" stroke-width="1" fill="none" fill-rule="evenodd">
        <g id="shuffle-grey">
            <path d="M20.455976,4.72768831 C20.3899592,4.73042715 20.3227733,4.73341625 20.2544971,4.7366675 C19.3897191,4.77784746 18.5239614,4.8520553 17.7095992,4.96839276 C16.4864499,5.14312839 15.4835191,5.39661632 14.7466511,5.76505018 C13.9106555,6.18304781 13.1384646,6.8850395 12.4141816,7.79039334 C12.0220767,8.28052451 11.6679828,8.80125095 11.3556627,9.32178455 C11.2462669,9.50411082 11.1495653,9.67399201 11.0662367,9.82749224 C11.0194932,9.91429788 11.0194932,9.91429788 10.9881428,9.97422677 C10.9754221,9.9987799 10.9754221,9.9987799 10.9666867,10.0158694 C10.963075,10.0229681 10.963075,10.0229681 10.960477,10.0281077 C10.9593691,10.0303042 10.9593691,10.0303042 10.958517,10.0319993 C10.958139,10.0327521 10.958139,10.0327521 10.9577673,10.0334935 C10.9576714,10.033685 10.9576714,10.033685 10.957485,10.0340572 L10.936465,10.0789143 C9.75357087,12.7826722 8.77413763,14.4250792 7.39997601,15.4557003 C5.92044474,16.5653488 4.65285313,16.812568 2.80034594,16.7246456 C2.36450522,16.70396 2.35823113,16.7037004 2.21597599,16.7037004 L2.21597601,18.6237004 C2.31175395,18.6237004 2.32537419,18.6242641 2.70932274,18.6424868 C4.96603594,18.7495933 6.64461883,18.4222182 8.55197599,16.9917004 C10.2849615,15.6919613 11.3793718,13.8567498 12.6744907,10.8932962 L12.6743354,10.8936063 C12.6743834,10.8935105 12.6743834,10.8935105 12.6743164,10.8936441 C12.6742237,10.8938289 12.6742237,10.8938289 12.6741928,10.8938906 C12.6742234,10.8938296 12.6742234,10.8938296 12.6744999,10.8932813 C12.6754203,10.8914599 12.6754203,10.8914599 12.677314,10.8877376 C12.6825512,10.8774896 12.6825512,10.8774896 12.6915991,10.860024 C12.7153288,10.8146529 12.7153288,10.8146529 12.7536353,10.7435085 C12.8242066,10.6135088 12.907325,10.46749 13.0020492,10.3096163 C13.2729289,9.85814997 13.5797948,9.4068765 13.9134498,8.98980774 C14.479407,8.28236118 15.0588963,7.75555271 15.6053009,7.48235054 C16.1174125,7.22629487 16.945094,7.0171007 17.9811283,6.86909579 C18.728909,6.76226997 19.5368757,6.69301564 20.3458223,6.65449432 C20.3828955,6.65272893 20.4196187,6.65104602 20.455976,6.64944344 L20.455976,10.263432 L26.215976,5.655432 L20.455976,0.663432 L20.455976,4.72768816 L20.455976,4.72768831 Z" id="Combined-Shape" fill="#F88686" fill-rule="nonzero"></path>
            <g id="Combined-Shape" transform="translate(0.215976, 1.183432)">
                <g id="path-1-link" transform="translate(2.000000, 2.000000)" fill="#C8C8C8">
                    <path d="M18.24,14.5357437 C18.1739832,14.5330049 18.1067973,14.5300157 18.0385211,14.5267645 C17.1737431,14.4855845 16.3079854,14.4113767 15.4936232,14.2950392 C14.2704739,14.1203036 13.2675431,13.8668157 12.5306751,13.4983818 C11.6946795,13.0803842 10.9224886,12.3783925 10.1982056,11.4730387 C9.80610074,10.9829075 9.4520068,10.462181 9.13968668,9.9416474 C9.03029094,9.7593212 8.93358935,9.58944 8.85026066,9.4359398 C8.80351716,9.3491341 8.80351716,9.3491341 8.77216685,9.2892052 C8.75944608,9.2646521 8.75944608,9.2646521 8.7507107,9.2475626 C8.74709896,9.2404639 8.74709896,9.2404639 8.74450097,9.2353243 C8.74339315,9.2331277 8.74339315,9.2331277 8.74254099,9.2314327 C8.74216299,9.2306799 8.74216299,9.2306799 8.7417913,9.2299385 C8.74169537,9.229747 8.74169537,9.229747 8.74150904,9.2293748 L8.72048896,9.1845177 C7.53759487,6.48075981 6.55816163,4.83835284 5.18400001,3.80773166 C3.70446874,2.69808325 2.43687713,2.45086404 0.584369944,2.53878641 C0.148529223,2.55947197 0.14225513,2.55973164 -8.36917025e-09,2.55973164 L8.36821319e-09,0.63973164 C0.0957779473,0.63973164 0.10939819,0.63916792 0.493346742,0.62094523 C2.75005994,0.51383873 4.42864283,0.84121383 6.33599999,2.27173164 C8.06898553,3.57147075 9.16339582,5.40668219 10.4585147,8.3701358 L10.4583594,8.3698257 C10.4584074,8.3699215 10.4584074,8.3699215 10.4583404,8.3697879 C10.4582477,8.3696031 10.4582477,8.3696031 10.4582168,8.3695414 C10.4582474,8.3696024 10.4582474,8.3696024 10.4585239,8.3701507 C10.4594443,8.3719721 10.4594443,8.3719721 10.461338,8.3756944 C10.4665752,8.3859424 10.4665752,8.3859424 10.4756231,8.403408 C10.4993528,8.4487791 10.4993528,8.4487791 10.5376593,8.5199235 C10.6082306,8.6499232 10.691349,8.795942 10.7860732,8.9538157 C11.0569529,9.405282 11.3638188,9.8565555 11.6974738,10.2736243 C12.263431,10.9810708 12.8429203,11.5078793 13.3893249,11.7810815 C13.9014365,12.0371371 14.729118,12.2463313 15.7651523,12.3943362 C16.512933,12.501162 17.3208997,12.5704164 18.1298463,12.6089377 C18.1669195,12.6107031 18.2036427,12.612386 18.24,12.6139886 L18.24,9 L24,13.608 L18.24,18.6 L18.24,14.5357438 L18.24,14.5357437 Z" id="path-1"></path>
                </g>
                <g id="path-1-link">
                    <g id="path-1-Clipped">
                        <mask id="mask-2" fill="white">
                            <use xlink:href="#path-1"></use>
                        </mask>
                        <g id="Rectangle-path"></g>
                        <path d="M20.24,16.5357437 C20.1739832,16.5330049 20.1067973,16.5300157 20.0385211,16.5267645 C19.1737431,16.4855845 18.3079854,16.4113767 17.4936232,16.2950392 C16.2704739,16.1203036 15.2675431,15.8668157 14.5306751,15.4983818 C13.6946795,15.0803842 12.9224886,14.3783925 12.1982056,13.4730387 C11.8061007,12.9829075 11.4520068,12.462181 11.1396867,11.9416474 C11.0302909,11.7593212 10.9335893,11.58944 10.8502607,11.4359398 C10.8035172,11.3491341 10.8035172,11.3491341 10.7721668,11.2892052 C10.7594461,11.2646521 10.7594461,11.2646521 10.7507107,11.2475626 C10.747099,11.2404639 10.747099,11.2404639 10.744501,11.2353243 C10.7433931,11.2331277 10.7433931,11.2331277 10.742541,11.2314327 C10.742163,11.2306799 10.742163,11.2306799 10.7417913,11.2299385 C10.7416954,11.229747 10.7416954,11.229747 10.741509,11.2293748 L10.720489,11.1845177 C9.53759487,8.48075981 8.55816163,6.83835284 7.18400001,5.80773166 C5.70446874,4.69808325 4.43687713,4.45086404 2.58436994,4.53878641 C2.14852922,4.55947197 2.14225513,4.55973164 1.99999999,4.55973164 L2.00000001,2.63973164 C2.09577795,2.63973164 2.10939819,2.63916792 2.49334674,2.62094523 C4.75005994,2.51383873 6.42864283,2.84121383 8.33599999,4.27173164 C10.0689855,5.57147075 11.1633958,7.40668219 12.4585147,10.3701358 L12.4583594,10.3698257 C12.4584074,10.3699215 12.4584074,10.3699215 12.4583404,10.3697879 C12.4582477,10.3696031 12.4582477,10.3696031 12.4582168,10.3695414 C12.4582474,10.3696024 12.4582474,10.3696024 12.4585239,10.3701507 C12.4594443,10.3719721 12.4594443,10.3719721 12.461338,10.3756944 C12.4665752,10.3859424 12.4665752,10.3859424 12.4756231,10.403408 C12.4993528,10.4487791 12.4993528,10.4487791 12.5376593,10.5199235 C12.6082306,10.6499232 12.691349,10.795942 12.7860732,10.9538157 C13.0569529,11.405282 13.3638188,11.8565555 13.6974738,12.2736243 C14.263431,12.9810708 14.8429203,13.5078793 15.3893249,13.7810815 C15.9014365,14.0371371 16.729118,14.2463313 17.7651523,14.3943362 C18.512933,14.501162 19.3208997,14.5704164 20.1298463,14.6089377 C20.1669195,14.6107031 20.2036427,14.612386 20.24,14.6139886 L20.24,11 L26,15.608 L20.24,20.6 L20.24,16.5357438 L20.24,16.5357437 Z" id="path-1" stroke="#FFFFFF" stroke-width="4" mask="url(#mask-2)"></path>
                        <mask id="mask-4" fill="white">
                            <use xlink:href="#path-3"></use>
                        </mask>
                        <use id="path-1" fill="#979797" xlink:href="#path-3"></use>
                    </g>
                </g>
            </g>
        </g>
    </g>
</svg>