<?xml version="1.0" encoding="UTF-8"?>
<svg width="17px" height="17px" viewBox="0 0 17 17" version="1.1" xmlns="http://www.w3.org/2000/svg" xmlns:xlink="http://www.w3.org/1999/xlink">
    <!-- Generator: Sketch 46.2 (44496) - http://www.bohemiancoding.com/sketch -->
    <title>similey-white</title>
    <desc>Created with Sketch.</desc>
    <defs></defs>
    <g id="ExamBuilder---Exam-Designer" stroke="none" stroke-width="1" fill="none" fill-rule="evenodd">
        <g id="Artboard" transform="translate(-1166.000000, -639.000000)" fill="#FFFFFF">
            <g id="similey-white" transform="translate(1166.000000, 639.000000)">
                <path d="M8.5,17 C3.80557963,17 0,13.1944204 0,8.5 C0,3.80557963 3.80557963,0 8.5,0 C13.1944204,0 17,3.80557963 17,8.5 C17,13.1944204 13.1944204,17 8.5,17 Z M11.7692308,7.84615385 C12.4914493,7.84615385 13.0769231,7.26068006 13.0769231,6.53846154 C13.0769231,5.81624302 12.4914493,5.23076923 11.7692308,5.23076923 C11.0470123,5.23076923 10.4615385,5.81624302 10.4615385,6.53846154 C10.4615385,7.26068006 11.0470123,7.84615385 11.7692308,7.84615385 Z M5.23076923,7.84615385 C5.95298775,7.84615385 6.53846154,7.26068006 6.53846154,6.53846154 C6.53846154,5.81624302 5.95298775,5.23076923 5.23076923,5.23076923 C4.50855071,5.23076923 3.92307692,5.81624302 3.92307692,6.53846154 C3.92307692,7.26068006 4.50855071,7.84615385 5.23076923,7.84615385 Z M3.07929084,10.8495132 C4.28726765,12.6368204 6.30150499,13.7307692 8.5,13.7307692 C10.7184073,13.7307692 12.7484975,12.6168156 13.9519635,10.8028395 L12.8622781,10.0798977 C11.8986118,11.5324253 10.2754714,12.4230769 8.5,12.4230769 C6.74044127,12.4230769 5.13003097,11.5484499 4.16273554,10.1172518 L3.07929084,10.8495132 Z" id="Combined-Shape"></path>
            </g>
        </g>
    </g>
</svg>