<?xml version="1.0" encoding="UTF-8"?>
<svg width="17px" height="15px" viewBox="0 0 17 15" version="1.1" xmlns="http://www.w3.org/2000/svg" xmlns:xlink="http://www.w3.org/1999/xlink">
    <!-- Generator: Sketch 46.2 (44496) - http://www.bohemiancoding.com/sketch -->
    <title>Group</title>
    <desc>Created with Sketch.</desc>
    <defs></defs>
    <g id="Page-1" stroke="none" stroke-width="1" fill="none" fill-rule="evenodd">
        <g id="Group">
            <polygon id="+" fill="#888888" points="15.005 8.85002441 15.005 10.2000244 12.395 10.2000244 12.395 12.7800244 11.12 12.7800244 11.12 10.2000244 8.525 10.2000244 8.525 8.85002441 11.12 8.85002441 11.12 6.25502441 12.395 6.25502441 12.395 8.85002441"></polygon>
            <rect id="Rectangle" stroke="#979797" stroke-width="1.3" x="0.65" y="0.65" width="15.7" height="13.7" rx="2"></rect>
            <path d="M11.9750366,2.5 L2.80004883,2.5 L2.80004883,2.5 C2.52390645,2.5 2.30004883,2.72385763 2.30004883,3 L2.30004883,3 L2.30004883,4.5 C2.30004883,4.77614237 2.52390645,5 2.80004883,5 L11.9750366,5 L14.1500244,5 C14.4261668,5 14.6500244,4.77614237 14.6500244,4.5 L14.6500244,3 C14.6500244,2.72385763 14.4261668,2.5 14.1500244,2.5 L11.9750366,2.5 Z" id="Combined-Shape" fill="#CDCBCB"></path>
        </g>
    </g>
</svg>