<?xml version="1.0" encoding="UTF-8"?>
<svg width="189px" height="259px" viewBox="0 0 189 259" version="1.1" xmlns="http://www.w3.org/2000/svg" xmlns:xlink="http://www.w3.org/1999/xlink">
    <!-- Generator: Sketch 51.3 (57544) - http://www.bohemiancoding.com/sketch -->
    <title>Group 7</title>
    <desc>Created with Sketch.</desc>
    <defs>
        <linearGradient x1="50%" y1="96.9449964%" x2="50%" y2="0%" id="linearGradient-1">
            <stop stop-color="#FFBF01" offset="0%"></stop>
            <stop stop-color="#FFA404" offset="100%"></stop>
        </linearGradient>
    </defs>
    <g id="Page-1" stroke="none" stroke-width="1" fill="none" fill-rule="evenodd">
        <g id="Artboard-Copy-3" transform="translate(-977.000000, -262.000000)" fill-rule="nonzero">
            <g id="Group-7" transform="translate(977.000000, 262.000000)">
                <g id="Group-6">
                    <rect id="Rectangle-2" fill="#F1F2F1" x="0" y="33.7394636" width="189" height="225.260536" rx="13"></rect>
                    <rect id="Rectangle-2" fill="#FFFFFF" x="17.9052632" y="52.5938697" width="153.189474" height="188.544061" rx="5"></rect>
                    <path d="M110.339146,155.769054 C108.74676,157.692539 107.797384,160.876143 107.732625,165.545291 L107.636885,172.448214 L78.7671359,172.448214 L78.7671359,165.448214 C78.7671359,158.743774 79.6288947,153.199885 81.4823771,148.756555 C83.3485118,144.282895 86.7614744,139.739009 91.6714065,134.973496 C95.587634,131.17246 98.0519721,128.484873 98.8329441,127.281801 C99.8500015,125.72862 100.326322,124.154564 100.326322,122.401588 C100.326322,119.914352 99.8572851,118.46487 99.1552887,117.716538 C98.5522911,117.07374 97.4109235,116.659259 95.2610894,116.659259 C93.1625992,116.659259 91.8255656,117.128117 90.8833269,117.999783 C90.0732823,118.749156 89.6684149,119.764671 89.6684149,121.543297 L89.6684149,128.543297 L59.5679372,128.543297 L59.647814,121.464316 C59.7575305,111.740827 63.226141,103.669714 69.9961595,97.7769961 C76.5617917,92.062179 85.0888584,89.256705 95.2610894,89.256705 C105.723361,89.256705 114.291433,92.0483015 120.635645,97.8084308 C127.126249,103.701475 130.347368,111.873055 130.347368,121.807386 C130.347368,130.95707 126.222479,139.680367 118.373964,147.850101 L118.238469,147.987308 L110.339146,155.769054 Z M77.6463219,185.981191 C77.6463219,181.575441 79.1581533,177.667824 82.166298,174.69618 C85.1791668,171.719869 89.1561806,170.266229 93.6787638,170.266229 C98.2752547,170.266229 102.304161,171.764202 105.324006,174.829136 C108.270513,177.819637 109.777136,181.673015 109.777136,185.981191 C109.777136,190.192115 108.29931,193.974062 105.424137,196.933234 C102.423199,200.021845 98.359249,201.498084 93.6787638,201.498084 C88.9850365,201.498084 84.9169702,200.01307 81.9323881,196.898029 C79.0979944,193.939741 77.6463219,190.172399 77.6463219,185.981191 Z" id="?" stroke="#F1F2F1" stroke-width="14" fill="url(#linearGradient-1)"></path>
                    <rect id="Rectangle-3" fill="#C2CECE" x="41.7789474" y="23.816092" width="105.442105" height="24.8084291"></rect>
                    <rect id="Rectangle-3" fill="#B7C5C5" x="41.7789474" y="48.6245211" width="105.442105" height="16.8697318"></rect>
                    <ellipse id="Oval-7" fill="#C2CECE" cx="94.9973684" cy="24.3122605" rx="24.3710526" ry="24.3122605"></ellipse>
                    <ellipse id="Oval-7" fill="#FFFFFF" cx="95.4947368" cy="23.816092" rx="9.94736842" ry="9.92337165"></ellipse>
                </g>
            </g>
        </g>
    </g>
</svg>