<?xml version="1.0" encoding="UTF-8"?>
<svg width="2519px" height="1576px" viewBox="0 0 2519 1576" version="1.1" xmlns="http://www.w3.org/2000/svg" xmlns:xlink="http://www.w3.org/1999/xlink">
    <!-- Generator: Sketch 51.3 (57544) - http://www.bohemiancoding.com/sketch -->
    <title>Group 3</title>
    <desc>Created with Sketch.</desc>
    <defs></defs>
    <g id="Page-1" stroke="none" stroke-width="1" fill="none" fill-rule="evenodd">
        <g id="Group-3" fill-rule="nonzero">
            <g id="Group-2">
                <rect id="Rectangle-2" fill="#FFFFFF" x="0" y="0" width="2519" height="1576"></rect>
                <g id="Group" transform="translate(1067.000000, 531.000000)" fill="#FF5050">
                    <path d="M30,193 L355,193 C371.568542,193 385,206.431458 385,223 L385,484 C385,500.568542 371.568542,514 355,514 L30,514 C13.4314575,514 2.02906125e-15,500.568542 0,484 L0,223 C-2.02906125e-15,206.431458 13.4314575,193 30,193 Z M235,452.626821 C223.379315,390.920904 217.568973,360.067945 217.568973,360.067945 C228.128413,352.439398 235,340.022171 235,326 C235,302.804041 216.195959,284 193,284 C169.804041,284 151,302.804041 151,326 C151,339.385664 157.261903,351.308781 167.016149,358.999795 C169.149008,360.681508 163.810292,391.890517 151,452.626821 L235,452.626821 Z" id="Combined-Shape"></path>
                    <path d="M33,237.78073 C33,244.319855 33,218.226278 33,159.5 C33,71.4105824 104.410582,0 192.5,0 C280.589418,0 352,71.4105824 352,159.5 C352,196.331458 352,222.425035 352,237.78073 L33,237.78073 Z M95,208.606463 L289,208.606463 C289,199.26789 289,183.399069 289,161 C289,107.428379 245.571621,64 192,64 C138.428379,64 95,107.428379 95,161 C95,196.714414 95,212.583235 95,208.606463 Z" id="Combined-Shape"></path>
                </g>
            </g>
        </g>
    </g>
</svg>