<?xml version="1.0" encoding="UTF-8"?>
<svg width="14px" height="15px" viewBox="0 0 14 15" version="1.1" xmlns="http://www.w3.org/2000/svg" xmlns:xlink="http://www.w3.org/1999/xlink">
    <!-- Generator: Sketch 46.2 (44496) - http://www.bohemiancoding.com/sketch -->
    <title>Oval 2</title>
    <desc>Created with Sketch.</desc>
    <defs></defs>
    <g id="ExamBuilder---Dashboard" stroke="none" stroke-width="1" fill="none" fill-rule="evenodd">
        <g id="Dashboard" transform="translate(-514.000000, -369.000000)" stroke="#979797" stroke-width="1.5" fill="#FFFFFF">
            <g id="new-taslk" transform="translate(-6.000000, -5.000000)">
                <path d="M532.476963,387.628518 C532.609386,387.628518 532.577218,385.439163 531.571347,383.859693 C530.519866,382.208603 528.492039,381.162852 528.613494,381.096818 C529.624326,380.547235 530.31045,379.475984 530.31045,378.244479 C530.31045,376.452603 528.857848,375 527.065971,375 C525.274095,375 523.821492,376.452603 523.821492,378.244479 C523.821492,379.403115 524.447702,380.522863 525.36138,381.096818 C525.418758,381.132861 523.466113,382.316588 522.534719,383.859693 C521.515915,385.547616 521.510312,387.606921 521.580342,387.628518 C521.882977,387.721853 532.143692,387.628518 532.476963,387.628518 Z" id="Oval-2"></path>
            </g>
        </g>
    </g>
</svg>