<?xml version="1.0" encoding="UTF-8"?>
<svg width="144px" height="358px" viewBox="0 0 144 358" version="1.1" xmlns="http://www.w3.org/2000/svg" xmlns:xlink="http://www.w3.org/1999/xlink">
    <!-- Generator: Sketch 51.3 (57544) - http://www.bohemiancoding.com/sketch -->
    <title>Group 25</title>
    <desc>Created with Sketch.</desc>
    <defs></defs>
    <g id="Page-1" stroke="none" stroke-width="1" fill="none" fill-rule="evenodd">
        <g id="Group-25">
            <g id="Group-24">
                <g id="Group-22">
                    <polyline id="Fill-269" fill="#38393D" points="115.054172 280 114.925053 309.388221 122 321.753461 109.688149 335 94.8964593 326.152224 93.6888194 316.53911 92.9103094 310.257924 88 280 115.054172 280"></polyline>
                    <polyline id="Fill-270" fill="#E4E4E4" points="92.256 313 92 311 92.256 313"></polyline>
                    <polyline id="Fill-271" fill="#252629" points="108.632465 332 93.7738753 323.363568 92.2441463 311.474796 92 309.588289 113.893054 307 121 319.069876 108.632465 332"></polyline>
                    <polyline id="Fill-272" fill="#38393D" points="33.9504021 280 34.0833333 309.388221 27 321.753461 39.3208222 335 54.1065684 326.152224 55.3143432 316.53911 56.0967382 310.257924 61 280 33.9504021 280"></polyline>
                    <polyline id="Fill-273" fill="#252629" points="39.3751644 332 27 319.069876 34.1145751 307 56 309.588289 54.2261247 323.363568 39.3751644 332"></polyline>
                    <polygon id="Fill-277" fill="#636363" points="71 337 78 337 78 303 71 303"></polygon>
                    <polygon id="Fill-278" fill="#636363" points="69 356 81 356 81 338 69 338"></polygon>
                    <polygon id="Fill-279" fill="#454545" points="69 358 81 358 81 353 69 353"></polygon>
                    <polyline id="Fill-254" fill="#FDBA5B" points="86 84.4652136 73.427943 88 61 84.4652136 64.5270024 61 82.4692051 61 86 84.4652136"></polyline>
                    <polyline id="Fill-255" fill="#5C3921" points="54 31 56.093815 39 91.944581 39 95 31 54 31"></polyline>
                    <polyline id="Fill-256" fill="#FDCC86" points="94 33.635569 94 46.517278 91.6438779 46.517278 91.6438779 53.4515154 81.4005407 70 66.5994593 70 56.3522596 53.4515154 56.3522596 46.517278 54 46.517278 54 33.635569 56.3522596 33.635569 56.3522596 23 91.6438779 23 91.6438779 33.635569 94 33.635569"></polyline>
                    <polygon id="Fill-257" fill="#FDBA5B" points="54 33 89 33 89 27 54 27"></polygon>
                    <polyline id="Fill-258" fill="#FDBA5B" points="78 56 69 56 73.5019338 42 78 56"></polyline>
                    <polygon id="Fill-259" fill="#F8A204" points="51 23 57 23 57 15 51 15"></polygon>
                    <polygon id="Fill-260" fill="#F8A204" points="89 23 95 23 95 15 89 15"></polygon>
                    <path d="M93.9619462,22 L94,21.1715481 C94,9.48117155 84.5969013,0 73.0019027,0 C61.4030987,0 52,9.48117155 52,21.1715481 L52.0380538,22 L93.9619462,22" id="Fill-261" fill="#FFC000"></path>
                    <polyline id="Fill-262" fill="#F8A204" points="77.974781 24 70.025219 24 67 0 81 0 77.974781 24"></polyline>
                    <path d="M96,26.4963351 C96,28.4314136 94.4759502,30 92.5844265,30 L53.4155735,30 C51.5240498,30 50,28.4314136 50,26.4963351 C50,24.5685864 50,23 50,23 L95.8878237,23 C95.8878237,23 96,24.5685864 96,26.4963351" id="Fill-263" fill="#F8A204"></path>
                    <polyline id="Fill-264" fill="#FDCC86" points="122.848369 111 144 148.738824 124.234165 177 115.804223 167.938407 124.303263 141.921636 108 120.294431 122.848369 111"></polyline>
                    <polyline id="Fill-265" fill="#FDCC86" points="20.3284553 111 0 148.994956 24.3273713 175 34.4233062 168.324847 19.4596206 142.1315 35 120.357512 20.3284553 111"></polyline>
                    <path d="M134,120.469697 L113.701402,134 L111.340474,127.321212 L37.6056934,127.321212 L35.2447654,134 L15,122.469495 L29.0540584,92.4648485 L41.4700788,86.2159596 L50.9522425,81.4333333 L62.841476,77 C62.841476,77 66.3751777,87.6131313 74.2000775,87.6131313 C82.0249774,87.6131313 85.2818276,77 85.2818276,77 L97.9593189,81.4333333 L107.441482,86.2159596 L119.895955,92.4648485 L134,120.469697" id="Fill-266" fill="#38393D"></path>
                    <polyline id="Fill-267" fill="#FFC000" points="99.8514481 159.310487 106.65104 101.708151 106.624165 101.708151 106.635683 101.70048 106.635683 85.7829347 97.1677016 81 97.1677016 101.708151 50.2309333 101.708151 50.2309333 81 40.7629521 85.7829347 40.7629521 101.70048 40.7706309 101.708151 47.5663838 159.310487 35 280 62.344267 280 73.7165948 199.76023 88.889937 280 116 280 99.8514481 159.310487"></polyline>
                    <polygon id="Fill-268" fill="#F8A204" points="54 133 90 133 90 108 54 108"></polygon>
                    <polygon id="Fill-274" fill="#696969" points="56 259 94 259 94 169 56 169"></polygon>
                    <polygon id="Fill-275" fill="#38393D" points="63 187 87 187 87 173 63 173"></polygon>
                    <polygon id="Fill-276" fill="#878787" points="65 304 84 304 84 257 65 257"></polygon>
                    <polygon id="Fill-280" fill="#878787" points="96 191 105 191 105 177 96 177"></polygon>
                    <polygon id="Fill-281" fill="#636363" points="104 184 137 184 137 177 104 177"></polygon>
                    <polygon id="Fill-282" fill="#878787" points="46 191 55 191 55 177 46 177"></polygon>
                    <polygon id="Fill-283" fill="#636363" points="15 184 48 184 48 177 15 177"></polygon>
                    <polygon id="Fill-284" fill="#676767" points="65 262 84 262 84 257 65 257"></polygon>
                    <polygon id="Fill-285" fill="#BEBEBE" points="61 253 64.372 253 64.372 192 61 192"></polygon>
                    <polygon id="Fill-286" fill="#BEBEBE" points="69 253 72.368 253 72.368 192 69 192"></polygon>
                    <polygon id="Fill-287" fill="#BEBEBE" points="77 253 80.364 253 80.364 192 77 192"></polygon>
                    <polygon id="Fill-288" fill="#BEBEBE" points="85 253 88.364 253 88.364 192 85 192"></polygon>
                    <polyline id="Fill-289" fill="#FDCC86" points="33.7867373 169 43 172.410816 40.355307 187 25.4367275 187 23 175.448757 33.7867373 169"></polyline>
                    <polyline id="Fill-290" fill="#FDCC86" points="117.209339 169 108 172.410816 110.644693 187 125.563273 187 128 175.448757 117.209339 169"></polyline>
                </g>
            </g>
        </g>
    </g>
</svg>