<?xml version="1.0" encoding="UTF-8"?>
<svg width="54px" height="54px" viewBox="0 0 54 54" version="1.1" xmlns="http://www.w3.org/2000/svg" xmlns:xlink="http://www.w3.org/1999/xlink">
    <!-- Generator: Sketch 46.2 (44496) - http://www.bohemiancoding.com/sketch -->
    <title>canada</title>
    <desc>Created with Sketch.</desc>
    <defs>
        <circle id="path-1" cx="27" cy="27" r="27"></circle>
    </defs>
    <g id="Symbols" stroke="none" stroke-width="1" fill="none" fill-rule="evenodd">
        <g id="canada">
            <g>
                <g id="Group">
                    <mask id="mask-2" fill="white">
                        <use xlink:href="#path-1"></use>
                    </mask>
                    <use id="Mask" fill="#FFFFFF" xlink:href="#path-1"></use>
                    <g id="Group-7" mask="url(#mask-2)" fill="#FF0006">
                        <g transform="translate(-10.000000, -3.000000)">
                            <rect id="Rectangle-4" x="0" y="0" width="19" height="57"></rect>
                            <rect id="Rectangle-4" x="55" y="0" width="19" height="57"></rect>
                            <path d="M37.6049179,45.3164208 L36.4620437,45.3164208 L36.8030836,38.017078 L36.3721884,37.6063785 L29.5134442,38.5390118 L30.0248069,36.6884187 C30.0730873,36.2070867 29.9999303,35.872279 29.8053359,35.6839958 C29.6107414,35.4957125 27.3422961,33.6520879 23,30.153122 L24.8699211,29.2307443 L23.5873334,24.3233354 L27.2876519,25.1953026 C27.8572351,25.1674283 28.1769485,25.0016022 28.2467922,24.6978245 C28.3166358,24.3940468 28.4680513,23.8233329 28.7010387,22.9856827 L31.9584708,26.6718011 C32.736796,26.8058609 33.0732603,26.6334344 32.9678638,26.1545217 C32.8624672,25.675609 32.3821871,23.1871142 31.5270234,18.6890373 L33.5451781,19.712236 C34.1404794,19.8879495 34.5006369,19.8194207 34.6256507,19.5066496 C34.7506644,19.1938784 35.5391927,17.6916619 36.9912354,15 L39.496297,19.3621237 C39.9674785,19.7325895 40.3274257,19.8492936 40.5761384,19.712236 C40.8248511,19.5751784 41.500462,19.2341122 42.602971,18.6890373 L41.2402314,25.7872116 C41.3821801,26.5152052 41.5273108,26.8815686 41.6756233,26.886302 C41.8980921,26.8934021 42.4888177,26.1545217 42.602971,26.1545217 C42.6790732,26.1545217 43.6178599,25.098242 45.4193312,22.9856827 L45.931246,24.8172634 C46.23576,25.1717409 46.5965224,25.2977539 47.013533,25.1953026 C47.4305436,25.0928512 48.6106538,24.8021955 50.5538634,24.3233354 L49.4036524,28.7109405 C49.3937123,29.0948701 49.4633193,29.3371402 49.6124733,29.4377508 C49.7616273,29.5383613 50.2718592,29.7785146 51.143169,30.1582104 L44.402917,35.6839958 C44.1494709,36.1092635 44.0453103,36.4440711 44.0904352,36.6884187 C44.1355601,36.9327662 44.3294445,37.5496306 44.6720885,38.5390118 L37.8994918,37.6063785 L37.4406697,38.017078 L37.6049179,45.3164208 Z" id="Path-2"></path>
                        </g>
                    </g>
                </g>
                <circle id="Oval" stroke="#F4F4F4" cx="27" cy="27" r="27"></circle>
            </g>
            <polygon id="Rectangle-6" fill="#FF0006" points="26 34 28 34 28.8409545 43 25.046267 43"></polygon>
        </g>
    </g>
</svg>