<?xml version="1.0" encoding="UTF-8"?>
<svg width="54px" height="54px" viewBox="0 0 54 54" version="1.1" xmlns="http://www.w3.org/2000/svg" xmlns:xlink="http://www.w3.org/1999/xlink">
    <!-- Generator: Sketch 46.2 (44496) - http://www.bohemiancoding.com/sketch -->
    <title>usa</title>
    <desc>Created with Sketch.</desc>
    <defs>
        <circle id="path-1" cx="27" cy="27" r="27"></circle>
    </defs>
    <g id="Symbols" stroke="none" stroke-width="1" fill="none" fill-rule="evenodd">
        <g id="usa">
            <g>
                <g id="us">
                    <mask id="mask-2" fill="white">
                        <use xlink:href="#path-1"></use>
                    </mask>
                    <use id="Mask" fill="#FFFFFF" xlink:href="#path-1"></use>
                    <g id="Group-6" mask="url(#mask-2)">
                        <g transform="translate(-4.954128, -4.954128)">
                            <g id="stripes" stroke-width="1" fill="none" transform="translate(0.000000, 4.458716)">
                                <rect id="Rectangle-5" fill="#E10000" x="0" y="42.1100917" width="64.8990826" height="4.4587156"></rect>
                                <rect id="Rectangle-5" fill="#E10000" x="0" y="33.6880734" width="64.8990826" height="4.4587156"></rect>
                                <rect id="Rectangle-5" fill="#E10000" x="0" y="25.7614679" width="64.8990826" height="3.96330275"></rect>
                                <rect id="Rectangle-5" fill="#E10000" x="0" y="17.3394495" width="64.8990826" height="4.4587156"></rect>
                                <rect id="Rectangle-5" fill="#E10000" x="0" y="9.41284404" width="64.8990826" height="3.96330275"></rect>
                                <rect id="Rectangle-5" fill="#E10000" x="0" y="0" width="64.8990826" height="5.44954128"></rect>
                                <rect id="Rectangle-5" fill="#E10000" x="0" y="50.0366972" width="64.8990826" height="5.44954128"></rect>
                            </g>
                            <rect id="blue" fill="#1C2F75" x="0" y="0" width="31.2110092" height="34.1834862"></rect>
                            <g id="starsa" stroke-width="1" fill="none" transform="translate(3.467890, 3.963303)">
                                <polygon id="Star" fill="#FFFFFF" points="21.7981651 25.5137615 20.924576 25.9730344 21.0914167 25.0002787 20.3846683 24.3113692 21.3613706 24.1694461 21.7981651 23.2844037 22.2349597 24.1694461 23.211662 24.3113692 22.5049136 25.0002787 22.6717542 25.9730344"></polygon>
                                <polygon id="Star" fill="#FFFFFF" points="24.7706422 28.4862385 23.8970531 28.9455115 24.0638938 27.9727557 23.3571454 27.2838463 24.3338477 27.1419232 24.7706422 26.2568807 25.2074367 27.1419232 26.184139 27.2838463 25.4773906 27.9727557 25.6442313 28.9455115"></polygon>
                                <polygon id="Star" fill="#FFFFFF" points="18.3302752 28.4862385 17.4566861 28.9455115 17.6235268 27.9727557 16.9167784 27.2838463 17.8934807 27.1419232 18.3302752 26.2568807 18.7670698 27.1419232 19.7437721 27.2838463 19.0370236 27.9727557 19.2038643 28.9455115"></polygon>
                                <polygon id="Star" fill="#FFFFFF" points="11.3944954 28.4862385 10.5209063 28.9455115 10.687747 27.9727557 9.98099857 27.2838463 10.9577009 27.1419232 11.3944954 26.2568807 11.83129 27.1419232 12.8079923 27.2838463 12.1012438 27.9727557 12.2680845 28.9455115"></polygon>
                                <polygon id="Star" fill="#FFFFFF" points="4.4587156 28.4862385 3.58512651 28.9455115 3.75196718 27.9727557 3.04521876 27.2838463 4.02192105 27.1419232 4.4587156 26.2568807 4.89551014 27.1419232 5.87221244 27.2838463 5.16546402 27.9727557 5.33230469 28.9455115"></polygon>
                                <polygon id="Star" fill="#FFFFFF" points="1.48623853 25.5137615 0.612649442 25.9730344 0.779490112 25.0002787 0.0727416914 24.3113692 1.04944399 24.1694461 1.48623853 23.2844037 1.92303308 24.1694461 2.89973537 24.3113692 2.19298695 25.0002787 2.35982762 25.9730344"></polygon>
                                <polygon id="Star" fill="#FFFFFF" points="7.9266055 25.5137615 7.05301641 25.9730344 7.21985708 25.0002787 6.51310866 24.3113692 7.48981096 24.1694461 7.9266055 23.2844037 8.36340005 24.1694461 9.34010235 24.3113692 8.63335392 25.0002787 8.8001946 25.9730344"></polygon>
                                <polygon id="Star" fill="#FFFFFF" points="14.8623853 25.5137615 13.9887962 25.9730344 14.1556369 25.0002787 13.4488885 24.3113692 14.4255908 24.1694461 14.8623853 23.2844037 15.2991799 24.1694461 16.2758822 24.3113692 15.5691337 25.0002787 15.7359744 25.9730344"></polygon>
                                <polygon id="Star" fill="#FFFFFF" points="21.7981651 19.5688073 20.924576 20.0280803 21.0914167 19.0553246 20.3846683 18.3664151 21.3613706 18.224492 21.7981651 17.3394495 22.2349597 18.224492 23.211662 18.3664151 22.5049136 19.0553246 22.6717542 20.0280803"></polygon>
                                <polygon id="Star" fill="#FFFFFF" points="24.7706422 22.5412844 23.8970531 23.0005574 24.0638938 22.0278016 23.3571454 21.3388922 24.3338477 21.196969 24.7706422 20.3119266 25.2074367 21.196969 26.184139 21.3388922 25.4773906 22.0278016 25.6442313 23.0005574"></polygon>
                                <polygon id="Star" fill="#FFFFFF" points="18.3302752 22.5412844 17.4566861 23.0005574 17.6235268 22.0278016 16.9167784 21.3388922 17.8934807 21.196969 18.3302752 20.3119266 18.7670698 21.196969 19.7437721 21.3388922 19.0370236 22.0278016 19.2038643 23.0005574"></polygon>
                                <polygon id="Star" fill="#FFFFFF" points="11.3944954 22.5412844 10.5209063 23.0005574 10.687747 22.0278016 9.98099857 21.3388922 10.9577009 21.196969 11.3944954 20.3119266 11.83129 21.196969 12.8079923 21.3388922 12.1012438 22.0278016 12.2680845 23.0005574"></polygon>
                                <polygon id="Star" fill="#FFFFFF" points="4.4587156 22.5412844 3.58512651 23.0005574 3.75196718 22.0278016 3.04521876 21.3388922 4.02192105 21.196969 4.4587156 20.3119266 4.89551014 21.196969 5.87221244 21.3388922 5.16546402 22.0278016 5.33230469 23.0005574"></polygon>
                                <polygon id="Star" fill="#FFFFFF" points="1.48623853 19.5688073 0.612649442 20.0280803 0.779490112 19.0553246 0.0727416914 18.3664151 1.04944399 18.224492 1.48623853 17.3394495 1.92303308 18.224492 2.89973537 18.3664151 2.19298695 19.0553246 2.35982762 20.0280803"></polygon>
                                <polygon id="Star" fill="#FFFFFF" points="7.9266055 19.5688073 7.05301641 20.0280803 7.21985708 19.0553246 6.51310866 18.3664151 7.48981096 18.224492 7.9266055 17.3394495 8.36340005 18.224492 9.34010235 18.3664151 8.63335392 19.0553246 8.8001946 20.0280803"></polygon>
                                <polygon id="Star" fill="#FFFFFF" points="14.8623853 19.5688073 13.9887962 20.0280803 14.1556369 19.0553246 13.4488885 18.3664151 14.4255908 18.224492 14.8623853 17.3394495 15.2991799 18.224492 16.2758822 18.3664151 15.5691337 19.0553246 15.7359744 20.0280803"></polygon>
                                <polygon id="Star" fill="#FFFFFF" points="21.7981651 13.6238532 20.924576 14.0831262 21.0914167 13.1103704 20.3846683 12.421461 21.3613706 12.2795378 21.7981651 11.3944954 22.2349597 12.2795378 23.211662 12.421461 22.5049136 13.1103704 22.6717542 14.0831262"></polygon>
                                <polygon id="Star" fill="#FFFFFF" points="24.7706422 16.5963303 23.8970531 17.0556032 24.0638938 16.0828475 23.3571454 15.393938 24.3338477 15.2520149 24.7706422 14.3669725 25.2074367 15.2520149 26.184139 15.393938 25.4773906 16.0828475 25.6442313 17.0556032"></polygon>
                                <polygon id="Star" fill="#FFFFFF" points="18.3302752 16.5963303 17.4566861 17.0556032 17.6235268 16.0828475 16.9167784 15.393938 17.8934807 15.2520149 18.3302752 14.3669725 18.7670698 15.2520149 19.7437721 15.393938 19.0370236 16.0828475 19.2038643 17.0556032"></polygon>
                                <polygon id="Star" fill="#FFFFFF" points="11.3944954 16.5963303 10.5209063 17.0556032 10.687747 16.0828475 9.98099857 15.393938 10.9577009 15.2520149 11.3944954 14.3669725 11.83129 15.2520149 12.8079923 15.393938 12.1012438 16.0828475 12.2680845 17.0556032"></polygon>
                                <polygon id="Star" fill="#FFFFFF" points="4.4587156 16.5963303 3.58512651 17.0556032 3.75196718 16.0828475 3.04521876 15.393938 4.02192105 15.2520149 4.4587156 14.3669725 4.89551014 15.2520149 5.87221244 15.393938 5.16546402 16.0828475 5.33230469 17.0556032"></polygon>
                                <polygon id="Star" fill="#FFFFFF" points="1.48623853 13.6238532 0.612649442 14.0831262 0.779490112 13.1103704 0.0727416914 12.421461 1.04944399 12.2795378 1.48623853 11.3944954 1.92303308 12.2795378 2.89973537 12.421461 2.19298695 13.1103704 2.35982762 14.0831262"></polygon>
                                <polygon id="Star" fill="#FFFFFF" points="7.9266055 13.6238532 7.05301641 14.0831262 7.21985708 13.1103704 6.51310866 12.421461 7.48981096 12.2795378 7.9266055 11.3944954 8.36340005 12.2795378 9.34010235 12.421461 8.63335392 13.1103704 8.8001946 14.0831262"></polygon>
                                <polygon id="Star" fill="#FFFFFF" points="14.8623853 13.6238532 13.9887962 14.0831262 14.1556369 13.1103704 13.4488885 12.421461 14.4255908 12.2795378 14.8623853 11.3944954 15.2991799 12.2795378 16.2758822 12.421461 15.5691337 13.1103704 15.7359744 14.0831262"></polygon>
                                <polygon id="Star" fill="#FFFFFF" points="21.7981651 8.17431193 20.924576 8.63358489 21.0914167 7.66082914 20.3846683 6.9719197 21.3613706 6.82999655 21.7981651 5.94495413 22.2349597 6.82999655 23.211662 6.9719197 22.5049136 7.66082914 22.6717542 8.63358489"></polygon>
                                <polygon id="Star" fill="#FFFFFF" points="24.7706422 11.146789 23.8970531 11.606062 24.0638938 10.6333062 23.3571454 9.94439676 24.3338477 9.80247361 24.7706422 8.91743119 25.2074367 9.80247361 26.184139 9.94439676 25.4773906 10.6333062 25.6442313 11.606062"></polygon>
                                <polygon id="Star" fill="#FFFFFF" points="18.3302752 11.146789 17.4566861 11.606062 17.6235268 10.6333062 16.9167784 9.94439676 17.8934807 9.80247361 18.3302752 8.91743119 18.7670698 9.80247361 19.7437721 9.94439676 19.0370236 10.6333062 19.2038643 11.606062"></polygon>
                                <polygon id="Star" fill="#FFFFFF" points="11.3944954 11.146789 10.5209063 11.606062 10.687747 10.6333062 9.98099857 9.94439676 10.9577009 9.80247361 11.3944954 8.91743119 11.83129 9.80247361 12.8079923 9.94439676 12.1012438 10.6333062 12.2680845 11.606062"></polygon>
                                <polygon id="Star" fill="#FFFFFF" points="4.4587156 11.146789 3.58512651 11.606062 3.75196718 10.6333062 3.04521876 9.94439676 4.02192105 9.80247361 4.4587156 8.91743119 4.89551014 9.80247361 5.87221244 9.94439676 5.16546402 10.6333062 5.33230469 11.606062"></polygon>
                                <polygon id="Star" fill="#FFFFFF" points="1.48623853 8.17431193 0.612649442 8.63358489 0.779490112 7.66082914 0.0727416914 6.9719197 1.04944399 6.82999655 1.48623853 5.94495413 1.92303308 6.82999655 2.89973537 6.9719197 2.19298695 7.66082914 2.35982762 8.63358489"></polygon>
                                <polygon id="Star" fill="#FFFFFF" points="7.9266055 8.17431193 7.05301641 8.63358489 7.21985708 7.66082914 6.51310866 6.9719197 7.48981096 6.82999655 7.9266055 5.94495413 8.36340005 6.82999655 9.34010235 6.9719197 8.63335392 7.66082914 8.8001946 8.63358489"></polygon>
                                <polygon id="Star" fill="#FFFFFF" points="14.8623853 8.17431193 13.9887962 8.63358489 14.1556369 7.66082914 13.4488885 6.9719197 14.4255908 6.82999655 14.8623853 5.94495413 15.2991799 6.82999655 16.2758822 6.9719197 15.5691337 7.66082914 15.7359744 8.63358489"></polygon>
                                <polygon id="Star" fill="#FFFFFF" points="21.7981651 2.2293578 20.924576 2.68863076 21.0914167 1.71587501 20.3846683 1.02696557 21.3613706 0.885042417 21.7981651 0 22.2349597 0.885042417 23.211662 1.02696557 22.5049136 1.71587501 22.6717542 2.68863076"></polygon>
                                <polygon id="Star" fill="#FFFFFF" points="24.7706422 5.20183486 23.8970531 5.66110783 24.0638938 4.68835208 23.3571454 3.99944263 24.3338477 3.85751948 24.7706422 2.97247706 25.2074367 3.85751948 26.184139 3.99944263 25.4773906 4.68835208 25.6442313 5.66110783"></polygon>
                                <polygon id="Star" fill="#FFFFFF" points="18.3302752 5.20183486 17.4566861 5.66110783 17.6235268 4.68835208 16.9167784 3.99944263 17.8934807 3.85751948 18.3302752 2.97247706 18.7670698 3.85751948 19.7437721 3.99944263 19.0370236 4.68835208 19.2038643 5.66110783"></polygon>
                                <polygon id="Star" fill="#FFFFFF" points="11.3944954 5.20183486 10.5209063 5.66110783 10.687747 4.68835208 9.98099857 3.99944263 10.9577009 3.85751948 11.3944954 2.97247706 11.83129 3.85751948 12.8079923 3.99944263 12.1012438 4.68835208 12.2680845 5.66110783"></polygon>
                                <polygon id="Star" fill="#FFFFFF" points="4.4587156 5.20183486 3.58512651 5.66110783 3.75196718 4.68835208 3.04521876 3.99944263 4.02192105 3.85751948 4.4587156 2.97247706 4.89551014 3.85751948 5.87221244 3.99944263 5.16546402 4.68835208 5.33230469 5.66110783"></polygon>
                                <polygon id="Star" fill="#FFFFFF" points="1.48623853 2.2293578 0.612649442 2.68863076 0.779490112 1.71587501 0.0727416914 1.02696557 1.04944399 0.885042417 1.48623853 0 1.92303308 0.885042417 2.89973537 1.02696557 2.19298695 1.71587501 2.35982762 2.68863076"></polygon>
                                <polygon id="Star" fill="#FFFFFF" points="7.9266055 2.2293578 7.05301641 2.68863076 7.21985708 1.71587501 6.51310866 1.02696557 7.48981096 0.885042417 7.9266055 0 8.36340005 0.885042417 9.34010235 1.02696557 8.63335392 1.71587501 8.8001946 2.68863076"></polygon>
                                <polygon id="Star" fill="#FFFFFF" points="14.8623853 2.2293578 13.9887962 2.68863076 14.1556369 1.71587501 13.4488885 1.02696557 14.4255908 0.885042417 14.8623853 0 15.2991799 0.885042417 16.2758822 1.02696557 15.5691337 1.71587501 15.7359744 2.68863076"></polygon>
                            </g>
                        </g>
                    </g>
                </g>
                <circle id="Oval" stroke="#F4F4F4" cx="27" cy="27" r="27"></circle>
            </g>
        </g>
    </g>
</svg>